<?xml version="1.0" standalone="no"?>
<!DOCTYPE svg PUBLIC "-//W3C//DTD SVG 1.1//EN" "http://www.w3.org/Graphics/SVG/1.1/DTD/svg11.dtd" >
<svg xmlns="http://www.w3.org/2000/svg" xmlns:xlink="http://www.w3.org/1999/xlink" version="1.1">
<metadata>
Created by FontForge 20170731 at Thu Jul  9 22:26:46 2009
 By Aleksey,,,
Copyright (c) 2006 by Radim Pesko. All rights reserved.
</metadata>
<defs>
<font id="Union-BoldItalic" horiz-adv-x="611" >
  <font-face 
    font-family="Union"
    font-weight="700"
    font-style="italic"
    font-stretch="normal"
    units-per-em="1000"
    panose-1="2 0 0 0 0 0 0 0 0 0"
    ascent="750"
    descent="-250"
    x-height="518"
    cap-height="715"
    bbox="-112 -239 1104 960"
    underline-thickness="50"
    underline-position="-200"
    unicode-range="U+0020-FB02"
  />
<missing-glyph horiz-adv-x="247" 
 />
    <glyph glyph-name="fi" unicode="fi" 
d="M366 419h-101l-88 -419h-141l88 419h-81l21 99h81l28 107q12 45 54 71.5t103 26.5q67 0 117 -15l-25 -101q-44 11 -64 11q-46 0 -55 -36l-17 -64h100zM481 593l26 122h142l-27 -122h-141zM356 0l109 518h142l-109 -518h-142z" />
    <glyph glyph-name="fl" unicode="fl" 
d="M366 419h-101l-88 -419h-141l88 419h-81l21 99h81l28 107q12 45 54 71.5t103 26.5q67 0 117 -15l-25 -101q-44 11 -64 11q-46 0 -55 -36l-17 -64h100zM496 0h-141l151 715h141z" />
    <glyph glyph-name=".notdef" horiz-adv-x="247" 
 />
    <glyph glyph-name=".null" horiz-adv-x="0" 
 />
    <glyph glyph-name="nonmarkingreturn" horiz-adv-x="333" 
 />
    <glyph glyph-name="space" unicode=" " horiz-adv-x="247" 
 />
    <glyph glyph-name="exclam" unicode="!" horiz-adv-x="315" 
d="M287 528l-108 -330h-73l34 336l38 181h149zM29 0l31 144h148l-31 -144h-148z" />
    <glyph glyph-name="quotedbl" unicode="&#x22;" horiz-adv-x="477" 
d="M243 427h-104l1 147l13 141h128l-13 -141zM424 427h-104l1 147l13 141h128l-13 -141z" />
    <glyph glyph-name="numbersign" unicode="#" horiz-adv-x="556" 
d="M78 -5l34 194h-75l5 99h87l23 134h-100l5 99h112l34 194h103l-34 -194h103l32 194h105l-33 -194h76l-5 -99h-88l-23 -134h101l-5 -99h-114l-33 -194h-103l33 194h-102l-34 -194h-104zM358 422h-102l-24 -134h103z" />
    <glyph glyph-name="dollar" unicode="$" horiz-adv-x="556" 
d="M354 729l13 61h58l-13 -68q71 -16 114 -66t43 -128v-3l-128 -3q-3 63 -52 87l-37 -188q86 -34 131.5 -81t45.5 -123q0 -107 -77.5 -171t-186.5 -61l-18 -86h-59l18 92q-85 14 -132.5 73t-48.5 160l130 3q3 -101 74 -122l42 211q-14 5 -29 14q-48 27 -75 48t-47 57t-20 83
q0 97 78 157t176 54zM287 97q50 3 83 30.5t33 74.5q0 32 -18 52t-59 39zM297 446l35 173q-43 0 -74 -24.5t-31 -63.5q0 -55 70 -85z" />
    <glyph glyph-name="percent" unicode="%" horiz-adv-x="926" 
d="M274 716q68 0 107 -39t39 -111q0 -103 -55.5 -168t-141.5 -65q-66 0 -103.5 41t-37.5 109q0 106 55 169.5t137 63.5zM230 412q30 0 51.5 33.5t29.5 71t8 69.5q0 22 -12 36.5t-32 14.5q-31 0 -51 -29t-29 -64q-33 -132 35 -132zM249 -26h-100l570 754h98zM735 363
q68 0 107 -39t39 -111q0 -103 -55.5 -168t-141.5 -65q-66 0 -103.5 41t-37.5 109q0 106 55 169.5t137 63.5zM691 59q30 0 51.5 33.5t29.5 71t8 69.5q0 22 -12 36.5t-32 14.5q-31 0 -51 -29t-29 -64q-33 -132 35 -132z" />
    <glyph glyph-name="ampersand" unicode="&#x26;" horiz-adv-x="704" 
d="M405 149q-57 77 -113 174q-52 -29 -78.5 -57.5t-26.5 -72.5q0 -41 27 -66t71 -25q65 0 120 47zM326 558q0 -33 29 -87q100 48 100 104q0 25 -15.5 41t-40.5 16q-31 0 -52 -20t-21 -54zM502 238q23 23 53 93l116 -34q-26 -93 -96 -156q29 -40 81 -104l-122 -45
q-30 26 -59 62q-87 -67 -197 -67q-100 0 -164.5 55.5t-64.5 144.5q0 101 86 172q33 28 103 61q-40 76 -40 123q0 83 56.5 132.5t141.5 49.5q26 0 54.5 -7.5t57.5 -23t47.5 -46.5t18.5 -72q0 -111 -167 -198z" />
    <glyph glyph-name="quotesingle" unicode="'" horiz-adv-x="258" 
d="M235 427h-104l1 147l13 141h128l-13 -141z" />
    <glyph glyph-name="parenleft" unicode="(" horiz-adv-x="315" 
d="M295 729h116q-91 -113 -141 -212q-96 -192 -96 -431q0 -120 44 -282h-102q-32 75 -51 171t-19 170q0 212 119 408q42 70 130 176z" />
    <glyph glyph-name="parenright" unicode=")" horiz-adv-x="315" 
d="M20 -196h-115q88 110 140 211q96 186 96 432q0 124 -43 282h102q32 -75 51 -171t19 -170q0 -212 -119 -408q-44 -72 -131 -176z" />
    <glyph glyph-name="asterisk" unicode="*" horiz-adv-x="398" 
d="M209 721l88 -2q-6 -49 -18 -130q68 24 122 38l20 -83q-57 -10 -123 -21l72 -102l-74 -44l-60 109q-28 -40 -77 -105l-66 57l91 93q-13 4 -40 13.5t-47 16.5t-30 11l32 80q62 -29 111 -56q0 5 -0.5 60.5t-0.5 64.5z" />
    <glyph glyph-name="plus" unicode="+" horiz-adv-x="592" 
d="M374 52h-116v192h-193v118h193v193h116v-193h193v-118h-193v-192z" />
    <glyph glyph-name="comma" unicode="," horiz-adv-x="278" 
d="M-19 -161l15 68q38 5 57 27t28 66h-67l31 144h149l-23 -111q-19 -96 -61.5 -144t-128.5 -50z" />
    <glyph glyph-name="hyphen" unicode="-" horiz-adv-x="370" 
d="M33 201l27 129h286l-27 -129h-286z" />
    <glyph glyph-name="period" unicode="." horiz-adv-x="278" 
d="M16 0l30 144h149l-31 -144h-148z" />
    <glyph glyph-name="slash" unicode="/" horiz-adv-x="369" 
d="M93 -14h-106l317 743h106z" />
    <glyph glyph-name="zero" unicode="0" horiz-adv-x="556" 
d="M350 715q105 0 160.5 -67t55.5 -188q0 -59 -12 -122t-38 -126t-63 -113t-92 -81t-120 -31q-101 0 -156 70.5t-55 186.5q0 76 21.5 157t60.5 152t101.5 116.5t136.5 45.5zM247 105q110 0 159 225q18 83 19 133q5 138 -83 138q-100 0 -151 -224q-21 -91 -21 -162
q0 -110 77 -110z" />
    <glyph glyph-name="one" unicode="1" horiz-adv-x="556" 
d="M109 426l28 124q183 30 253 150h101l-150 -700h-146l105 479q-24 -18 -80 -34.5t-111 -18.5z" />
    <glyph glyph-name="two" unicode="2" horiz-adv-x="556" 
d="M4 0q11 122 122 211q137 110 214 175q41 35 60.5 63.5t19.5 61.5q0 43 -25 66t-66 23q-46 0 -76 -34t-37 -96l-136 10q14 113 81.5 174.5t173.5 61.5q40 0 76.5 -10t71 -31.5t55.5 -62.5t21 -97q0 -89 -77 -170q-19 -20 -85 -73t-132 -98q-42 -28 -56 -52h299l-27 -122
h-477z" />
    <glyph glyph-name="three" unicode="3" horiz-adv-x="556" 
d="M512 224q0 -102 -74 -169.5t-197 -67.5q-109 0 -170 58.5t-63 167.5l135 8q-2 -57 25.5 -88t75.5 -31q53 0 88 33t35 88q0 44 -26.5 67.5t-70.5 23.5q-24 0 -36 -1l21 109q10 -1 29 -1q57 0 89 29.5t32 68.5q0 38 -21.5 60t-59.5 22q-45 0 -72.5 -26t-40.5 -83l-131 13
q19 99 85 155t165 56q95 0 155.5 -47t60.5 -137q0 -58 -34.5 -103t-92.5 -61v-3q93 -38 93 -141z" />
    <glyph glyph-name="four" unicode="4" horiz-adv-x="556" 
d="M148 272h176l51 241h-1zM549 700l-92 -428h90l-25 -118h-90l-33 -154h-133l33 154h-303l25 123l398 423h130z" />
    <glyph glyph-name="five" unicode="5" horiz-adv-x="556" 
d="M64 325l116 375h387l-26 -123h-268l-38 -125l2 -2q41 31 107 31q77 0 134 -52.5t57 -153.5q0 -118 -76.5 -203t-207.5 -85q-104 0 -165.5 57.5t-62.5 159.5l136 -1q1 -49 27.5 -74.5t71.5 -25.5q57 0 97 47.5t40 115.5q0 53 -26.5 81.5t-75.5 28.5q-62 0 -107 -55z" />
    <glyph glyph-name="six" unicode="6" horiz-adv-x="556" 
d="M275 101q52 0 86.5 44t34.5 115q0 52 -25 82.5t-59 30.5q-65 0 -97 -48t-32 -110q0 -52 25.5 -83t66.5 -31zM535 261q0 -114 -74 -194t-186 -80q-111 0 -169.5 71t-58.5 204q0 81 19 158.5t56.5 145t102.5 109t148 41.5q88 0 142 -46.5t61 -139.5l-134 -6q-5 83 -77 83
q-103 0 -159 -184l1 -1q48 52 129 52q92 0 145.5 -59t53.5 -154z" />
    <glyph glyph-name="seven" unicode="7" horiz-adv-x="556" 
d="M85 569l27 131h485l-24 -111q-104 -84 -202.5 -261.5t-129.5 -327.5h-146q40 154 123.5 305.5t191.5 263.5h-325z" />
    <glyph glyph-name="eight" unicode="8" horiz-adv-x="556" 
d="M289 326q-52 0 -88.5 -36.5t-36.5 -97.5q0 -40 27 -68t72 -28q60 0 93.5 40t33.5 94q0 44 -29 70t-72 26zM348 716q98 0 154 -53.5t56 -128.5q0 -52 -34.5 -95.5t-93.5 -62.5v-1q45 -18 71.5 -60.5t26.5 -94.5q0 -103 -76.5 -168t-193.5 -65q-116 0 -175.5 60t-59.5 142
q0 73 44 124t118 72v1q-81 47 -81 133q0 82 68 139.5t176 57.5zM325 428q46 0 75.5 29t29.5 66q0 40 -26.5 63t-66.5 23q-47 0 -76.5 -27t-29.5 -71q0 -39 28 -61t66 -22z" />
    <glyph glyph-name="nine" unicode="9" horiz-adv-x="556" 
d="M297 330q61 0 91.5 50.5t30.5 106.5q0 53 -26 83.5t-67 30.5q-54 0 -87.5 -45.5t-33.5 -113.5q0 -55 25 -83.5t67 -28.5zM67 441q0 107 69.5 191t190.5 84q114 0 171 -74.5t57 -203.5q0 -73 -17 -146.5t-52.5 -144.5t-102 -115.5t-154.5 -44.5q-89 0 -144 47.5t-60 138.5
l135 5q2 -40 22 -61t54 -21t61.5 18.5t46 51t28 57t19.5 57.5h-3q-47 -51 -123 -51q-92 0 -145 58.5t-53 153.5z" />
    <glyph glyph-name="colon" unicode=":" horiz-adv-x="306" 
d="M106 369l31 145h148l-31 -145h-148zM29 0l31 144h148l-31 -144h-148z" />
    <glyph glyph-name="semicolon" unicode=";" horiz-adv-x="306" 
d="M106 369l31 145h148l-31 -145h-148zM-3 -161l15 68q38 5 57 27t28 66h-67l31 144h149l-23 -111q-19 -96 -61.5 -144t-128.5 -50z" />
    <glyph glyph-name="less" unicode="&#x3c;" horiz-adv-x="592" 
d="M565 164v-127l-499 208v118l499 207v-127l-354 -139z" />
    <glyph glyph-name="equal" unicode="=" horiz-adv-x="592" 
d="M567 352h-502v117h502v-117zM567 137h-502v117h502v-117z" />
    <glyph glyph-name="greater" unicode="&#x3e;" horiz-adv-x="592" 
d="M566 245l-500 -208v126l355 141l-355 139v127l500 -208v-117z" />
    <glyph glyph-name="question" unicode="?" horiz-adv-x="593" 
d="M303 0h-153l30 144h149zM372 729q99 0 160.5 -49.5t61.5 -132.5q0 -48 -26.5 -90.5t-54.5 -65.5t-71 -50q-68 -44 -92 -80q-15 -21 -21 -62h-129q9 59 31 98q19 35 65 78.5t97 76.5q61 40 61 93q0 34 -25 54t-67 20q-53 0 -85.5 -32.5t-43.5 -91.5l-135 11
q15 106 89.5 164.5t184.5 58.5z" />
    <glyph glyph-name="at" unicode="@" horiz-adv-x="888" 
d="M553 354q1 45 -23 72t-61 27q-62 0 -99 -60.5t-37 -128.5q0 -50 23 -77.5t59 -27.5q55 0 96 56t42 139zM219 255q0 126 72.5 208t168.5 82q86 0 123 -68l14 54h105l-75 -341q-3 -13 2.5 -21.5t14.5 -8.5q42 0 76 38t51 88t17 95q0 117 -79.5 190.5t-219.5 73.5
q-158 0 -252 -100.5t-94 -252.5q0 -140 92.5 -231.5t260.5 -91.5q181 0 269 108h101q-31 -54 -77.5 -93.5t-98 -59t-99 -28.5t-95.5 -9q-108 0 -194 32t-140.5 88.5t-83 130t-28.5 158.5q0 186 124 309.5t316 123.5q162 0 272 -94t110 -246q0 -122 -83 -221.5t-196 -99.5
q-70 0 -80 56h-2q-47 -57 -120 -57q-75 0 -123.5 55.5t-48.5 132.5z" />
    <glyph glyph-name="A" unicode="A" horiz-adv-x="704" 
d="M531 715l118 -715h-148l-23 158h-276l-88 -158h-158l413 715h162zM462 276l-39 286h-1l-163 -286h203z" />
    <glyph glyph-name="B" unicode="B" horiz-adv-x="722" 
d="M192 118h185q70 0 105 31t35 79q0 82 -120 82h-165zM256 426l165 1q59 1 90 28t31 67q0 34 -23.5 53t-65.5 19h-161zM670 232q0 -38 -12.5 -74.5t-42.5 -74t-91 -60.5t-147 -23h-359l150 715h319q107 0 157 -46.5t50 -124.5q0 -62 -35.5 -107.5t-99.5 -59.5v-1
q52 -15 81.5 -54t29.5 -90z" />
    <glyph glyph-name="C" unicode="C" horiz-adv-x="718" 
d="M227 426q-20 -62 -20 -129q0 -80 35 -132t116 -52q61 0 108 39.5t64 104.5l152 -11q-87 -261 -330 -261q-142 0 -220 81.5t-78 230.5q0 188 109 310t275 122q122 0 198.5 -65.5t80.5 -182.5l-149 -7q-12 126 -131 126q-45 0 -83.5 -18t-63 -47t-39.5 -55.5t-24 -53.5z
" />
    <glyph glyph-name="D" unicode="D" horiz-adv-x="729" 
d="M397 590h-102l-98 -467h82q137 0 200 65q84 86 84 228q0 36 -6 64t-23 54.5t-51.5 41t-85.5 14.5zM288 0h-270l151 715h262q138 0 211 -76.5t73 -211.5q0 -58 -11 -113t-41 -113.5t-76.5 -102t-123.5 -71t-175 -27.5z" />
    <glyph glyph-name="E" unicode="E" horiz-adv-x="666" 
d="M573 0h-555l149 715h538l-26 -126h-385l-33 -157h364l-25 -121h-365l-41 -185h405z" />
    <glyph glyph-name="F" unicode="F" horiz-adv-x="602" 
d="M170 0h-152l150 715h505l-27 -126h-352l-36 -168h327l-26 -121h-326z" />
    <glyph glyph-name="G" unicode="G" horiz-adv-x="748" 
d="M748 490l-148 -8q-21 122 -152 122q-109 0 -177 -83.5t-68 -227.5q0 -84 41.5 -132.5t119.5 -48.5q89 0 139 46t61 108h-172l24 118h313q-17 -88 -30 -140q-25 -103 -116 -180.5t-222 -77.5q-90 0 -155 29.5t-97.5 80t-45.5 108t-8 122.5q14 189 125.5 296t266.5 107
q128 0 208.5 -60.5t92.5 -178.5z" />
    <glyph glyph-name="H" unicode="H" horiz-adv-x="729" 
d="M454 0l66 314h-283l-66 -314h-153l150 715h153l-58 -276h283l58 276h153l-151 -715h-152z" />
    <glyph glyph-name="I" unicode="I" horiz-adv-x="289" 
d="M170 0h-152l150 715h153z" />
    <glyph glyph-name="J" unicode="J" horiz-adv-x="555" 
d="M324 209l107 506h151l-105 -502q-24 -113 -87 -170t-174 -57q-97 0 -154 44.5t-57 129.5q0 28 7 74l140 7q-8 -46 -8 -60q0 -28 20 -44.5t49 -16.5q92 0 111 89z" />
    <glyph glyph-name="K" unicode="K" horiz-adv-x="722" 
d="M217 222l-46 -222h-153l149 715h152l-63 -302h1l328 302h202l-332 -288l228 -427h-172l-170 331z" />
    <glyph glyph-name="L" unicode="L" horiz-adv-x="590" 
d="M525 0h-507l150 715h152l-123 -589h355z" />
    <glyph glyph-name="M" unicode="M" horiz-adv-x="869" 
d="M605 0l136 581h-1l-292 -581h-130l-48 583h-1l-110 -583h-141l150 715h214l38 -510h1l260 510h215l-150 -715h-141z" />
    <glyph glyph-name="N" unicode="N" horiz-adv-x="727" 
d="M263 491h-1l-102 -491h-142l150 715h150l194 -494h1l101 494h141l-151 -715h-147z" />
    <glyph glyph-name="O" unicode="O" horiz-adv-x="767" 
d="M442 604q-62 0 -110.5 -31t-76 -80t-41.5 -101t-14 -102q0 -26 7 -54t24 -58t52 -49t83 -19q100 0 169 91t69 219q0 83 -42.5 133.5t-119.5 50.5zM754 426q0 -190 -113.5 -315.5t-283.5 -125.5q-80 0 -141 27t-95.5 72.5t-51.5 97.5t-17 108q0 120 47.5 219t138.5 159.5
t209 60.5q62 0 115 -17t97 -52t69.5 -95t25.5 -139z" />
    <glyph glyph-name="P" unicode="P" horiz-adv-x="667" 
d="M167 715h288q69 0 118 -18.5t73 -49.5t34 -61.5t10 -64.5q0 -111 -79.5 -184t-224.5 -73h-160l-56 -264h-152zM251 385h126q88 0 124.5 38t36.5 90q0 82 -107 82h-136z" />
    <glyph glyph-name="Q" unicode="Q" horiz-adv-x="767" 
d="M357 185l69 75q54 -31 89 -80q41 44 64 108t23 128q-1 80 -40 133t-119 53q-73 0 -129.5 -48.5t-83 -117.5t-26.5 -141q0 -81 43.5 -131.5t119.5 -50.5q40 0 58 10q-20 33 -68 62zM693 -6l-77 -81q-56 37 -105 102q-73 -30 -153 -30q-141 0 -223 83.5t-82 222.5
q0 115 47.5 214t139 161.5t208.5 62.5q148 0 227.5 -91t78.5 -226q0 -92 -40.5 -186.5t-108.5 -151.5q45 -56 88 -80z" />
    <glyph glyph-name="R" unicode="R" horiz-adv-x="720" 
d="M254 397h145q93 0 130 34.5t37 83.5q0 38 -27 58.5t-75 20.5h-169zM584 253q6 -17 31 -115t48 -138h-163q-13 28 -22.5 64t-18.5 84t-15 73q-17 66 -106 66h-108l-60 -287h-152l150 715h332q111 0 164.5 -56t53.5 -132q0 -78 -52.5 -134.5t-142.5 -69.5v-1q43 -21 61 -69
z" />
    <glyph glyph-name="S" unicode="S" horiz-adv-x="658" 
d="M179 240q-1 -78 40 -105t108 -27q60 0 98 25.5t38 68.5q0 44 -61 71q-23 10 -64.5 25.5t-67.5 25.5t-59 29t-52 39t-32.5 51.5t-13.5 70.5q0 56 25 99t66 67.5t87 36.5t94 12q121 0 193.5 -57.5t76.5 -165.5l-145 -5q-1 54 -35.5 81.5t-94.5 27.5q-54 0 -86.5 -21.5
t-32.5 -60.5q0 -42 64 -69q22 -9 60 -23.5t60 -23.5t52 -23.5t47 -29t34 -35t24.5 -47t7.5 -59.5q0 -98 -75 -165t-212 -67q-289 0 -289 248z" />
    <glyph glyph-name="T" unicode="T" 
d="M457 589l-123 -589h-153l123 589h-217l27 126h580l-27 -126h-210z" />
    <glyph glyph-name="U" unicode="U" horiz-adv-x="733" 
d="M337 -14q-125 0 -197.5 58.5t-72.5 156.5q0 32 18 119l83 395h152l-84 -401q-18 -86 -18 -105q0 -39 31.5 -67.5t95.5 -28.5q58 0 104 33t57 87l102 482h153l-98 -464q-57 -265 -326 -265z" />
    <glyph glyph-name="V" unicode="V" horiz-adv-x="666" 
d="M752 715l-387 -715h-167l-106 715h150l67 -539h2l283 539h158z" />
    <glyph glyph-name="W" unicode="W" horiz-adv-x="957" 
d="M547 0l-17 516h-1l-241 -516h-155l-38 715h149l9 -512h1l236 512h155l17 -509h1l227 509h150l-340 -715h-153z" />
    <glyph glyph-name="X" unicode="X" horiz-adv-x="667" 
d="M140 0h-190l320 369l-172 346h162l113 -242l198 242h185l-312 -361l176 -354h-169l-111 242z" />
    <glyph glyph-name="Y" unicode="Y" horiz-adv-x="654" 
d="M356 409l216 306h178l-338 -448l-55 -267h-153l58 278l-184 437h158z" />
    <glyph glyph-name="Z" unicode="Z" horiz-adv-x="629" 
d="M201 124l75 2h318l-25 -126h-578l25 121l451 470l-78 -2h-278l27 126h540l-24 -119z" />
    <glyph glyph-name="bracketleft" unicode="[" horiz-adv-x="360" 
d="M142 -82h116l-23 -108h-248l192 919h248l-23 -110h-116z" />
    <glyph glyph-name="backslash" unicode="\" horiz-adv-x="335" 
d="M333 -14h-106l-195 743h106z" />
    <glyph glyph-name="bracketright" unicode="]" horiz-adv-x="337" 
d="M214 621h-117l23 108h249l-193 -919h-249l24 111h116z" />
    <glyph glyph-name="asciicircum" unicode="^" horiz-adv-x="592" 
d="M212 328h-129l178 387h121l176 -387h-128l-109 256z" />
    <glyph glyph-name="underscore" unicode="_" horiz-adv-x="531" 
d="M531 -162h-536v70h536v-70z" />
    <glyph glyph-name="grave" unicode="`" horiz-adv-x="296" 
d="M199 578l-110 144h144l65 -144h-99z" />
    <glyph glyph-name="a" unicode="a" horiz-adv-x="565" 
d="M524 351l-31 -147q-22 -102 -24 -134q-3 -44 11 -70h-140q-8 26 -8 55q-59 -68 -155 -68q-72 0 -115 40.5t-43 102.5q0 160 204 174q119 8 160 25q10 25 10 46q0 58 -81 58q-82 0 -97 -67l-135 5q18 81 81.5 120.5t159.5 39.5q122 0 170.5 -51.5t32.5 -128.5zM365 245
q-19 -10 -120 -24q-89 -12 -89 -76q0 -27 20 -42.5t51 -15.5q102 0 130 123z" />
    <glyph glyph-name="b" unicode="b" horiz-adv-x="608" 
d="M348 427q-70 0 -109 -67.5t-39 -153.5q0 -50 28.5 -81.5t72.5 -31.5q66 0 106.5 67t40.5 151q0 53 -26.5 84.5t-73.5 31.5zM161 83l-18 -83h-129l150 715h141l-52 -246h1q36 33 70 47.5t79 14.5q88 0 136 -59t48 -159q0 -141 -75 -233.5t-188 -92.5q-120 0 -162 96h-1z
" />
    <glyph glyph-name="c" unicode="c" horiz-adv-x="558" 
d="M34 208q0 142 83 232.5t211 90.5q96 0 156 -48t64 -136l-138 -7q-4 85 -89 85q-67 0 -107 -66t-40 -160q0 -48 23 -76t66 -28q39 0 69 26t45 71l139 -11q-33 -94 -100 -144t-160 -50q-105 0 -163.5 57t-58.5 164z" />
    <glyph glyph-name="d" unicode="d" 
d="M272 93q48 0 84 36t51 83t15 95q0 53 -27.5 85.5t-73.5 32.5q-48 0 -83 -37.5t-50 -85t-15 -93.5q0 -52 27 -84t72 -32zM368 0l13 61h-1q-60 -74 -157 -74q-88 0 -138.5 55.5t-50.5 154.5q0 82 29 156.5t92 126t148 51.5q109 0 151 -83h1l57 267h141l-150 -715h-135z" />
    <glyph glyph-name="e" unicode="e" horiz-adv-x="579" 
d="M414 307q2 59 -23.5 89.5t-72.5 30.5q-50 0 -84 -32.5t-48 -87.5h228zM35 220q0 128 80 219.5t207 91.5q103 0 163.5 -59t60.5 -166q0 -47 -9 -86h-366q-8 -60 22.5 -95t82.5 -35q69 0 109 72l134 -11q-71 -164 -252 -164q-108 0 -170 64t-62 169z" />
    <glyph glyph-name="f" unicode="f" horiz-adv-x="342" 
d="M365 419h-101l-88 -419h-141l88 419h-81l21 99h81l27 104q13 48 54.5 74.5t103.5 26.5q67 0 117 -15l-25 -101q-44 11 -66 11q-44 0 -53 -36l-17 -64h100z" />
    <glyph glyph-name="g" unicode="g" horiz-adv-x="607" 
d="M174 226q0 -53 25.5 -85.5t69.5 -32.5q58 0 102 54t44 148q0 52 -27.5 84.5t-72.5 32.5q-63 0 -102 -62.5t-39 -138.5zM290 531q114 0 160 -99h1l17 86h134l-110 -518q-23 -105 -86.5 -154t-182.5 -49q-60 0 -106.5 15.5t-79 56.5t-34.5 103l145 -11q0 -32 22.5 -49
t61.5 -17q48 0 74.5 24t34.5 50q1 4 12.5 46t14.5 54h-3q-62 -66 -144 -66q-85 0 -135.5 56t-50.5 155q0 137 72.5 227t182.5 90z" />
    <glyph glyph-name="h" unicode="h" horiz-adv-x="605" 
d="M155 0h-141l149 715h141l-53 -256h1q79 72 174 72q68 0 105.5 -36t37.5 -99q0 -31 -14 -93l-64 -303h-141l64 306q10 48 10 64q0 24 -18 39.5t-46 15.5q-49 0 -81.5 -31t-48.5 -67q-12 -26 -32 -121z" />
    <glyph glyph-name="i" unicode="i" horiz-adv-x="270" 
d="M139 593l26 122h142l-27 -122h-141zM14 0l109 518h142l-109 -518h-142z" />
    <glyph glyph-name="j" unicode="j" horiz-adv-x="276" 
d="M315 715l-26 -122h-142l26 122h142zM-112 -186l23 115q32 -5 51 -5q44 0 54 46l116 548h142l-128 -589q-28 -125 -171 -125q-48 0 -87 10z" />
    <glyph glyph-name="k" unicode="k" horiz-adv-x="557" 
d="M499 0h-148l-78 235l-85 -73l-33 -162h-141l150 715h141l-80 -382h1l193 185h178l-220 -193z" />
    <glyph glyph-name="l" unicode="l" horiz-adv-x="269" 
d="M155 0h-141l151 715h141z" />
    <glyph glyph-name="m" unicode="m" horiz-adv-x="900" 
d="M850 310l-65 -310h-142l68 322q13 38 4 70.5t-53 32.5q-49 0 -84 -41.5t-47 -97.5l-61 -286h-142l67 320q3 19 4.5 30.5t1 27.5t-6 25t-18 15.5t-31.5 6.5q-44 0 -79.5 -36t-45.5 -84l-65 -305h-141l108 518h134l-16 -68h2q69 81 172 81q109 0 128 -91q26 39 76.5 65
t101.5 26q68 0 107 -36.5t37 -89.5q-1 -35 -14 -95z" />
    <glyph glyph-name="n" unicode="n" horiz-adv-x="605" 
d="M213 280l-59 -280h-141l108 518h134l-14 -70h1q80 83 182 83q69 0 106.5 -36t37.5 -101q0 -23 -15 -96l-63 -298h-141l63 298q4 20 5.5 30.5t3.5 28t-1 27.5t-9.5 20.5t-19.5 15.5t-32 5q-44 0 -87.5 -38.5t-58.5 -106.5z" />
    <glyph glyph-name="o" unicode="o" horiz-adv-x="602" 
d="M328 531q112 0 177 -59.5t65 -167.5q0 -58 -17.5 -112t-52.5 -101t-94.5 -75.5t-135.5 -28.5q-109 0 -173.5 61.5t-64.5 163.5q0 134 79.5 226.5t216.5 92.5zM172 213q0 -54 28 -86.5t76 -32.5q69 0 111 65.5t42 152.5q0 52 -27 82t-77 30q-66 0 -109.5 -61.5
t-43.5 -149.5z" />
    <glyph glyph-name="p" unicode="p" horiz-adv-x="622" 
d="M204 213q0 -55 27 -87.5t73 -32.5q50 0 85 38.5t49 85.5t14 93q0 53 -26.5 85t-72.5 32q-68 0 -108.5 -64.5t-40.5 -149.5zM322 -13q-108 0 -151 83h-1l-55 -260h-141l149 708h135l-14 -59l2 -1q63 73 157 73q88 0 138 -56.5t50 -157.5q0 -141 -74.5 -235.5t-194.5 -94.5
z" />
    <glyph glyph-name="q" unicode="q" 
d="M172 207q0 -52 26.5 -83.5t74.5 -31.5q68 0 108.5 69.5t40.5 147.5q0 52 -28.5 84t-72.5 32q-65 0 -107 -63t-42 -155zM34 205q0 152 77.5 239t184.5 87q121 0 162 -95h1l17 82h130l-148 -708h-141l49 232h-1q-61 -55 -145 -55q-90 0 -138 59t-48 159z" />
    <glyph glyph-name="r" unicode="r" horiz-adv-x="393" 
d="M416 395q-26 8 -50 8q-64 0 -105 -47t-58 -130l-48 -226h-141l108 518h133l-21 -98h1q30 54 74 82.5t94 28.5q27 0 55 -9z" />
    <glyph glyph-name="s" unicode="s" horiz-adv-x="538" 
d="M250 343q17 -7 71 -24.5t61 -20.5q62 -24 83 -57t21 -75q0 -31 -12 -60t-37.5 -57t-75 -45t-116.5 -17q-216 0 -239 169l134 11q11 -82 110 -82q44 0 69 17t25 42q0 31 -38 45q-18 7 -67.5 24.5t-70.5 26.5q-48 20 -72.5 48t-24.5 77q0 70 59 118t173 48q203 0 215 -151
l-131 -11q-3 31 -28.5 48.5t-65.5 17.5q-85 0 -85 -50q0 -26 42 -42z" />
    <glyph glyph-name="t" unicode="t" horiz-adv-x="351" 
d="M259 418l-56 -270q-9 -49 47 -49q18 0 48 3l-23 -107q-39 -6 -81 -6q-65 0 -102 26t-36 81q0 23 12 80l51 242h-81l22 100h80l24 120l152 48l-35 -168h94l-22 -100h-94z" />
    <glyph glyph-name="u" unicode="u" 
d="M63 221l62 297h141l-63 -306q-11 -57 -11 -65q0 -24 17.5 -39t46.5 -15q41 0 75 27t53 65q12 24 22 71l55 262h141l-108 -518h-133l15 71h-1q-77 -84 -184 -84q-68 0 -106 36t-38 101q0 17 16 97z" />
    <glyph glyph-name="v" unicode="v" horiz-adv-x="538" 
d="M233 159h1l192 359h151l-301 -518h-141l-86 518h141z" />
    <glyph glyph-name="w" unicode="w" horiz-adv-x="798" 
d="M835 518l-264 -518h-140l-22 346h-1l-159 -346h-139l-61 518h134l28 -356h1l161 356h135l17 -355h1l164 355h145z" />
    <glyph glyph-name="x" unicode="x" horiz-adv-x="538" 
d="M326 0l-75 158l-134 -158h-166l240 271l-125 247h151l66 -148l124 148h165l-228 -259l131 -259h-149z" />
    <glyph glyph-name="y" unicode="y" horiz-adv-x="539" 
d="M236 134h1l188 384h152l-325 -580q-40 -73 -80.5 -103.5t-117.5 -30.5q-37 0 -87 10l18 112q32 -7 53 -7q37 0 58 20.5t42 62.5l-91 516h142z" />
    <glyph glyph-name="z" unicode="z" horiz-adv-x="500" 
d="M429 0h-446l21 100l312 310l-69 -1h-179l23 109h420l-20 -94l-317 -315l65 1h214z" />
    <glyph glyph-name="braceleft" unicode="{" horiz-adv-x="361" 
d="M44 -62q33 160 38 213q3 31 -21 47t-58 17l22 102q36 0 71 21t46 70l45 192q15 63 65 96t110 33h88l-24 -114h-59q-47 0 -59 -61q-12 -65 -39 -168q-14 -52 -43.5 -77.5t-72.5 -41.5v-1q26 -7 48.5 -34t17.5 -65q-15 -103 -35 -195q-5 -22 5 -36.5t31 -15.5q14 -1 58 -1
l-24 -115l-67 -1q-85 -1 -119.5 40.5t-23.5 94.5z" />
    <glyph glyph-name="bar" unicode="|" horiz-adv-x="253" 
d="M183 -114h-108v843h108v-843z" />
    <glyph glyph-name="braceright" unicode="}" horiz-adv-x="361" 
d="M133 371q3 18 11.5 65t15.5 85.5t8 50.5q2 18 -9 29.5t-26 12.5q-14 1 -58 1l24 114h45q47 0 76 -4q39 -6 63.5 -32t25.5 -73q0 -15 -20 -119t-20 -126q0 -29 22.5 -43.5t57.5 -14.5l-21 -102q-78 0 -112 -79q-3 -6 -29 -116t-43 -135q-18 -27 -36.5 -42t-60.5 -27
t-105 -12h-39l24 115l58 1q40 0 48 32q7 25 26.5 102t23.5 91q23 85 117 121v1q-31 10 -52.5 37t-14.5 67z" />
    <glyph glyph-name="asciitilde" unicode="~" horiz-adv-x="592" 
d="M67 320q51 76 135 76q32 0 63.5 -10t91.5 -36q47 -20 71 -20q53 0 111 70l20 -118q-24 -32 -61 -54t-73 -22q-44 0 -113 34q-70 34 -117 34q-57 0 -108 -70z" />
    <glyph glyph-name="uni00A0" unicode="&#xa0;" horiz-adv-x="247" 
 />
    <glyph glyph-name="exclamdown" unicode="&#xa1;" horiz-adv-x="315" 
d="M287 525l-31 -145h-148l31 145h148zM27 -3l109 330h74l-35 -336l-38 -181h-149z" />
    <glyph glyph-name="cent" unicode="&#xa2;" horiz-adv-x="556" 
d="M171 201q0 -71 44 -92l99 321q-40 -3 -72 -32q-27 -24 -49 -76.5t-22 -120.5zM236 -11l-48 -144l-55 12l48 143q-69 17 -107.5 70.5t-38.5 138.5q0 80 26 143.5t68.5 101t93 57t104.5 19.5h18l47 135l54 -12l-46 -132q67 -16 106.5 -60t42.5 -114l-133 -6q-3 59 -47 77
l-100 -323q17 0 29 5q58 23 83 92l136 -10q-62 -195 -256 -195q-11 0 -25 2z" />
    <glyph glyph-name="sterling" unicode="&#xa3;" horiz-adv-x="556" 
d="M253 126q19 0 66.5 -8.5t68.5 -8.5q48 0 95 30l42 -113q-62 -40 -149 -40q-29 0 -105.5 18t-106.5 18q-62 0 -131 -39l-28 111q118 70 131 151q5 29 6 61h-104l20 97h71q-15 54 -15 96q0 38 13.5 76t41.5 73.5t80 58t120 22.5q218 0 220 -224l-131 -6q-6 118 -94 118
q-54 0 -82.5 -36.5t-28.5 -92.5q0 -35 13 -85h132l-20 -97h-105q0 -23 -2 -35q-9 -51 -30.5 -87.5t-66.5 -71.5l1 -2q36 16 78 16z" />
    <glyph glyph-name="currency" unicode="&#xa4;" horiz-adv-x="604" 
d="M104 476l-60 61l69 72l61 -61q51 37 127 37q74 0 121 -37l62 62l72 -72l-61 -60q37 -53 37 -125q0 -71 -37 -126l60 -61l-68 -69l-62 62q-50 -39 -125 -39q-72 0 -126 38l-60 -61l-69 70l60 61q-38 55 -38 124q0 77 37 124zM301 472q-49 0 -80 -35t-31 -85q0 -49 31 -84
t79 -35q49 0 79 35.5t30 84.5q0 48 -30 83.5t-78 35.5z" />
    <glyph glyph-name="yen" unicode="&#xa5;" horiz-adv-x="556" 
d="M307 406l185 309h164l-222 -321h115l-20 -94h-160l-13 -31l-10 -38h169l-20 -94h-167l-29 -137h-145l28 137h-168l19 94h169l8 38l-1 31h-161l19 94h114l-94 321h152l67 -309h1z" />
    <glyph glyph-name="brokenbar" unicode="&#xa6;" horiz-adv-x="253" 
d="M183 399h-108v330h108v-330zM183 -114h-108v331h108v-331z" />
    <glyph glyph-name="section" unicode="&#xa7;" horiz-adv-x="574" 
d="M347 135q43 11 60 39.5t7 60t-38 55.5l-138 115q-15 -5 -30.5 -18t-27 -31.5t-5.5 -44.5t34 -51zM284 27l-162 140q-74 65 -74 139q0 59 36 102.5t101 64.5q-31 47 -31 89q0 72 62 121q58 46 148 46t143 -44.5t53 -129.5l-126 -10q-2 82 -75 82q-31 0 -50.5 -17.5
t-19.5 -46.5q0 -22 17.5 -43.5t63.5 -60.5l88 -74q83 -70 83 -150q0 -56 -35.5 -99t-93.5 -65q36 -46 36 -98q0 -64 -55 -117t-158 -53q-95 0 -155.5 49.5t-65.5 135.5l128 13q4 -45 28.5 -69.5t63.5 -24.5q37 0 57.5 17t20.5 45q0 33 -28 58z" />
    <glyph glyph-name="dieresis" unicode="&#xa8;" horiz-adv-x="389" 
d="M95 578l24 119h126l-24 -119h-126zM296 578l24 119h126l-24 -119h-126z" />
    <glyph glyph-name="copyright" unicode="&#xa9;" horiz-adv-x="768" 
d="M408 731q155 0 264.5 -109.5t109.5 -264.5t-109.5 -264.5t-264.5 -109.5t-264.5 109.5t-109.5 264.5t109.5 264.5t264.5 109.5zM408 656q-124 0 -208.5 -87t-84.5 -212t84.5 -212t208.5 -87t209 87t85 212t-85 212t-209 87zM591 284q-15 -66 -62 -104t-111 -38
q-92 0 -147 60.5t-55 155.5t54.5 155t143.5 60q141 0 176 -137l-80 -9q-21 71 -94 71q-51 0 -80 -37t-29 -103q0 -64 29.5 -102.5t77.5 -38.5q80 0 97 81z" />
    <glyph glyph-name="ordfeminine" unicode="&#xaa;" horiz-adv-x="357" 
d="M283 530q-24 -13 -77 -19q-52 -7 -52 -42q0 -15 11.5 -24.5t30.5 -8.5q35 1 55.5 24t31.5 70zM94 617q27 104 164 104q78 0 114.5 -31.5t25.5 -81.5l-39 -183q-6 -31 10 -48h-100q-6 8 -6 27q-43 -35 -97 -35q-53 0 -82 25t-29 65q0 106 128 115q95 6 116 25l3 12
q4 18 -9.5 28.5t-38.5 10.5q-51 0 -66 -40z" />
    <glyph glyph-name="guillemotleft" unicode="&#xab;" horiz-adv-x="510" 
d="M67 244l20 72l179 141l38 -64l-129 -131l71 -151l-60 -54zM279 244l20 72l179 141l38 -64l-129 -131l71 -151l-60 -54z" />
    <glyph glyph-name="logicalnot" unicode="&#xac;" horiz-adv-x="592" 
d="M567 142h-116v207h-386v116h502v-323z" />
    <glyph glyph-name="uni00AD" unicode="&#xad;" horiz-adv-x="370" 
d="M33 201l27 129h286l-27 -129h-286z" />
    <glyph glyph-name="registered" unicode="&#xae;" horiz-adv-x="768" 
d="M506 283q44 -89 82 -131h-96q-18 21 -36 63q-10 25 -15.5 36.5t-17 32t-23 30t-23.5 9.5h-45v-171h-82v408h184q57 0 97 -29t40 -88q0 -49 -29.5 -78t-78.5 -34q26 -15 43 -48zM332 387h80q30 0 52 13.5t22 43.5q0 52 -74 52h-80v-109zM408 731q155 0 264.5 -109.5
t109.5 -264.5t-109.5 -264.5t-264.5 -109.5t-264.5 109.5t-109.5 264.5t109.5 264.5t264.5 109.5zM408 656q-124 0 -208.5 -87t-84.5 -212t84.5 -212t208.5 -87t209 87t85 212t-85 212t-209 87z" />
    <glyph glyph-name="macron" unicode="&#xaf;" horiz-adv-x="570" 
d="M522 594h-317l19 87h317z" />
    <glyph glyph-name="degree" unicode="&#xb0;" horiz-adv-x="400" 
d="M169 569q0 -36 23 -58.5t56 -22.5q32 0 55 22.5t23 58.5t-23 58.5t-55 22.5q-33 0 -56 -22.5t-23 -58.5zM248 719q63 0 107.5 -43.5t44.5 -106.5t-44.5 -107t-107.5 -44t-107.5 44t-44.5 107t44.5 106.5t107.5 43.5z" />
    <glyph glyph-name="plusminus" unicode="&#xb1;" horiz-adv-x="574" 
d="M365 156h-116v158h-193v118h193v158h116v-158h194v-118h-194v-158zM559 0h-503v116h503v-116z" />
    <glyph glyph-name="twosuperior" unicode="&#xb2;" horiz-adv-x="434" 
d="M308 599q0 46 -52 46q-57 0 -67 -71l-97 5q9 68 52 104t116 36q66 0 105.5 -31t39.5 -86q0 -28 -13.5 -54t-39 -47t-44.5 -33.5t-46 -27.5q-58 -33 -71 -48h180l-19 -78h-303q4 51 33 89q25 33 120 95q3 2 19.5 12.5l22 14t18.5 13t19 15.5t13.5 14.5t10.5 16t3 15.5z
" />
    <glyph glyph-name="threesuperior" unicode="&#xb3;" horiz-adv-x="433" 
d="M202 306q-66 0 -109.5 35.5t-45.5 100.5l96 4q0 -30 17 -46t44 -16q33 0 53 17.5t18 42.5q-1 20 -16 31.5t-39 11.5q-17 0 -28 -2l15 72h22q32 0 52 12t20 36q0 17 -13 28t-36 11q-52 0 -68 -59l-91 8q6 36 24.5 62.5t43 39.5t48 18.5t47.5 5.5q63 0 102 -28t39 -79
q0 -53 -43 -76q-22 -12 -29 -14v-2q15 -5 28 -18q23 -23 23 -60q0 -50 -41 -93t-133 -43z" />
    <glyph glyph-name="acute" unicode="&#xb4;" horiz-adv-x="370" 
d="M204 578l95 144h150l-149 -144h-96z" />
    <glyph glyph-name="mu" unicode="&#xb5;" 
d="M191 -13q-19 0 -38 8l-36 -185h-140l149 708h140l-63 -306q-11 -57 -11 -65q0 -24 17.5 -39t46.5 -15q41 0 75 27t53 65q12 24 22 71l55 262h141l-108 -518h-133l15 71h-1q-77 -84 -184 -84z" />
    <glyph glyph-name="mu" unicode="&#x3bc;" 
d="M191 -13q-19 0 -38 8l-36 -185h-140l149 708h140l-63 -306q-11 -57 -11 -65q0 -24 17.5 -39t46.5 -15q41 0 75 27t53 65q12 24 22 71l55 262h141l-108 -518h-133l15 71h-1q-77 -84 -184 -84z" />
    <glyph glyph-name="paragraph" unicode="&#xb6;" horiz-adv-x="578" 
d="M60 502q0 87 60 150t190 63h176l129 -64l-43 -74l-80 -767h-106l87 801h-90l-88 -801h-107l58 523q-87 1 -136.5 48.5t-49.5 120.5z" />
    <glyph glyph-name="periodcentered" unicode="&#xb7;" horiz-adv-x="278" 
d="M60 226l30 144h149l-31 -144h-148z" />
    <glyph glyph-name="cedilla" unicode="&#xb8;" horiz-adv-x="296" 
d="M165 0l-23 -32h30q41 0 64.5 -20t23.5 -53q0 -48 -47 -77.5t-121 -29.5q-54 0 -85 11l22 53q14 -6 59 -6q42 0 62 12t20 30q0 29 -47 31l-59 2l45 79h56z" />
    <glyph glyph-name="onesuperior" unicode="&#xb9;" horiz-adv-x="435" 
d="M361 715l-94 -401h-100l62 264q-50 -24 -116 -26l18 75q39 2 89.5 30t68.5 58h72z" />
    <glyph glyph-name="ordmasculine" unicode="&#xba;" horiz-adv-x="361" 
d="M248 721q73 0 116 -38t43 -106q0 -87 -55 -148t-141 -61q-73 0 -115 38.5t-42 106.5q0 79 52 143.5t142 64.5zM247 642q-38 0 -65 -42t-27 -93q0 -26 16 -43t42 -17q42 0 67.5 44.5t25.5 90.5q0 60 -59 60z" />
    <glyph glyph-name="guillemotright" unicode="&#xbb;" horiz-adv-x="510" 
d="M471 284l-33 -73l-207 -145l14 96l119 108l-72 146l60 54zM259 284l-33 -73l-208 -145l14 96l120 108l-72 146l60 54z" />
    <glyph glyph-name="onequarter" unicode="&#xbc;" horiz-adv-x="861" 
d="M364 715l-94 -401h-100l62 264q-50 -24 -116 -26l18 75q39 2 89.5 30t68.5 58h72zM771 723l-533 -749h-86l534 749h85zM492 158l246 236h94l-57 -240h55l-17 -74h-57l-19 -80h-93l19 80h-190zM712 284l-133 -130h103l32 130h-2z" />
    <glyph glyph-name="onehalf" unicode="&#xbd;" horiz-adv-x="861" 
d="M364 715l-94 -401h-100l62 264q-50 -24 -116 -26l18 75q39 2 89.5 30t68.5 58h72zM762 723l-533 -749h-86l534 749h85zM773 285q0 46 -52 46q-57 0 -67 -71l-97 5q9 68 52 104t116 36q66 0 105.5 -31t39.5 -86q0 -28 -13.5 -54t-39 -47t-44.5 -33.5t-46 -27.5
q-58 -33 -71 -48h180l-19 -78h-303q4 51 33 89q25 33 120 95q3 2 19.5 12.5l22 14t18.5 13t19 15.5t13.5 14.5t10.5 16t3 15.5z" />
    <glyph glyph-name="threequarters" unicode="&#xbe;" horiz-adv-x="861" 
d="M157 -26l535 749h85l-534 -749h-86zM644 0l19 80h-190l19 78l246 236h93l-56 -240h55l-17 -74h-57l-19 -80h-93zM579 154h102l32 129q0 1 -1 1zM191 306q-66 0 -109.5 35.5t-45.5 100.5l96 4q0 -30 17 -46t44 -16q33 0 53 17.5t18 42.5q-1 20 -16 31.5t-39 11.5
q-17 0 -28 -2l15 72h22q32 0 52 12t20 36q0 17 -13 28t-36 11q-52 0 -68 -59l-91 8q6 36 24.5 62.5t43 39.5t48 18.5t47.5 5.5q63 0 102 -28t39 -79q0 -53 -43 -76q-22 -12 -29 -14v-2q15 -5 28 -18q23 -23 23 -60q0 -50 -41 -93t-133 -43z" />
    <glyph glyph-name="questiondown" unicode="&#xbf;" horiz-adv-x="593" 
d="M295 525h148l-30 -144h-149zM221 -204q-99 0 -160.5 49.5t-61.5 132.5q0 48 26.5 90.5t54.5 65.5t71 50q68 44 92 80q15 21 21 62h129q-9 -59 -31 -98q-19 -35 -65 -78.5t-97 -76.5q-61 -40 -61 -93q0 -34 25 -54t67 -20q53 0 85.5 32.5t43.5 91.5l135 -11
q-15 -106 -89.5 -164.5t-184.5 -58.5z" />
    <glyph glyph-name="Agrave" unicode="&#xc0;" horiz-adv-x="704" 
d="M415 777l-110 144h144l65 -144h-99zM531 715l118 -715h-148l-23 158h-276l-88 -158h-158l413 715h162zM462 276l-39 286h-1l-163 -286h203z" />
    <glyph glyph-name="Aacute" unicode="&#xc1;" horiz-adv-x="704" 
d="M408 777l95 144h150l-149 -144h-96zM531 715l118 -715h-148l-23 158h-276l-88 -158h-158l413 715h162zM462 276l-39 286h-1l-163 -286h203z" />
    <glyph glyph-name="Acircumflex" unicode="&#xc2;" horiz-adv-x="704" 
d="M526 777l-44 85l-87 -85h-112l141 145h131l72 -145h-101zM531 715l118 -715h-148l-23 158h-276l-88 -158h-158l413 715h162zM462 276l-39 286h-1l-163 -286h203z" />
    <glyph glyph-name="Atilde" unicode="&#xc3;" horiz-adv-x="704" 
d="M573 898h64q-24 -116 -105 -116q-23 0 -76.5 18.5t-65.5 18.5q-31 0 -43 -41h-61q14 59 39.5 89.5t71.5 30.5q19 0 70.5 -18.5t66.5 -18.5q30 0 39 37zM531 715l118 -715h-148l-23 158h-276l-88 -158h-158l413 715h162zM462 276l-39 286h-1l-163 -286h203z" />
    <glyph glyph-name="Adieresis" unicode="&#xc4;" horiz-adv-x="704" 
d="M295 779l24 119h126l-24 -119h-126zM496 779l24 119h126l-24 -119h-126zM531 715l118 -715h-148l-23 158h-276l-88 -158h-158l413 715h162zM462 276l-39 286h-1l-163 -286h203z" />
    <glyph glyph-name="Aring" unicode="&#xc5;" horiz-adv-x="704" 
d="M359 829q0 54 38 92.5t98 38.5q38 0 63.5 -24t25.5 -60q0 -57 -39.5 -94t-96.5 -37q-37 0 -63 24.5t-26 59.5zM484 907q-26 0 -45.5 -20t-19.5 -48q0 -18 10.5 -29.5t29.5 -11.5q25 0 45.5 20t20.5 47q0 19 -11 30.5t-30 11.5zM531 715l118 -715h-148l-23 158h-276
l-88 -158h-158l413 715h162zM462 276l-39 286h-1l-163 -286h203z" />
    <glyph glyph-name="AE" unicode="&#xc6;" horiz-adv-x="991" 
d="M402 0l35 167h-229l-106 -167h-163l458 715h643l-26 -126h-340l-34 -158h323l-26 -121h-322l-39 -184h358l-26 -126h-506zM279 285h183l64 304h-54z" />
    <glyph glyph-name="Ccedilla" unicode="&#xc7;" horiz-adv-x="731" 
d="M210 -79l45 79q-91 27 -140 103t-49 194q0 188 109 310t275 122q122 0 198.5 -65.5t80.5 -182.5l-149 -7q-12 126 -131 126q-45 0 -83.5 -18t-63 -47t-39.5 -55.5t-24 -53.5q-14 -43 -18 -92.5t4 -101t45 -85.5t100 -34q61 0 108 39.5t64 104.5l152 -11
q-87 -261 -330 -261q-36 0 -61 4l-15 -21h30q41 0 64.5 -20t23.5 -53q0 -48 -47 -77.5t-121 -29.5q-54 0 -85 11l22 53q14 -6 59 -6q42 0 62 12t20 30q0 29 -47 31z" />
    <glyph glyph-name="Egrave" unicode="&#xc8;" horiz-adv-x="667" 
d="M417 777l-110 144h144l65 -144h-99zM574 0h-555l149 715h538l-26 -126h-385l-33 -157h364l-25 -121h-365l-41 -185h405z" />
    <glyph glyph-name="Eacute" unicode="&#xc9;" horiz-adv-x="667" 
d="M386 777l95 144h150l-149 -144h-96zM574 0h-555l149 715h538l-26 -126h-385l-33 -157h364l-25 -121h-365l-41 -185h405z" />
    <glyph glyph-name="Ecircumflex" unicode="&#xca;" horiz-adv-x="667" 
d="M524 777l-44 85l-87 -85h-112l141 145h131l72 -145h-101zM574 0h-555l149 715h538l-26 -126h-385l-33 -157h364l-25 -121h-365l-41 -185h405z" />
    <glyph glyph-name="Edieresis" unicode="&#xcb;" horiz-adv-x="667" 
d="M292 779l24 119h126l-24 -119h-126zM493 779l24 119h126l-24 -119h-126zM574 0h-555l149 715h538l-26 -126h-385l-33 -157h364l-25 -121h-365l-41 -185h405z" />
    <glyph glyph-name="Igrave" unicode="&#xcc;" horiz-adv-x="287" 
d="M212 777l-110 144h144l65 -144h-99zM168 0h-152l150 715h153z" />
    <glyph glyph-name="Iacute" unicode="&#xcd;" horiz-adv-x="287" 
d="M187 777l95 144h150l-149 -144h-96zM168 0h-152l150 715h153z" />
    <glyph glyph-name="Icircumflex" unicode="&#xce;" horiz-adv-x="287" 
d="M319 777l-44 85l-87 -85h-112l141 145h131l72 -145h-101zM168 0h-152l150 715h153z" />
    <glyph glyph-name="Idieresis" unicode="&#xcf;" horiz-adv-x="287" 
d="M91 779l24 119h126l-24 -119h-126zM292 779l24 119h126l-24 -119h-126zM168 0h-152l150 715h153z" />
    <glyph glyph-name="Eth" unicode="&#xd0;" horiz-adv-x="753" 
d="M32 0l64 306h-78l24 114h79l62 295h192q52 0 76 -1q139 -3 208 -82t69 -205q0 -195 -114 -315q-101 -112 -307 -112h-275zM248 306l-37 -181h67q71 0 111.5 7t75.5 32q46 33 78.5 98t32.5 154q0 97 -44 135.5t-122 38.5h-101l-36 -170h160l-24 -114h-161z" />
    <glyph glyph-name="Ntilde" unicode="&#xd1;" horiz-adv-x="731" 
d="M586 898h64q-24 -116 -105 -116q-23 0 -76.5 18.5t-65.5 18.5q-31 0 -43 -41h-61q14 59 39.5 89.5t71.5 30.5q19 0 70.5 -18.5t66.5 -18.5q30 0 39 37zM265 491h-1l-102 -491h-142l150 715h150l194 -494h1l101 494h141l-151 -715h-147z" />
    <glyph glyph-name="Ograve" unicode="&#xd2;" horiz-adv-x="778" 
d="M426 777l-110 144h144l65 -144h-99zM443 604q-62 0 -110.5 -31t-76 -80t-41.5 -101t-14 -102q0 -26 7 -54t24 -58t52 -49t83 -19q100 0 169 91t69 219q0 83 -42.5 133.5t-119.5 50.5zM755 426q0 -190 -113.5 -315.5t-283.5 -125.5q-80 0 -141 27t-95.5 72.5t-51.5 97.5
t-17 108q0 120 47.5 219t138.5 159.5t209 60.5q62 0 115 -17t97 -52t69.5 -95t25.5 -139z" />
    <glyph glyph-name="Oacute" unicode="&#xd3;" horiz-adv-x="778" 
d="M417 777l95 144h150l-149 -144h-96zM443 604q-62 0 -110.5 -31t-76 -80t-41.5 -101t-14 -102q0 -26 7 -54t24 -58t52 -49t83 -19q100 0 169 91t69 219q0 83 -42.5 133.5t-119.5 50.5zM755 426q0 -190 -113.5 -315.5t-283.5 -125.5q-80 0 -141 27t-95.5 72.5t-51.5 97.5
t-17 108q0 120 47.5 219t138.5 159.5t209 60.5q62 0 115 -17t97 -52t69.5 -95t25.5 -139z" />
    <glyph glyph-name="Ocircumflex" unicode="&#xd4;" horiz-adv-x="778" 
d="M545 777l-44 85l-87 -85h-112l141 145h131l72 -145h-101zM443 604q-62 0 -110.5 -31t-76 -80t-41.5 -101t-14 -102q0 -26 7 -54t24 -58t52 -49t83 -19q100 0 169 91t69 219q0 83 -42.5 133.5t-119.5 50.5zM755 426q0 -190 -113.5 -315.5t-283.5 -125.5q-80 0 -141 27
t-95.5 72.5t-51.5 97.5t-17 108q0 120 47.5 219t138.5 159.5t209 60.5q62 0 115 -17t97 -52t69.5 -95t25.5 -139z" />
    <glyph glyph-name="Otilde" unicode="&#xd5;" horiz-adv-x="778" 
d="M607 898h64q-24 -116 -105 -116q-23 0 -76.5 18.5t-65.5 18.5q-31 0 -43 -41h-61q14 59 39.5 89.5t71.5 30.5q19 0 70.5 -18.5t66.5 -18.5q30 0 39 37zM443 604q-62 0 -110.5 -31t-76 -80t-41.5 -101t-14 -102q0 -26 7 -54t24 -58t52 -49t83 -19q100 0 169 91t69 219
q0 83 -42.5 133.5t-119.5 50.5zM755 426q0 -190 -113.5 -315.5t-283.5 -125.5q-80 0 -141 27t-95.5 72.5t-51.5 97.5t-17 108q0 120 47.5 219t138.5 159.5t209 60.5q62 0 115 -17t97 -52t69.5 -95t25.5 -139z" />
    <glyph glyph-name="Odieresis" unicode="&#xd6;" horiz-adv-x="778" 
d="M320 779l24 119h126l-24 -119h-126zM521 779l24 119h126l-24 -119h-126zM443 604q-62 0 -110.5 -31t-76 -80t-41.5 -101t-14 -102q0 -26 7 -54t24 -58t52 -49t83 -19q100 0 169 91t69 219q0 83 -42.5 133.5t-119.5 50.5zM755 426q0 -190 -113.5 -315.5t-283.5 -125.5
q-80 0 -141 27t-95.5 72.5t-51.5 97.5t-17 108q0 120 47.5 219t138.5 159.5t209 60.5q62 0 115 -17t97 -52t69.5 -95t25.5 -139z" />
    <glyph glyph-name="multiply" unicode="&#xd7;" horiz-adv-x="592" 
d="M142 67l-83 82l154 154l-154 154l84 83l153 -154l154 154l82 -82l-153 -154l154 -154l-83 -84l-155 155z" />
    <glyph glyph-name="Oslash" unicode="&#xd8;" horiz-adv-x="778" 
d="M599 498l-332 -349q42 -37 108 -37q98 0 167 92.5t69 214.5q0 43 -12 79zM558 563q-42 39 -107 39q-61 0 -109.5 -32t-75.5 -81t-41 -100.5t-14 -97.5q0 -39 15 -79zM657 668l82 86l55 -52l-84 -88q53 -74 53 -188q0 -190 -113.5 -315.5t-283.5 -125.5q-120 0 -197 61
l-86 -90l-52 50l87 92q-57 80 -57 192q0 120 47.5 219t138.5 159.5t209 60.5q123 0 201 -61z" />
    <glyph glyph-name="Ugrave" unicode="&#xd9;" horiz-adv-x="731" 
d="M437 777l-110 144h144l65 -144h-99zM334 -14q-125 0 -197.5 58.5t-72.5 156.5q0 32 18 119l83 395h152l-84 -401q-18 -86 -18 -105q0 -39 31.5 -67.5t95.5 -28.5q58 0 104 33t57 87l102 482h153l-98 -464q-57 -265 -326 -265z" />
    <glyph glyph-name="Uacute" unicode="&#xda;" horiz-adv-x="731" 
d="M422 777l95 144h150l-149 -144h-96zM334 -14q-125 0 -197.5 58.5t-72.5 156.5q0 32 18 119l83 395h152l-84 -401q-18 -86 -18 -105q0 -39 31.5 -67.5t95.5 -28.5q58 0 104 33t57 87l102 482h153l-98 -464q-57 -265 -326 -265z" />
    <glyph glyph-name="Ucircumflex" unicode="&#xdb;" horiz-adv-x="731" 
d="M541 777l-44 85l-87 -85h-112l141 145h131l72 -145h-101zM334 -14q-125 0 -197.5 58.5t-72.5 156.5q0 32 18 119l83 395h152l-84 -401q-18 -86 -18 -105q0 -39 31.5 -67.5t95.5 -28.5q58 0 104 33t57 87l102 482h153l-98 -464q-57 -265 -326 -265z" />
    <glyph glyph-name="Udieresis" unicode="&#xdc;" horiz-adv-x="731" 
d="M317 779l24 119h126l-24 -119h-126zM518 779l24 119h126l-24 -119h-126zM334 -14q-125 0 -197.5 58.5t-72.5 156.5q0 32 18 119l83 395h152l-84 -401q-18 -86 -18 -105q0 -39 31.5 -67.5t95.5 -28.5q58 0 104 33t57 87l102 482h153l-98 -464q-57 -265 -326 -265z" />
    <glyph glyph-name="Yacute" unicode="&#xdd;" horiz-adv-x="658" 
d="M371 777l95 144h150l-149 -144h-96zM366 409l216 306h178l-338 -448l-55 -267h-153l58 278l-184 437h158z" />
    <glyph glyph-name="Thorn" unicode="&#xde;" horiz-adv-x="656" 
d="M172 0h-152l149 715h153l-25 -117h137q234 0 234 -194q0 -66 -32.5 -126t-93.5 -94q-15 -9 -31 -15t-38 -10t-34 -6.5t-41 -3.5t-36 -1h-42h-37h-80zM272 477l-43 -208l164 1q65 5 94.5 43.5t29.5 82.5q0 26 -9.5 43t-28.5 25t-38.5 10.5t-47.5 2.5h-121z" />
    <glyph glyph-name="germandbls" unicode="&#xdf;" horiz-adv-x="605" 
d="M442 397q35 -18 76.5 -76t41.5 -130q0 -84 -53.5 -144t-151.5 -60q-61 0 -97 31.5t-44 75.5l76 32q17 -25 50 -25q41 0 62 26t21 73q0 52 -39 94.5t-81 53.5l19 110q45 11 76.5 40.5t31.5 63.5q0 25 -18 41t-43 16q-35 0 -63 -23t-39 -73l-112 -523h-141l109 515
q45 214 255 214q87 0 142.5 -40t55.5 -113q0 -49 -31 -98t-103 -81z" />
    <glyph glyph-name="agrave" unicode="&#xe0;" horiz-adv-x="565" 
d="M524 351l-31 -147q-22 -102 -24 -134q-3 -44 11 -70h-140q-8 26 -8 55q-59 -68 -155 -68q-72 0 -115 40.5t-43 102.5q0 160 204 174q119 8 160 25q10 25 10 46q0 58 -81 58q-82 0 -97 -67l-135 5q18 81 81.5 120.5t159.5 39.5q122 0 170.5 -51.5t32.5 -128.5zM365 245
q-19 -10 -120 -24q-89 -12 -89 -76q0 -27 20 -42.5t51 -15.5q102 0 130 123zM306 578l-110 144h144l65 -144h-99z" />
    <glyph glyph-name="aacute" unicode="&#xe1;" horiz-adv-x="565" 
d="M524 351l-31 -147q-22 -102 -24 -134q-3 -44 11 -70h-140q-8 26 -8 55q-59 -68 -155 -68q-72 0 -115 40.5t-43 102.5q0 160 204 174q119 8 160 25q10 25 10 46q0 58 -81 58q-82 0 -97 -67l-135 5q18 81 81.5 120.5t159.5 39.5q122 0 170.5 -51.5t32.5 -128.5zM365 245
q-19 -10 -120 -24q-89 -12 -89 -76q0 -27 20 -42.5t51 -15.5q102 0 130 123zM281 578l95 144h150l-149 -144h-96z" />
    <glyph glyph-name="acircumflex" unicode="&#xe2;" horiz-adv-x="565" 
d="M524 351l-31 -147q-22 -102 -24 -134q-3 -44 11 -70h-140q-8 26 -8 55q-59 -68 -155 -68q-72 0 -115 40.5t-43 102.5q0 160 204 174q119 8 160 25q10 25 10 46q0 58 -81 58q-82 0 -97 -67l-135 5q18 81 81.5 120.5t159.5 39.5q122 0 170.5 -51.5t32.5 -128.5zM365 245
q-19 -10 -120 -24q-89 -12 -89 -76q0 -27 20 -42.5t51 -15.5q102 0 130 123zM418 578l-44 85l-87 -85h-112l141 145h131l72 -145h-101z" />
    <glyph glyph-name="atilde" unicode="&#xe3;" horiz-adv-x="565" 
d="M524 351l-31 -147q-22 -102 -24 -134q-3 -44 11 -70h-140q-8 26 -8 55q-59 -68 -155 -68q-72 0 -115 40.5t-43 102.5q0 160 204 174q119 8 160 25q10 25 10 46q0 58 -81 58q-82 0 -97 -67l-135 5q18 81 81.5 120.5t159.5 39.5q122 0 170.5 -51.5t32.5 -128.5zM365 245
q-19 -10 -120 -24q-89 -12 -89 -76q0 -27 20 -42.5t51 -15.5q102 0 130 123zM466 702h64q-24 -116 -105 -116q-23 0 -76.5 18.5t-65.5 18.5q-31 0 -43 -41h-61q14 59 39.5 89.5t71.5 30.5q19 0 70.5 -18.5t66.5 -18.5q30 0 39 37z" />
    <glyph glyph-name="adieresis" unicode="&#xe4;" horiz-adv-x="565" 
d="M524 351l-31 -147q-22 -102 -24 -134q-3 -44 11 -70h-140q-8 26 -8 55q-59 -68 -155 -68q-72 0 -115 40.5t-43 102.5q0 160 204 174q119 8 160 25q10 25 10 46q0 58 -81 58q-82 0 -97 -67l-135 5q18 81 81.5 120.5t159.5 39.5q122 0 170.5 -51.5t32.5 -128.5zM365 245
q-19 -10 -120 -24q-89 -12 -89 -76q0 -27 20 -42.5t51 -15.5q102 0 130 123zM188 578l24 119h126l-24 -119h-126zM389 578l24 119h126l-24 -119h-126z" />
    <glyph glyph-name="aring" unicode="&#xe5;" horiz-adv-x="565" 
d="M524 351l-31 -147q-22 -102 -24 -134q-3 -44 11 -70h-140q-8 26 -8 55q-59 -68 -155 -68q-72 0 -115 40.5t-43 102.5q0 160 204 174q119 8 160 25q10 25 10 46q0 58 -81 58q-82 0 -97 -67l-135 5q18 81 81.5 120.5t159.5 39.5q122 0 170.5 -51.5t32.5 -128.5zM365 245
q-19 -10 -120 -24q-89 -12 -89 -76q0 -27 20 -42.5t51 -15.5q102 0 130 123zM251 643q0 54 38 93t99 39q38 0 64 -24t26 -61q0 -58 -39.5 -95t-97.5 -37q-38 0 -64 24.5t-26 60.5zM377 722q-26 0 -46 -20.5t-20 -48.5q0 -18 11 -30t30 -12q25 0 46 20.5t21 47.5
q0 19 -11.5 31t-30.5 12z" />
    <glyph glyph-name="ae" unicode="&#xe6;" horiz-adv-x="898" 
d="M488 464q64 67 169 67q102 0 159.5 -58.5t57.5 -166.5q0 -47 -9 -86h-366q-8 -60 22.5 -95t82.5 -35q69 0 109 72l134 -11q-71 -164 -252 -164q-135 0 -190 108q-75 -108 -230 -108q-72 0 -115 40.5t-43 102.5q0 76 48 119q51 46 156 55q123 10 160 25q10 25 10 46
q0 58 -81 58q-82 0 -97 -67l-135 5q18 81 81.5 120.5t159.5 39.5q123 0 169 -67zM372 246q-45 -15 -129 -25q-92 -11 -92 -76q0 -27 20.5 -42.5t53.5 -15.5q98 0 136 123zM743 307q4 59 -22 89.5t-74 30.5q-50 0 -84.5 -32.5t-48.5 -87.5h229z" />
    <glyph glyph-name="ccedilla" unicode="&#xe7;" horiz-adv-x="556" 
d="M225 -12h-1l-14 -20h30q41 0 64.5 -20t23.5 -53q0 -48 -47 -77.5t-121 -29.5q-54 0 -85 11l22 53q14 -6 59 -6q42 0 62 12t20 30q0 29 -47 31l-59 2l43 76q-67 20 -103.5 73.5t-36.5 137.5q0 142 83 232.5t211 90.5q96 0 156 -48t64 -136l-138 -7q-4 85 -89 85
q-67 0 -107 -66t-40 -160q0 -48 23 -76t66 -28q39 0 69 26t45 71l139 -11q-33 -94 -100 -144t-160 -50q-22 0 -32 1z" />
    <glyph glyph-name="egrave" unicode="&#xe8;" horiz-adv-x="565" 
d="M409 307q2 59 -23.5 89.5t-72.5 30.5q-50 0 -84 -32.5t-48 -87.5h228zM30 220q0 128 80 219.5t207 91.5q103 0 163.5 -59t60.5 -166q0 -47 -9 -86h-366q-8 -60 22.5 -95t82.5 -35q69 0 109 72l134 -11q-71 -164 -252 -164q-108 0 -170 64t-62 169zM298 578l-110 144h144
l65 -144h-99z" />
    <glyph glyph-name="eacute" unicode="&#xe9;" horiz-adv-x="565" 
d="M409 307q2 59 -23.5 89.5t-72.5 30.5q-50 0 -84 -32.5t-48 -87.5h228zM30 220q0 128 80 219.5t207 91.5q103 0 163.5 -59t60.5 -166q0 -47 -9 -86h-366q-8 -60 22.5 -95t82.5 -35q69 0 109 72l134 -11q-71 -164 -252 -164q-108 0 -170 64t-62 169zM292 578l95 144h150
l-149 -144h-96z" />
    <glyph glyph-name="ecircumflex" unicode="&#xea;" horiz-adv-x="565" 
d="M409 307q2 59 -23.5 89.5t-72.5 30.5q-50 0 -84 -32.5t-48 -87.5h228zM30 220q0 128 80 219.5t207 91.5q103 0 163.5 -59t60.5 -166q0 -47 -9 -86h-366q-8 -60 22.5 -95t82.5 -35q69 0 109 72l134 -11q-71 -164 -252 -164q-108 0 -170 64t-62 169zM405 578l-44 85
l-87 -85h-112l141 145h131l72 -145h-101z" />
    <glyph glyph-name="edieresis" unicode="&#xeb;" horiz-adv-x="565" 
d="M409 307q2 59 -23.5 89.5t-72.5 30.5q-50 0 -84 -32.5t-48 -87.5h228zM30 220q0 128 80 219.5t207 91.5q103 0 163.5 -59t60.5 -166q0 -47 -9 -86h-366q-8 -60 22.5 -95t82.5 -35q69 0 109 72l134 -11q-71 -164 -252 -164q-108 0 -170 64t-62 169zM181 578l24 119h126
l-24 -119h-126zM382 578l24 119h126l-24 -119h-126z" />
    <glyph glyph-name="igrave" unicode="&#xec;" horiz-adv-x="269" 
d="M14 0l109 518h142l-109 -518h-142zM161 578l-110 144h144l65 -144h-99z" />
    <glyph glyph-name="iacute" unicode="&#xed;" horiz-adv-x="269" 
d="M14 0l109 518h142l-109 -518h-142zM140 578l95 144h150l-149 -144h-96z" />
    <glyph glyph-name="icircumflex" unicode="&#xee;" horiz-adv-x="269" 
d="M14 0l109 518h142l-109 -518h-142zM268 578l-44 85l-87 -85h-112l141 145h131l72 -145h-101z" />
    <glyph glyph-name="idieresis" unicode="&#xef;" horiz-adv-x="269" 
d="M14 0l109 518h142l-109 -518h-142zM41 578l24 119h126l-24 -119h-126zM242 578l24 119h126l-24 -119h-126z" />
    <glyph glyph-name="eth" unicode="&#xf0;" horiz-adv-x="616" 
d="M268 720q10 2 53.5 12t64.5 16q34 -26 58 -52l110 48l40 -54l-106 -47q87 -133 87 -300q0 -40 -7.5 -83.5t-28.5 -93.5t-53 -88.5t-86.5 -64.5t-122.5 -26q-122 0 -182.5 63.5t-60.5 162.5q0 121 79 210t204 89q78 0 124 -53l2 2q-10 72 -54 139l-119 -50l-41 55l117 50
q-10 12 -21.5 21.5t-29 22.5t-27.5 21zM432 303q0 50 -29 78.5t-75 28.5q-49 0 -86 -35.5t-52.5 -80.5t-15.5 -87q0 -47 27 -80t77 -33q51 0 87.5 35t51.5 80.5t15 93.5z" />
    <glyph glyph-name="ntilde" unicode="&#xf1;" 
d="M215 280l-59 -280h-141l108 518h134l-14 -70h1q80 83 182 83q69 0 106.5 -36t37.5 -101q0 -23 -15 -96l-63 -298h-141l63 298q4 20 5.5 30.5t3.5 28t-1 27.5t-9.5 20.5t-19.5 15.5t-32 5q-44 0 -87.5 -38.5t-58.5 -106.5zM496 702h64q-24 -116 -105 -116
q-23 0 -76.5 18.5t-65.5 18.5q-31 0 -43 -41h-61q14 59 39.5 89.5t71.5 30.5q19 0 70.5 -18.5t66.5 -18.5q30 0 39 37z" />
    <glyph glyph-name="ograve" unicode="&#xf2;" horiz-adv-x="602" 
d="M330 531q112 0 177 -59.5t65 -167.5q0 -58 -17.5 -112t-52.5 -101t-94.5 -75.5t-135.5 -28.5q-109 0 -173.5 61.5t-64.5 163.5q0 134 79.5 226.5t216.5 92.5zM174 213q0 -54 28 -86.5t76 -32.5q69 0 111 65.5t42 152.5q0 52 -27 82t-77 30q-66 0 -109.5 -61.5
t-43.5 -149.5zM313 578l-110 144h144l65 -144h-99z" />
    <glyph glyph-name="oacute" unicode="&#xf3;" horiz-adv-x="602" 
d="M330 531q112 0 177 -59.5t65 -167.5q0 -58 -17.5 -112t-52.5 -101t-94.5 -75.5t-135.5 -28.5q-109 0 -173.5 61.5t-64.5 163.5q0 134 79.5 226.5t216.5 92.5zM174 213q0 -54 28 -86.5t76 -32.5q69 0 111 65.5t42 152.5q0 52 -27 82t-77 30q-66 0 -109.5 -61.5
t-43.5 -149.5zM307 578l95 144h150l-149 -144h-96z" />
    <glyph glyph-name="ocircumflex" unicode="&#xf4;" horiz-adv-x="602" 
d="M330 531q112 0 177 -59.5t65 -167.5q0 -58 -17.5 -112t-52.5 -101t-94.5 -75.5t-135.5 -28.5q-109 0 -173.5 61.5t-64.5 163.5q0 134 79.5 226.5t216.5 92.5zM174 213q0 -54 28 -86.5t76 -32.5q69 0 111 65.5t42 152.5q0 52 -27 82t-77 30q-66 0 -109.5 -61.5
t-43.5 -149.5zM433 578l-44 85l-87 -85h-112l141 145h131l72 -145h-101z" />
    <glyph glyph-name="otilde" unicode="&#xf5;" horiz-adv-x="602" 
d="M330 531q112 0 177 -59.5t65 -167.5q0 -58 -17.5 -112t-52.5 -101t-94.5 -75.5t-135.5 -28.5q-109 0 -173.5 61.5t-64.5 163.5q0 134 79.5 226.5t216.5 92.5zM174 213q0 -54 28 -86.5t76 -32.5q69 0 111 65.5t42 152.5q0 52 -27 82t-77 30q-66 0 -109.5 -61.5
t-43.5 -149.5zM474 702h64q-24 -116 -105 -116q-23 0 -76.5 18.5t-65.5 18.5q-31 0 -43 -41h-61q14 59 39.5 89.5t71.5 30.5q19 0 70.5 -18.5t66.5 -18.5q30 0 39 37z" />
    <glyph glyph-name="odieresis" unicode="&#xf6;" horiz-adv-x="602" 
d="M330 531q112 0 177 -59.5t65 -167.5q0 -58 -17.5 -112t-52.5 -101t-94.5 -75.5t-135.5 -28.5q-109 0 -173.5 61.5t-64.5 163.5q0 134 79.5 226.5t216.5 92.5zM174 213q0 -54 28 -86.5t76 -32.5q69 0 111 65.5t42 152.5q0 52 -27 82t-77 30q-66 0 -109.5 -61.5
t-43.5 -149.5zM200 578l24 119h126l-24 -119h-126zM401 578l24 119h126l-24 -119h-126z" />
    <glyph glyph-name="divide" unicode="&#xf7;" horiz-adv-x="574" 
d="M241 373l31 145h148l-31 -145h-148zM162 0l31 144h148l-31 -144h-148zM137 195l27 126h286l-27 -126h-286z" />
    <glyph glyph-name="oslash" unicode="&#xf8;" horiz-adv-x="602" 
d="M208 119q28 -28 70 -28t75 24.5t50 61t25 70.5t8 62q0 21 -6 40zM399 400q-24 26 -72 26q-60 0 -108 -61t-48 -157q0 -23 5 -39zM591 515l-64 -65q46 -58 46 -146q0 -135 -82.5 -226t-216.5 -91q-96 0 -153 44l-68 -69l-40 40l66 67q-45 59 -45 146q0 134 81 225t215 91
q97 0 155 -42l64 66z" />
    <glyph glyph-name="ugrave" unicode="&#xf9;" 
d="M63 221l62 297h141l-63 -306q-11 -57 -11 -65q0 -24 17.5 -39t46.5 -15q41 0 75 27t53 65q12 24 22 71l55 262h141l-108 -518h-133l15 71h-1q-77 -84 -184 -84q-68 0 -106 36t-38 101q0 17 16 97zM337 578l-110 144h144l65 -144h-99z" />
    <glyph glyph-name="uacute" unicode="&#xfa;" 
d="M63 221l62 297h141l-63 -306q-11 -57 -11 -65q0 -24 17.5 -39t46.5 -15q41 0 75 27t53 65q12 24 22 71l55 262h141l-108 -518h-133l15 71h-1q-77 -84 -184 -84q-68 0 -106 36t-38 101q0 17 16 97zM318 578l95 144h150l-149 -144h-96z" />
    <glyph glyph-name="ucircumflex" unicode="&#xfb;" 
d="M63 221l62 297h141l-63 -306q-11 -57 -11 -65q0 -24 17.5 -39t46.5 -15q41 0 75 27t53 65q12 24 22 71l55 262h141l-108 -518h-133l15 71h-1q-77 -84 -184 -84q-68 0 -106 36t-38 101q0 17 16 97zM443 578l-44 85l-87 -85h-112l141 145h131l72 -145h-101z" />
    <glyph glyph-name="udieresis" unicode="&#xfc;" 
d="M63 221l62 297h141l-63 -306q-11 -57 -11 -65q0 -24 17.5 -39t46.5 -15q41 0 75 27t53 65q12 24 22 71l55 262h141l-108 -518h-133l15 71h-1q-77 -84 -184 -84q-68 0 -106 36t-38 101q0 17 16 97zM211 578l24 119h126l-24 -119h-126zM412 578l24 119h126l-24 -119h-126z
" />
    <glyph glyph-name="yacute" unicode="&#xfd;" horiz-adv-x="538" 
d="M241 134h1l188 384h152l-325 -580q-40 -73 -80.5 -103.5t-117.5 -30.5q-37 0 -87 10l18 112q31 -7 53 -7q37 0 58 20.5t42 62.5l-91 516h142zM267 578l95 144h150l-149 -144h-96z" />
    <glyph glyph-name="thorn" unicode="&#xfe;" horiz-adv-x="605" 
d="M158 715h141l-53 -251q26 22 42 34t45 22.5t63 10.5q95 0 142 -62t47 -152q0 -134 -74 -232t-196 -98q-106 0 -152 83l-56 -260h-140zM197 213q0 -60 29 -90t71 -30q50 0 85.5 39.5t49 86.5t13.5 91q0 54 -27 85.5t-72 31.5q-38 0 -68.5 -23t-47 -58t-25 -69.5
t-8.5 -63.5z" />
    <glyph glyph-name="ydieresis" unicode="&#xff;" horiz-adv-x="538" 
d="M241 134h1l188 384h152l-325 -580q-40 -73 -80.5 -103.5t-117.5 -30.5q-37 0 -87 10l18 112q31 -7 53 -7q37 0 58 20.5t42 62.5l-91 516h142zM160 578l24 119h126l-24 -119h-126zM361 578l24 119h126l-24 -119h-126z" />
    <glyph glyph-name="Amacron" unicode="&#x100;" horiz-adv-x="704" 
d="M531 715l118 -715h-148l-23 158h-276l-88 -158h-158l413 715h162zM462 276l-39 286h-1l-163 -286h203zM610 798h-297l19 87h297z" />
    <glyph glyph-name="amacron" unicode="&#x101;" horiz-adv-x="565" 
d="M524 351l-31 -147q-22 -102 -24 -134q-3 -44 11 -70h-140q-8 26 -8 55q-59 -68 -155 -68q-72 0 -115 40.5t-43 102.5q0 160 204 174q119 8 160 25q10 25 10 46q0 58 -81 58q-82 0 -97 -67l-135 5q18 81 81.5 120.5t159.5 39.5q122 0 170.5 -51.5t32.5 -128.5zM365 245
q-19 -10 -120 -24q-89 -12 -89 -76q0 -27 20 -42.5t51 -15.5q102 0 130 123zM506 594h-317l19 87h317z" />
    <glyph glyph-name="Abreve" unicode="&#x102;" horiz-adv-x="704" 
d="M531 715l118 -715h-148l-23 158h-276l-88 -158h-158l413 715h162zM462 276l-39 286h-1l-163 -286h203zM473 853q71 0 87 67h91q-42 -144 -187 -144q-71 0 -108.5 37t-31.5 107h82q0 -34 15 -50.5t52 -16.5z" />
    <glyph glyph-name="abreve" unicode="&#x103;" horiz-adv-x="565" 
d="M524 351l-31 -147q-22 -102 -24 -134q-3 -44 11 -70h-140q-8 26 -8 55q-59 -68 -155 -68q-72 0 -115 40.5t-43 102.5q0 160 204 174q119 8 160 25q10 25 10 46q0 58 -81 58q-82 0 -97 -67l-135 5q18 81 81.5 120.5t159.5 39.5q122 0 170.5 -51.5t32.5 -128.5zM365 245
q-19 -10 -120 -24q-89 -12 -89 -76q0 -27 20 -42.5t51 -15.5q102 0 130 123zM357 654q71 0 87 67h91q-42 -144 -187 -144q-71 0 -108.5 37t-31.5 107h82q0 -34 15 -50.5t52 -16.5z" />
    <glyph glyph-name="Aogonek" unicode="&#x104;" horiz-adv-x="704" 
d="M454 -111q0 63 74 111h-27l-23 158h-276l-88 -158h-158l413 715h162l118 -715q-33 -11 -65 -33.5t-32 -48.5q0 -28 34 -28l42 3l-8 -83q-33 -7 -69 -7q-43 0 -70 24t-27 62zM462 276l-39 286h-1l-163 -286h203z" />
    <glyph glyph-name="aogonek" unicode="&#x105;" horiz-adv-x="565" 
d="M285 -111q0 63 74 111h-19q-8 26 -8 55q-59 -68 -155 -68q-72 0 -115 40.5t-43 102.5q0 160 204 174q119 8 160 25q10 25 10 46q0 58 -81 58q-82 0 -97 -67l-135 5q18 81 81.5 120.5t159.5 39.5q122 0 170.5 -51.5t32.5 -128.5l-31 -147q-22 -102 -24 -134q-3 -44 11 -70
q-33 -11 -65 -33.5t-32 -48.5q0 -28 34 -28l42 3l-8 -83q-33 -7 -69 -7q-43 0 -70 24t-27 62zM365 245q-19 -10 -120 -24q-89 -12 -89 -76q0 -27 20 -42.5t51 -15.5q102 0 130 123z" />
    <glyph glyph-name="Cacute" unicode="&#x106;" horiz-adv-x="731" 
d="M239 426q-20 -62 -20 -129q0 -80 35 -132t116 -52q61 0 108 39.5t64 104.5l152 -11q-87 -261 -330 -261q-142 0 -220 81.5t-78 230.5q0 188 109 310t275 122q122 0 198.5 -65.5t80.5 -182.5l-149 -7q-12 126 -131 126q-45 0 -83.5 -18t-63 -47t-39.5 -55.5t-24 -53.5z
M413 777l95 144h150l-149 -144h-96z" />
    <glyph glyph-name="cacute" unicode="&#x107;" horiz-adv-x="556" 
d="M35 208q0 142 83 232.5t211 90.5q96 0 156 -48t64 -136l-138 -7q-4 85 -89 85q-67 0 -107 -66t-40 -160q0 -48 23 -76t66 -28q39 0 69 26t45 71l139 -11q-33 -94 -100 -144t-160 -50q-105 0 -163.5 57t-58.5 164zM293 578l95 144h150l-149 -144h-96z" />
    <glyph glyph-name="Ccaron" unicode="&#x10c;" horiz-adv-x="731" 
d="M239 426q-20 -62 -20 -129q0 -80 35 -132t116 -52q61 0 108 39.5t64 104.5l152 -11q-87 -261 -330 -261q-142 0 -220 81.5t-78 230.5q0 188 109 310t275 122q122 0 198.5 -65.5t80.5 -182.5l-149 -7q-12 126 -131 126q-45 0 -83.5 -18t-63 -47t-39.5 -55.5t-24 -53.5z
M430 922l44 -83l87 83h112l-141 -145h-131l-72 145h101z" />
    <glyph glyph-name="ccaron" unicode="&#x10d;" horiz-adv-x="556" 
d="M35 208q0 142 83 232.5t211 90.5q96 0 156 -48t64 -136l-138 -7q-4 85 -89 85q-67 0 -107 -66t-40 -160q0 -48 23 -76t66 -28q39 0 69 26t45 71l139 -11q-33 -94 -100 -144t-160 -50q-105 0 -163.5 57t-58.5 164zM310 723l44 -83l87 83h113l-141 -145h-131l-72 145h100z
" />
    <glyph glyph-name="Dcaron" unicode="&#x10e;" horiz-adv-x="731" 
d="M397 590h-102l-98 -467h82q137 0 200 65q84 86 84 228q0 36 -6 64t-23 54.5t-51.5 41t-85.5 14.5zM288 0h-270l151 715h262q138 0 211 -76.5t73 -211.5q0 -58 -11 -113t-41 -113.5t-76.5 -102t-123.5 -71t-175 -27.5zM395 922l44 -83l87 83h112l-141 -145h-131l-72 145
h101z" />
    <glyph glyph-name="dcaron" unicode="&#x10f;" horiz-adv-x="703" 
d="M272 93q48 0 84 36t51 83t15 95q0 53 -27.5 85.5t-73.5 32.5q-48 0 -83 -37.5t-50 -85t-15 -93.5q0 -52 27 -84t72 -32zM368 0l13 61h-1q-60 -74 -157 -74q-88 0 -138.5 55.5t-50.5 154.5q0 82 29 156.5t92 126t148 51.5q109 0 151 -83h1l57 267h141l-150 -715h-135z
M808 715l-21 -100q-11 -50 -34 -78t-70 -43l-13 40q30 10 42.5 26t17.5 46h-50l23 109h105z" />
    <glyph glyph-name="Dcroat" unicode="&#x110;" horiz-adv-x="753" 
d="M32 0l64 306h-78l24 114h79l62 295h192q52 0 76 -1q139 -3 208 -82t69 -205q0 -192 -114 -315q-104 -112 -307 -112h-275zM248 306l-37 -181h67q71 0 111.5 7t75.5 32q46 33 78.5 98t32.5 154q0 97 -44 135.5t-122 38.5h-101l-36 -170h160l-24 -114h-161z" />
    <glyph glyph-name="dcroat" unicode="&#x111;" 
d="M681 563h-60l-118 -563h-135l13 61h-1q-60 -74 -157 -74q-88 0 -138.5 55.5t-50.5 154.5q0 82 29 156.5t92 126t148 51.5q109 0 151 -83h1l24 115h-115l19 87h115l14 65h141l-14 -65h61zM272 93q48 0 84 36t51 83t15 95q0 53 -27.5 85.5t-73.5 32.5q-48 0 -83 -37.5
t-50 -85t-15 -93.5q0 -52 27 -84t72 -32z" />
    <glyph glyph-name="Emacron" unicode="&#x112;" horiz-adv-x="667" 
d="M574 0h-555l149 715h538l-26 -126h-385l-33 -157h364l-25 -121h-365l-41 -185h405zM594 798h-297l19 87h297z" />
    <glyph glyph-name="emacron" unicode="&#x113;" horiz-adv-x="565" 
d="M409 307q2 59 -23.5 89.5t-72.5 30.5q-50 0 -84 -32.5t-48 -87.5h228zM30 220q0 128 80 219.5t207 91.5q103 0 163.5 -59t60.5 -166q0 -47 -9 -86h-366q-8 -60 22.5 -95t82.5 -35q69 0 109 72l134 -11q-71 -164 -252 -164q-108 0 -170 64t-62 169zM491 594h-317l19 87
h317z" />
    <glyph glyph-name="Edotaccent" unicode="&#x116;" horiz-adv-x="667" 
d="M574 0h-555l149 715h538l-26 -126h-385l-33 -157h364l-25 -121h-365l-41 -185h405zM375 777l26 123h135l-25 -123h-136z" />
    <glyph glyph-name="edotaccent" unicode="&#x117;" horiz-adv-x="565" 
d="M409 307q2 59 -23.5 89.5t-72.5 30.5q-50 0 -84 -32.5t-48 -87.5h228zM30 220q0 128 80 219.5t207 91.5q103 0 163.5 -59t60.5 -166q0 -47 -9 -86h-366q-8 -60 22.5 -95t82.5 -35q69 0 109 72l134 -11q-71 -164 -252 -164q-108 0 -170 64t-62 169zM272 578l26 123h135
l-25 -123h-136z" />
    <glyph glyph-name="Eogonek" unicode="&#x118;" horiz-adv-x="667" 
d="M379 -111q0 63 74 111h-434l149 715h538l-26 -126h-385l-33 -157h364l-25 -121h-365l-41 -185h405l-26 -126q-33 -11 -65 -33.5t-32 -48.5q0 -28 34 -28l42 3l-8 -83q-33 -7 -69 -7q-43 0 -70 24t-27 62z" />
    <glyph glyph-name="eogonek" unicode="&#x119;" horiz-adv-x="565" 
d="M162 -111q0 56 59 101q-90 12 -140.5 73.5t-50.5 156.5q0 128 80 219.5t207 91.5q103 0 163.5 -59t60.5 -166q0 -47 -9 -86h-366q-8 -60 22.5 -95t82.5 -35q69 0 109 72l134 -11q-52 -119 -157 -151q-33 -11 -65 -33.5t-32 -48.5q0 -28 34 -28l42 3l-8 -83q-33 -7 -69 -7
q-43 0 -70 24t-27 62zM409 307q2 59 -23.5 89.5t-72.5 30.5q-50 0 -84 -32.5t-48 -87.5h228z" />
    <glyph glyph-name="Ecaron" unicode="&#x11a;" horiz-adv-x="667" 
d="M574 0h-555l149 715h538l-26 -126h-385l-33 -157h364l-25 -121h-365l-41 -185h405zM406 922l44 -83l87 83h112l-141 -145h-131l-72 145h101z" />
    <glyph glyph-name="ecaron" unicode="&#x11b;" horiz-adv-x="565" 
d="M409 307q2 59 -23.5 89.5t-72.5 30.5q-50 0 -84 -32.5t-48 -87.5h228zM30 220q0 128 80 219.5t207 91.5q103 0 163.5 -59t60.5 -166q0 -47 -9 -86h-366q-8 -60 22.5 -95t82.5 -35q69 0 109 72l134 -11q-71 -164 -252 -164q-108 0 -170 64t-62 169zM304 723l44 -83l87 83
h113l-141 -145h-131l-72 145h100z" />
    <glyph glyph-name="Gbreve" unicode="&#x11e;" horiz-adv-x="769" 
d="M758 490l-148 -8q-21 122 -152 122q-109 0 -177 -83.5t-68 -227.5q0 -84 41.5 -132.5t119.5 -48.5q89 0 139 46t61 108h-172l24 118h313q-17 -88 -30 -140q-25 -103 -116 -180.5t-222 -77.5q-90 0 -155 29.5t-97.5 80t-45.5 108t-8 122.5q14 189 125.5 296t266.5 107
q128 0 208.5 -60.5t92.5 -178.5zM490 853q71 0 87 67h91q-42 -144 -187 -144q-71 0 -108.5 37t-31.5 107h82q0 -34 15 -50.5t52 -16.5z" />
    <glyph glyph-name="gbreve" unicode="&#x11f;" 
d="M178 226q0 -53 25.5 -85.5t69.5 -32.5q58 0 102 54t44 148q0 52 -27.5 84.5t-72.5 32.5q-63 0 -102 -62.5t-39 -138.5zM294 531q114 0 160 -99h1l17 86h134l-110 -518q-23 -105 -86.5 -154t-182.5 -49q-60 0 -106.5 15.5t-79 56.5t-34.5 103l145 -11q0 -32 22.5 -49
t61.5 -17q48 0 74.5 24t34.5 50q1 4 12.5 46t14.5 54h-3q-62 -66 -144 -66q-85 0 -135.5 56t-50.5 155q0 137 72.5 227t182.5 90zM375 654q71 0 87 67h91q-42 -144 -187 -144q-71 0 -108.5 37t-31.5 107h82q0 -34 15 -50.5t52 -16.5z" />
    <glyph glyph-name="Gcommaaccent" unicode="&#x122;" horiz-adv-x="769" 
d="M758 490l-148 -8q-21 122 -152 122q-109 0 -177 -83.5t-68 -227.5q0 -84 41.5 -132.5t119.5 -48.5q89 0 139 46t61 108h-172l24 118h313q-17 -88 -30 -140q-25 -103 -116 -180.5t-222 -77.5q-90 0 -155 29.5t-97.5 80t-45.5 108t-8 122.5q14 189 125.5 296t266.5 107
q128 0 208.5 -60.5t92.5 -178.5zM401 -61l-17 -81q-9 -40 -39.5 -64.5t-58.5 -32.5l-14 36q49 15 58 53h-53l18 89h106z" />
    <glyph glyph-name="gcommaaccent" unicode="&#x123;" 
d="M178 226q0 -53 25.5 -85.5t69.5 -32.5q58 0 102 54t44 148q0 52 -27.5 84.5t-72.5 32.5q-63 0 -102 -62.5t-39 -138.5zM294 531q114 0 160 -99h1l17 86h134l-110 -518q-23 -105 -86.5 -154t-182.5 -49q-60 0 -106.5 15.5t-79 56.5t-34.5 103l145 -11q0 -32 22.5 -49
t61.5 -17q48 0 74.5 24t34.5 50q1 4 12.5 46t14.5 54h-3q-62 -66 -144 -66q-85 0 -135.5 56t-50.5 155q0 137 72.5 227t182.5 90zM306 578l17 81q9 40 39.5 64.5t58.5 32.5l14 -36q-49 -15 -58 -53h53l-18 -89h-106z" />
    <glyph glyph-name="Imacron" unicode="&#x12a;" horiz-adv-x="287" 
d="M168 0h-152l150 715h153zM399 798h-297l19 87h297z" />
    <glyph glyph-name="imacron" unicode="&#x12b;" horiz-adv-x="269" 
d="M14 0l109 518h142l-109 -518h-142zM360 594h-317l19 87h317z" />
    <glyph glyph-name="Iogonek" unicode="&#x12e;" horiz-adv-x="287" 
d="M-27 -111q0 63 74 111h-31l150 715h153l-151 -715q-33 -11 -65 -33.5t-32 -48.5q0 -28 34 -28l42 3l-8 -83q-33 -7 -69 -7q-43 0 -70 24t-27 62z" />
    <glyph glyph-name="iogonek" unicode="&#x12f;" horiz-adv-x="269" 
d="M14 0l109 518h142l-109 -518q-33 -11 -65 -33.5t-32 -48.5q0 -28 34 -28l42 3l-8 -83q-33 -7 -69 -7q-43 0 -70 24t-27 62q0 62 74 111h-21zM139 593l26 122h142l-27 -122h-141z" />
    <glyph glyph-name="Idotaccent" unicode="&#x130;" horiz-adv-x="287" 
d="M168 0h-152l150 715h153zM188 777l26 123h135l-25 -123h-136z" />
    <glyph glyph-name="dotlessi" unicode="&#x131;" horiz-adv-x="269" 
d="M14 0l109 518h142l-109 -518h-142z" />
    <glyph glyph-name="Kcommaaccent" unicode="&#x136;" horiz-adv-x="722" 
d="M217 222l-46 -222h-153l149 715h152l-63 -302h1l328 302h202l-332 -288l228 -427h-172l-170 331zM380 -61l-17 -81q-9 -40 -39.5 -64.5t-58.5 -32.5l-14 36q49 15 58 53h-53l18 89h106z" />
    <glyph glyph-name="kcommaaccent" unicode="&#x137;" horiz-adv-x="556" 
d="M498 0h-148l-78 235l-85 -73l-33 -162h-141l150 715h141l-80 -382h1l193 185h178l-220 -193zM289 -61l-17 -81q-9 -40 -39.5 -64.5t-58.5 -32.5l-14 36q49 15 58 53h-53l18 89h106z" />
    <glyph glyph-name="Lacute" unicode="&#x139;" horiz-adv-x="593" 
d="M528 0h-507l150 715h152l-123 -589h355zM209 777l95 144h150l-149 -144h-96z" />
    <glyph glyph-name="lacute" unicode="&#x13a;" horiz-adv-x="269" 
d="M155 0h-141l151 715h141zM189 777l95 144h150l-149 -144h-96z" />
    <glyph glyph-name="Lcommaaccent" unicode="&#x13b;" horiz-adv-x="593" 
d="M528 0h-507l150 715h152l-123 -589h355zM329 -61l-17 -81q-9 -40 -39.5 -64.5t-58.5 -32.5l-14 36q49 15 58 53h-53l18 89h106z" />
    <glyph glyph-name="lcommaaccent" unicode="&#x13c;" horiz-adv-x="269" 
d="M155 0h-141l151 715h141zM127 -61l-17 -81q-9 -40 -39.5 -64.5t-58.5 -32.5l-14 36q49 15 58 53h-53l18 89h106z" />
    <glyph glyph-name="Lcaron" unicode="&#x13d;" horiz-adv-x="593" 
d="M528 0h-507l150 715h152l-123 -589h355zM515 765l-21 -100q-11 -50 -34 -78t-70 -43l-13 40q30 10 42.5 26t17.5 46h-50l23 109h105z" />
    <glyph glyph-name="lcaron" unicode="&#x13e;" horiz-adv-x="356" 
d="M155 0h-141l151 715h141zM461 715l-21 -100q-11 -50 -34 -78t-70 -43l-13 40q30 10 42.5 26t17.5 46h-50l23 109h105z" />
    <glyph glyph-name="Lslash" unicode="&#x141;" horiz-adv-x="593" 
d="M323 715l-64 -309l186 119l-21 -99l-186 -118l-38 -182h355l-27 -126h-507l41 197l-89 -57l21 98l89 56l88 421h152z" />
    <glyph glyph-name="lslash" unicode="&#x142;" horiz-adv-x="269" 
d="M248 436l-93 -436h-140l72 340l-80 -49l20 94l80 49l58 281h141l-38 -185l79 48l-20 -95z" />
    <glyph glyph-name="Nacute" unicode="&#x143;" horiz-adv-x="731" 
d="M265 491h-1l-102 -491h-142l150 715h150l194 -494h1l101 494h141l-151 -715h-147zM413 777l95 144h150l-149 -144h-96z" />
    <glyph glyph-name="nacute" unicode="&#x144;" 
d="M215 280l-59 -280h-141l108 518h134l-14 -70h1q80 83 182 83q69 0 106.5 -36t37.5 -101q0 -23 -15 -96l-63 -298h-141l63 298q4 20 5.5 30.5t3.5 28t-1 27.5t-9.5 20.5t-19.5 15.5t-32 5q-44 0 -87.5 -38.5t-58.5 -106.5zM324 578l95 144h150l-149 -144h-96z" />
    <glyph glyph-name="Ncommaaccent" unicode="&#x145;" horiz-adv-x="731" 
d="M265 491h-1l-102 -491h-142l150 715h150l194 -494h1l101 494h141l-151 -715h-147zM380 -61l-17 -81q-9 -40 -39.5 -64.5t-58.5 -32.5l-14 36q49 15 58 53h-53l18 89h106z" />
    <glyph glyph-name="ncommaaccent" unicode="&#x146;" 
d="M215 280l-59 -280h-141l108 518h134l-14 -70h1q80 83 182 83q69 0 106.5 -36t37.5 -101q0 -23 -15 -96l-63 -298h-141l63 298q4 20 5.5 30.5t3.5 28t-1 27.5t-9.5 20.5t-19.5 15.5t-32 5q-44 0 -87.5 -38.5t-58.5 -106.5zM298 -61l-17 -81q-9 -40 -39.5 -64.5
t-58.5 -32.5l-14 36q49 15 58 53h-53l18 89h106z" />
    <glyph glyph-name="Ncaron" unicode="&#x147;" horiz-adv-x="731" 
d="M265 491h-1l-102 -491h-142l150 715h150l194 -494h1l101 494h141l-151 -715h-147zM431 922l44 -83l87 83h112l-141 -145h-131l-72 145h101z" />
    <glyph glyph-name="ncaron" unicode="&#x148;" 
d="M215 280l-59 -280h-141l108 518h134l-14 -70h1q80 83 182 83q69 0 106.5 -36t37.5 -101q0 -23 -15 -96l-63 -298h-141l63 298q4 20 5.5 30.5t3.5 28t-1 27.5t-9.5 20.5t-19.5 15.5t-32 5q-44 0 -87.5 -38.5t-58.5 -106.5zM340 723l44 -83l87 83h113l-141 -145h-131
l-72 145h100z" />
    <glyph glyph-name="Omacron" unicode="&#x14c;" horiz-adv-x="778" 
d="M443 604q-62 0 -110.5 -31t-76 -80t-41.5 -101t-14 -102q0 -26 7 -54t24 -58t52 -49t83 -19q100 0 169 91t69 219q0 83 -42.5 133.5t-119.5 50.5zM755 426q0 -190 -113.5 -315.5t-283.5 -125.5q-80 0 -141 27t-95.5 72.5t-51.5 97.5t-17 108q0 120 47.5 219t138.5 159.5
t209 60.5q62 0 115 -17t97 -52t69.5 -95t25.5 -139zM620 798h-297l19 87h297z" />
    <glyph glyph-name="omacron" unicode="&#x14d;" horiz-adv-x="602" 
d="M330 531q112 0 177 -59.5t65 -167.5q0 -58 -17.5 -112t-52.5 -101t-94.5 -75.5t-135.5 -28.5q-109 0 -173.5 61.5t-64.5 163.5q0 134 79.5 226.5t216.5 92.5zM174 213q0 -54 28 -86.5t76 -32.5q69 0 111 65.5t42 152.5q0 52 -27 82t-77 30q-66 0 -109.5 -61.5
t-43.5 -149.5zM525 594h-317l19 87h317z" />
    <glyph glyph-name="Ohungarumlaut" unicode="&#x150;" horiz-adv-x="778" 
d="M443 604q-62 0 -110.5 -31t-76 -80t-41.5 -101t-14 -102q0 -26 7 -54t24 -58t52 -49t83 -19q100 0 169 91t69 219q0 83 -42.5 133.5t-119.5 50.5zM755 426q0 -190 -113.5 -315.5t-283.5 -125.5q-80 0 -141 27t-95.5 72.5t-51.5 97.5t-17 108q0 120 47.5 219t138.5 159.5
t209 60.5q62 0 115 -17t97 -52t69.5 -95t25.5 -139zM522 777l94 143h146l-150 -143h-90zM336 777l92 143h149l-152 -143h-89z" />
    <glyph glyph-name="ohungarumlaut" unicode="&#x151;" horiz-adv-x="602" 
d="M330 531q112 0 177 -59.5t65 -167.5q0 -58 -17.5 -112t-52.5 -101t-94.5 -75.5t-135.5 -28.5q-109 0 -173.5 61.5t-64.5 163.5q0 134 79.5 226.5t216.5 92.5zM174 213q0 -54 28 -86.5t76 -32.5q69 0 111 65.5t42 152.5q0 52 -27 82t-77 30q-66 0 -109.5 -61.5
t-43.5 -149.5zM395 578l94 143h146l-150 -143h-90zM219 578l92 143h149l-152 -143h-89z" />
    <glyph glyph-name="OE" unicode="&#x152;" horiz-adv-x="1055" 
d="M195 276q0 -75 39 -120.5t109 -45.5q68 0 112 40t69 125q35 120 35 197q0 67 -36.5 99.5t-99.5 32.5q-103 0 -165.5 -96.5t-62.5 -231.5zM51 284q0 118 44 218.5t131 163.5t200 63q120 0 176 -87l15 73h487l-27 -126h-343l-33 -156h323l-26 -121h-323l-39 -186h363
l-26 -126h-501l12 58q-62 -72 -169 -72q-112 0 -188 77.5t-76 220.5z" />
    <glyph glyph-name="oe" unicode="&#x153;" horiz-adv-x="935" 
d="M696 531q100 0 160.5 -59t60.5 -166q0 -47 -9 -86h-366q-8 -60 22.5 -95t82.5 -35q69 0 109 72l134 -11q-71 -164 -252 -164q-121 0 -179 81q-68 -81 -193 -81q-114 0 -172.5 66.5t-58.5 166.5q0 129 83 220t217 91q121 0 178 -79q33 37 82.5 58t100.5 21zM275 94
q50 0 85.5 36.5t50 85t14.5 101.5q0 48 -26 77.5t-72 29.5q-65 0 -108.5 -63.5t-43.5 -158.5q0 -47 27 -77.5t73 -30.5zM785 307q2 59 -23.5 89.5t-72.5 30.5q-50 0 -84 -32.5t-48 -87.5h228z" />
    <glyph glyph-name="Racute" unicode="&#x154;" horiz-adv-x="722" 
d="M256 397h145q93 0 130 34.5t37 83.5q0 38 -27 58.5t-75 20.5h-169zM586 253q6 -17 31 -115t48 -138h-163q-13 28 -22.5 64t-18.5 84t-15 73q-17 66 -106 66h-108l-60 -287h-152l150 715h332q111 0 164.5 -56t53.5 -132q0 -78 -52.5 -134.5t-142.5 -69.5v-1q43 -21 61 -69
zM379 777l95 144h150l-149 -144h-96z" />
    <glyph glyph-name="racute" unicode="&#x155;" horiz-adv-x="389" 
d="M412 395q-26 8 -50 8q-64 0 -105 -47t-58 -130l-48 -226h-141l108 518h133l-21 -98h1q30 54 74 82.5t94 28.5q26 0 55 -9zM231 578l95 144h150l-149 -144h-96z" />
    <glyph glyph-name="Rcommaaccent" unicode="&#x156;" horiz-adv-x="722" 
d="M256 397h145q93 0 130 34.5t37 83.5q0 38 -27 58.5t-75 20.5h-169zM586 253q6 -17 31 -115t48 -138h-163q-13 28 -22.5 64t-18.5 84t-15 73q-17 66 -106 66h-108l-60 -287h-152l150 715h332q111 0 164.5 -56t53.5 -132q0 -78 -52.5 -134.5t-142.5 -69.5v-1q43 -21 61 -69
zM381 -61l-17 -81q-9 -40 -39.5 -64.5t-58.5 -32.5l-14 36q49 15 58 53h-53l18 89h106z" />
    <glyph glyph-name="rcommaaccent" unicode="&#x157;" horiz-adv-x="389" 
d="M412 395q-26 8 -50 8q-64 0 -105 -47t-58 -130l-48 -226h-141l108 518h133l-21 -98h1q30 54 74 82.5t94 28.5q26 0 55 -9zM120 -61l-17 -81q-9 -40 -39.5 -64.5t-58.5 -32.5l-14 36q49 15 58 53h-53l18 89h106z" />
    <glyph glyph-name="Rcaron" unicode="&#x158;" horiz-adv-x="722" 
d="M256 397h145q93 0 130 34.5t37 83.5q0 38 -27 58.5t-75 20.5h-169zM586 253q6 -17 31 -115t48 -138h-163q-13 28 -22.5 64t-18.5 84t-15 73q-17 66 -106 66h-108l-60 -287h-152l150 715h332q111 0 164.5 -56t53.5 -132q0 -78 -52.5 -134.5t-142.5 -69.5v-1q43 -21 61 -69
zM400 922l44 -83l87 83h112l-141 -145h-131l-72 145h101z" />
    <glyph glyph-name="rcaron" unicode="&#x159;" horiz-adv-x="389" 
d="M412 395q-26 8 -50 8q-64 0 -105 -47t-58 -130l-48 -226h-141l108 518h133l-21 -98h1q30 54 74 82.5t94 28.5q26 0 55 -9zM252 723l44 -83l87 83h113l-141 -145h-131l-72 145h100z" />
    <glyph glyph-name="Sacute" unicode="&#x15a;" horiz-adv-x="658" 
d="M179 240q-1 -78 40 -105t108 -27q60 0 98 25.5t38 68.5q0 44 -61 71q-23 10 -64.5 25.5t-67.5 25.5t-59 29t-52 39t-32.5 51.5t-13.5 70.5q0 56 25 99t66 67.5t87 36.5t94 12q121 0 193.5 -57.5t76.5 -165.5l-145 -5q-1 54 -35.5 81.5t-94.5 27.5q-54 0 -86.5 -21.5
t-32.5 -60.5q0 -42 64 -69q22 -9 60 -23.5t60 -23.5t52 -23.5t47 -29t34 -35t24.5 -47t7.5 -59.5q0 -98 -75 -165t-212 -67q-289 0 -289 248zM350 777l95 144h150l-149 -144h-96z" />
    <glyph glyph-name="sacute" unicode="&#x15b;" horiz-adv-x="538" 
d="M250 343q17 -7 71 -24.5t61 -20.5q62 -24 83 -57t21 -75q0 -31 -12 -60t-37.5 -57t-75 -45t-116.5 -17q-216 0 -239 169l134 11q11 -82 110 -82q44 0 69 17t25 42q0 31 -38 45q-18 7 -67.5 24.5t-70.5 26.5q-48 20 -72.5 48t-24.5 77q0 70 59 118t173 48q203 0 215 -151
l-131 -11q-3 31 -28.5 48.5t-65.5 17.5q-85 0 -85 -50q0 -26 42 -42zM258 578l95 144h150l-149 -144h-96z" />
    <glyph glyph-name="Scedilla" unicode="&#x15e;" horiz-adv-x="658" 
d="M179 240q-1 -78 40 -105t108 -27q60 0 98 25.5t38 68.5q0 44 -61 71q-23 10 -64.5 25.5t-67.5 25.5t-59 29t-52 39t-32.5 51.5t-13.5 70.5q0 56 25 99t66 67.5t87 36.5t94 12q121 0 193.5 -57.5t76.5 -165.5l-145 -5q-1 54 -35.5 81.5t-94.5 27.5q-54 0 -86.5 -21.5
t-32.5 -60.5q0 -42 64 -69q22 -9 60 -23.5t60 -23.5t52 -23.5t47 -29t34 -35t24.5 -47t7.5 -59.5q0 -97 -73 -163.5t-207 -68.5l-13 -18h30q41 0 64.5 -20t23.5 -53q0 -48 -47 -77.5t-121 -29.5q-54 0 -85 11l22 53q14 -6 59 -6q42 0 62 12t20 30q0 29 -47 31l-59 2l38 67
q-243 19 -243 246z" />
    <glyph glyph-name="scedilla" unicode="&#x15f;" horiz-adv-x="538" 
d="M250 343q17 -7 71 -24.5t61 -20.5q62 -24 83 -57t21 -75q0 -31 -12 -60t-37.5 -57t-75 -45t-116.5 -17h-5l-13 -19h30q41 0 64.5 -20t23.5 -53q0 -48 -47 -77.5t-121 -29.5q-54 0 -85 11l22 53q14 -6 59 -6q42 0 62 12t20 30q0 29 -47 31l-59 2l39 70q-162 20 -182 165
l134 11q11 -82 110 -82q44 0 69 17t25 42q0 31 -38 45q-18 7 -67.5 24.5t-70.5 26.5q-48 20 -72.5 48t-24.5 77q0 70 59 118t173 48q203 0 215 -151l-131 -11q-3 31 -28.5 48.5t-65.5 17.5q-85 0 -85 -50q0 -26 42 -42z" />
    <glyph glyph-name="Scaron" unicode="&#x160;" horiz-adv-x="658" 
d="M381 922l44 -83l87 83h112l-141 -145h-131l-72 145h101zM179 240q-1 -78 40 -105t108 -27q60 0 98 25.5t38 68.5q0 44 -61 71q-23 10 -64.5 25.5t-67.5 25.5t-59 29t-52 39t-32.5 51.5t-13.5 70.5q0 56 25 99t66 67.5t87 36.5t94 12q121 0 193.5 -57.5t76.5 -165.5
l-145 -5q-1 54 -35.5 81.5t-94.5 27.5q-54 0 -86.5 -21.5t-32.5 -60.5q0 -42 64 -69q22 -9 60 -23.5t60 -23.5t52 -23.5t47 -29t34 -35t24.5 -47t7.5 -59.5q0 -98 -75 -165t-212 -67q-289 0 -289 248z" />
    <glyph glyph-name="scaron" unicode="&#x161;" horiz-adv-x="538" 
d="M250 343q17 -7 71 -24.5t61 -20.5q62 -24 83 -57t21 -75q0 -31 -12 -60t-37.5 -57t-75 -45t-116.5 -17q-216 0 -239 169l134 11q11 -82 110 -82q44 0 69 17t25 42q0 31 -38 45q-18 7 -67.5 24.5t-70.5 26.5q-48 20 -72.5 48t-24.5 77q0 70 59 118t173 48q203 0 215 -151
l-131 -11q-3 31 -28.5 48.5t-65.5 17.5q-85 0 -85 -50q0 -26 42 -42zM283 723l44 -83l87 83h113l-141 -145h-131l-72 145h100z" />
    <glyph glyph-name="Tcedilla" unicode="&#x162;" 
d="M457 589l-123 -589h-46l-23 -32h30q41 0 64.5 -20t23.5 -53q0 -48 -47 -77.5t-121 -29.5q-54 0 -85 11l22 53q14 -6 59 -6q42 0 62 12t20 30q0 29 -47 31l-59 2l45 79h-51l123 589h-217l27 126h580l-27 -126h-210z" />
    <glyph glyph-name="tcedilla" unicode="&#x163;" horiz-adv-x="351" 
d="M259 418l-56 -270q-9 -49 47 -49q18 0 48 3l-23 -107q-39 -6 -81 -6q-5 0 -13 0.5t-12 0.5l-16 -22h30q41 0 64.5 -20t23.5 -53q0 -48 -47 -77.5t-121 -29.5q-54 0 -85 11l22 53q14 -6 59 -6q42 0 62 12t20 30q0 29 -47 31l-59 2l45 79q-65 24 -64 96q0 23 12 80l51 242
h-81l22 100h80l24 120l152 48l-35 -168h94l-22 -100h-94z" />
    <glyph glyph-name="Tcaron" unicode="&#x164;" 
d="M457 589l-123 -589h-153l123 589h-217l27 126h580l-27 -126h-210zM381 922l44 -83l87 83h112l-141 -145h-131l-72 145h101z" />
    <glyph glyph-name="tcaron" unicode="&#x165;" horiz-adv-x="361" 
d="M259 418l-56 -270q-9 -49 47 -49q18 0 48 3l-23 -107q-39 -6 -81 -6q-65 0 -102 26t-36 81q0 23 12 80l51 242h-81l22 100h80l24 120l152 48l-35 -168h94l-22 -100h-94zM489 785l-21 -100q-11 -50 -34 -78t-70 -43l-13 40q30 10 42.5 26t17.5 46h-50l23 109h105z" />
    <glyph glyph-name="Umacron" unicode="&#x16a;" horiz-adv-x="731" 
d="M334 -14q-125 0 -197.5 58.5t-72.5 156.5q0 32 18 119l83 395h152l-84 -401q-18 -86 -18 -105q0 -39 31.5 -67.5t95.5 -28.5q58 0 104 33t57 87l102 482h153l-98 -464q-57 -265 -326 -265zM627 798h-297l19 87h297z" />
    <glyph glyph-name="umacron" unicode="&#x16b;" 
d="M63 221l62 297h141l-63 -306q-11 -57 -11 -65q0 -24 17.5 -39t46.5 -15q41 0 75 27t53 65q12 24 22 71l55 262h141l-108 -518h-133l15 71h-1q-77 -84 -184 -84q-68 0 -106 36t-38 101q0 17 16 97zM532 594h-317l19 87h317z" />
    <glyph glyph-name="Uring" unicode="&#x16e;" horiz-adv-x="731" 
d="M334 -14q-125 0 -197.5 58.5t-72.5 156.5q0 32 18 119l83 395h152l-84 -401q-18 -86 -18 -105q0 -39 31.5 -67.5t95.5 -28.5q58 0 104 33t57 87l102 482h153l-98 -464q-57 -265 -326 -265zM367 814q0 54 38 92.5t98 38.5q38 0 63.5 -24t25.5 -60q0 -57 -39.5 -94
t-96.5 -37q-37 0 -63 24.5t-26 59.5zM492 892q-26 0 -45.5 -20t-19.5 -48q0 -18 10.5 -29.5t29.5 -11.5q25 0 45.5 20t20.5 47q0 19 -11 30.5t-30 11.5z" />
    <glyph glyph-name="uring" unicode="&#x16f;" 
d="M63 221l62 297h141l-63 -306q-11 -57 -11 -65q0 -24 17.5 -39t46.5 -15q41 0 75 27t53 65q12 24 22 71l55 262h141l-108 -518h-133l15 71h-1q-77 -84 -184 -84q-68 0 -106 36t-38 101q0 17 16 97zM271 628q0 54 38 93t99 39q38 0 64 -24t26 -61q0 -58 -39.5 -95
t-97.5 -37q-38 0 -64 24.5t-26 60.5zM397 707q-26 0 -46 -20.5t-20 -48.5q0 -18 11 -30t30 -12q25 0 46 20.5t21 47.5q0 19 -11.5 31t-30.5 12z" />
    <glyph glyph-name="Uhungarumlaut" unicode="&#x170;" horiz-adv-x="731" 
d="M334 -14q-125 0 -197.5 58.5t-72.5 156.5q0 32 18 119l83 395h152l-84 -401q-18 -86 -18 -105q0 -39 31.5 -67.5t95.5 -28.5q58 0 104 33t57 87l102 482h153l-98 -464q-57 -265 -326 -265zM512 777l94 143h146l-150 -143h-90zM326 777l92 143h149l-152 -143h-89z" />
    <glyph glyph-name="uhungarumlaut" unicode="&#x171;" 
d="M63 221l62 297h141l-63 -306q-11 -57 -11 -65q0 -24 17.5 -39t46.5 -15q41 0 75 27t53 65q12 24 22 71l55 262h141l-108 -518h-133l15 71h-1q-77 -84 -184 -84q-68 0 -106 36t-38 101q0 17 16 97zM411 578l94 143h146l-150 -143h-90zM235 578l92 143h149l-152 -143h-89z
" />
    <glyph glyph-name="Uogonek" unicode="&#x172;" horiz-adv-x="731" 
d="M251 -111q0 54 55 98q-112 7 -177 64.5t-65 149.5q0 32 18 119l83 395h152l-84 -401q-18 -86 -18 -105q0 -39 31.5 -67.5t95.5 -28.5q58 0 104 33t57 87l102 482h153l-98 -464q-44 -204 -214 -251q-33 -11 -65 -33.5t-32 -48.5q0 -28 34 -28l42 3l-8 -83q-33 -7 -69 -7
q-43 0 -70 24t-27 62z" />
    <glyph glyph-name="uogonek" unicode="&#x173;" 
d="M299 -111q0 63 74 111h-12l15 71h-1q-77 -84 -184 -84q-68 0 -106 36t-38 101q0 17 16 97l62 297h141l-63 -306q-11 -57 -11 -65q0 -24 17.5 -39t46.5 -15q41 0 75 27t53 65q12 24 22 71l55 262h141l-108 -518q-33 -11 -65 -33.5t-32 -48.5q0 -28 34 -28l42 3l-8 -83
q-33 -7 -69 -7q-43 0 -70 24t-27 62z" />
    <glyph glyph-name="Ydieresis" unicode="&#x178;" horiz-adv-x="658" 
d="M265 798l24 119h126l-24 -119h-126zM466 798l24 119h126l-24 -119h-126zM366 409l216 306h178l-338 -448l-55 -267h-153l58 278l-184 437h158z" />
    <glyph glyph-name="Zacute" unicode="&#x179;" horiz-adv-x="629" 
d="M201 124l75 2h318l-25 -126h-578l25 121l451 470l-78 -2h-278l27 126h540l-24 -119zM348 777l95 144h150l-149 -144h-96z" />
    <glyph glyph-name="zacute" unicode="&#x17a;" horiz-adv-x="500" 
d="M429 0h-446l21 100l312 310l-69 -1h-179l23 109h420l-20 -94l-317 -315l65 1h214zM238 578l95 144h150l-149 -144h-96z" />
    <glyph glyph-name="Zdotaccent" unicode="&#x17b;" horiz-adv-x="629" 
d="M201 124l75 2h318l-25 -126h-578l25 121l451 470l-78 -2h-278l27 126h540l-24 -119zM342 777l26 123h135l-25 -123h-136z" />
    <glyph glyph-name="zdotaccent" unicode="&#x17c;" horiz-adv-x="500" 
d="M429 0h-446l21 100l312 310l-69 -1h-179l23 109h420l-20 -94l-317 -315l65 1h214zM233 578l26 123h135l-25 -123h-136z" />
    <glyph glyph-name="Zcaron" unicode="&#x17d;" horiz-adv-x="629" 
d="M385 922l44 -83l87 83h112l-141 -145h-131l-72 145h101zM201 124l75 2h318l-25 -126h-578l25 121l451 470l-78 -2h-278l27 126h540l-24 -119z" />
    <glyph glyph-name="zcaron" unicode="&#x17e;" horiz-adv-x="500" 
d="M429 0h-446l21 100l312 310l-69 -1h-179l23 109h420l-20 -94l-317 -315l65 1h214zM271 723l44 -83l87 83h113l-141 -145h-131l-72 145h100z" />
    <glyph glyph-name="florin" unicode="&#x192;" horiz-adv-x="556" 
d="M-20 -178l27 106q36 -6 59 -6q50 0 58 39l90 415h-97l23 99h97l34 137q15 60 62 88.5t115 28.5q43 0 106 -14l-28 -106q-35 8 -59 8q-33 0 -47.5 -16t-24.5 -55l-18 -71h103l-22 -99h-103l-90 -418q-17 -83 -63.5 -115t-118.5 -32q-53 0 -103 11z" />
    <glyph glyph-name="Scommaaccent" unicode="&#x218;" horiz-adv-x="658" 
d="M179 240q-1 -78 40 -105t108 -27q60 0 98 25.5t38 68.5q0 44 -61 71q-23 10 -64.5 25.5t-67.5 25.5t-59 29t-52 39t-32.5 51.5t-13.5 70.5q0 56 25 99t66 67.5t87 36.5t94 12q121 0 193.5 -57.5t76.5 -165.5l-145 -5q-1 54 -35.5 81.5t-94.5 27.5q-54 0 -86.5 -21.5
t-32.5 -60.5q0 -42 64 -69q22 -9 60 -23.5t60 -23.5t52 -23.5t47 -29t34 -35t24.5 -47t7.5 -59.5q0 -98 -75 -165t-212 -67q-289 0 -289 248zM372 -61l-17 -81q-9 -40 -39.5 -64.5t-58.5 -32.5l-14 36q49 15 58 53h-53l18 89h106z" />
    <glyph glyph-name="scommaaccent" unicode="&#x219;" horiz-adv-x="538" 
d="M250 343q17 -7 71 -24.5t61 -20.5q62 -24 83 -57t21 -75q0 -31 -12 -60t-37.5 -57t-75 -45t-116.5 -17q-216 0 -239 169l134 11q11 -82 110 -82q44 0 69 17t25 42q0 31 -38 45q-18 7 -67.5 24.5t-70.5 26.5q-48 20 -72.5 48t-24.5 77q0 70 59 118t173 48q203 0 215 -151
l-131 -11q-3 31 -28.5 48.5t-65.5 17.5q-85 0 -85 -50q0 -26 42 -42zM272 -61l-17 -81q-9 -40 -39.5 -64.5t-58.5 -32.5l-14 36q49 15 58 53h-53l18 89h106z" />
    <glyph glyph-name="Tcommaaccent" unicode="&#x21a;" 
d="M457 589l-123 -589h-153l123 589h-217l27 126h580l-27 -126h-210zM301 -61l-17 -81q-9 -40 -39.5 -64.5t-58.5 -32.5l-14 36q49 15 58 53h-53l18 89h106z" />
    <glyph glyph-name="tcommaaccent" unicode="&#x21b;" horiz-adv-x="351" 
d="M259 418l-56 -270q-9 -49 47 -49q18 0 48 3l-23 -107q-39 -6 -81 -6q-65 0 -102 26t-36 81q0 23 12 80l51 242h-81l22 100h80l24 120l152 48l-35 -168h94l-22 -100h-94zM188 -61l-17 -81q-9 -40 -39.5 -64.5t-58.5 -32.5l-14 36q49 15 58 53h-53l18 89h106z" />
    <glyph glyph-name="circumflex" unicode="&#x2c6;" horiz-adv-x="357" 
d="M331 578l-44 85l-87 -85h-112l141 145h131l72 -145h-101z" />
    <glyph glyph-name="caron" unicode="&#x2c7;" horiz-adv-x="382" 
d="M215 723l44 -83l87 83h113l-141 -145h-131l-72 145h100z" />
    <glyph glyph-name="breve" unicode="&#x2d8;" horiz-adv-x="351" 
d="M257 654q71 0 87 67h91q-42 -144 -187 -144q-71 0 -108.5 37t-31.5 107h82q0 -34 15 -50.5t52 -16.5z" />
    <glyph glyph-name="dotaccent" unicode="&#x2d9;" horiz-adv-x="296" 
d="M139 578l26 123h135l-25 -123h-136z" />
    <glyph glyph-name="ring" unicode="&#x2da;" horiz-adv-x="296" 
d="M108 628q0 54 38 93t99 39q38 0 64 -24t26 -61q0 -58 -39.5 -95t-97.5 -37q-38 0 -64 24.5t-26 60.5zM234 707q-26 0 -46 -20.5t-20 -48.5q0 -18 11 -30t30 -12q25 0 46 20.5t21 47.5q0 19 -11.5 31t-30.5 12z" />
    <glyph glyph-name="ogonek" unicode="&#x2db;" horiz-adv-x="296" 
d="M22 -111q0 93 166 156l29 -45q-33 -11 -65 -33.5t-32 -48.5q0 -28 34 -28l42 3l-8 -83q-33 -7 -69 -7q-43 0 -70 24t-27 62z" />
    <glyph glyph-name="tilde" unicode="&#x2dc;" horiz-adv-x="406" 
d="M398 702h64q-24 -116 -105 -116q-23 0 -76.5 18.5t-65.5 18.5q-31 0 -43 -41h-61q14 59 39.5 89.5t71.5 30.5q19 0 70.5 -18.5t66.5 -18.5q30 0 39 37z" />
    <glyph glyph-name="hungarumlaut" unicode="&#x2dd;" horiz-adv-x="351" 
d="M231 578l94 143h146l-150 -143h-90zM55 578l92 143h149l-152 -143h-89z" />
    <glyph glyph-name="Delta" unicode="&#x394;" horiz-adv-x="783" 
d="M292 228l-36 -99h270l-36 99l-64 180l-35 108l-36 -109zM713 0h-643l261 715h122z" />
    <glyph glyph-name="Delta" unicode="&#x2206;" horiz-adv-x="783" 
d="M292 228l-36 -99h270l-36 99l-64 180l-35 108l-36 -109zM713 0h-643l261 715h122z" />
    <glyph glyph-name="Omega" unicode="&#x3a9;" horiz-adv-x="717" 
d="M358 600q-65 0 -103 -50t-38 -144q0 -72 31 -125t92 -67v-214h-204l-21 122h109v26q-60 36 -102 105t-42 159q0 141 78 227.5t200 86.5q123 0 201 -86.5t78 -227.5q0 -90 -42.5 -159t-103.5 -105v-26h110l-21 -122h-204v214q61 14 92 67t31 125q0 95 -38 144.5t-103 49.5
z" />
    <glyph glyph-name="Omega" unicode="&#x2126;" horiz-adv-x="717" 
d="M358 600q-65 0 -103 -50t-38 -144q0 -72 31 -125t92 -67v-214h-204l-21 122h109v26q-60 36 -102 105t-42 159q0 141 78 227.5t200 86.5q123 0 201 -86.5t78 -227.5q0 -90 -42.5 -159t-103.5 -105v-26h110l-21 -122h-204v214q61 14 92 67t31 125q0 95 -38 144.5t-103 49.5
z" />
    <glyph glyph-name="pi" unicode="&#x3c0;" horiz-adv-x="728" 
d="M80 393v125h568v-125h-79v-393h-132v393h-144v-393h-132v393h-81z" />
    <glyph glyph-name="endash" unicode="&#x2013;" horiz-adv-x="528" 
d="M513 210h-528l13 112h528z" />
    <glyph glyph-name="emdash" unicode="&#x2014;" horiz-adv-x="1000" 
d="M986 210h-1000l13 112h1000z" />
    <glyph glyph-name="quoteleft" unicode="&#x2018;" horiz-adv-x="278" 
d="M274 558l-30 -145h-150l27 133q17 85 61.5 129t124.5 44l-14 -67q-42 -2 -60.5 -24.5t-27.5 -69.5h69z" />
    <glyph glyph-name="quoteright" unicode="&#x2019;" horiz-adv-x="278" 
d="M133 570l30 145h150l-27 -133q-17 -85 -61.5 -129t-124.5 -44l14 67q42 2 61 25t28 69h-70z" />
    <glyph glyph-name="quotesinglbase" unicode="&#x201a;" horiz-adv-x="278" 
d="M15 0l30 145h150l-27 -133q-17 -85 -61.5 -129t-124.5 -44l14 67q42 2 60.5 24.5t27.5 69.5h-69z" />
    <glyph glyph-name="quotedblleft" unicode="&#x201c;" horiz-adv-x="491" 
d="M276 558l-30 -145h-150l27 133q17 85 61.5 129t124.5 44l-14 -67q-42 -2 -60.5 -24.5t-27.5 -69.5h69zM499 558l-30 -145h-150l27 133q17 85 61.5 129t124.5 44l-14 -67q-42 -2 -60.5 -24.5t-27.5 -69.5h69z" />
    <glyph glyph-name="quotedblright" unicode="&#x201d;" horiz-adv-x="491" 
d="M353 570l30 145h150l-27 -133q-17 -85 -61.5 -129t-124.5 -44l14 67q42 2 60.5 24.5t27.5 69.5h-69zM130 570l30 145h150l-27 -133q-17 -85 -61.5 -129t-124.5 -44l14 67q42 2 60.5 24.5t27.5 69.5h-69z" />
    <glyph glyph-name="quotedblbase" unicode="&#x201e;" horiz-adv-x="491" 
d="M236 0l30 145h150l-27 -133q-17 -85 -61.5 -129t-124.5 -44l14 67q42 2 60.5 24.5t27.5 69.5h-69zM13 0l30 145h150l-27 -133q-17 -85 -61.5 -129t-124.5 -44l14 67q42 2 60.5 24.5t27.5 69.5h-69z" />
    <glyph glyph-name="dagger" unicode="&#x2020;" horiz-adv-x="574" 
d="M567 407h-182l-119 -572h-131l119 572h-185l24 112h185l40 196h132l-41 -196h182z" />
    <glyph glyph-name="daggerdbl" unicode="&#x2021;" horiz-adv-x="574" 
d="M571 418h-181l-62 -294h181l-23 -113h-181l-38 -180h-132l38 180h-185l24 113h184l62 294h-183l22 113h185l37 179h132l-37 -179h181z" />
    <glyph glyph-name="bullet" unicode="&#x2022;" horiz-adv-x="424" 
d="M232 517q67 0 114.5 -47.5t47.5 -114.5t-47.5 -114.5t-114.5 -47.5t-114.5 47.5t-47.5 114.5t47.5 114.5t114.5 47.5z" />
    <glyph glyph-name="ellipsis" unicode="&#x2026;" horiz-adv-x="1000" 
d="M55 0l30 144h149l-31 -144h-148zM383 0l30 144h149l-31 -144h-148zM713 0l30 144h149l-31 -144h-148z" />
    <glyph glyph-name="perthousand" unicode="&#x2030;" horiz-adv-x="1065" 
d="M84 -25l501 750h92l-501 -750h-92zM368 591q0 -98 -50.5 -164t-127.5 -66q-57 0 -89 36.5t-32 99.5q0 86 47.5 155t125.5 69q59 0 92.5 -34t33.5 -96zM275 597q0 50 -37 50q-34 0 -56.5 -53.5t-22.5 -103.5q0 -55 37 -55q36 0 57.5 50t21.5 112zM694 210
q0 -98 -50.5 -164t-127.5 -66q-57 0 -89 36.5t-32 99.5q0 86 47.5 155t125.5 69q59 0 92.5 -34t33.5 -96zM601 216q0 50 -37 50q-34 0 -56.5 -53.5t-22.5 -103.5q0 -55 37 -55q36 0 57.5 50t21.5 112zM1037 210q0 -98 -50.5 -164t-127.5 -66q-57 0 -89 36.5t-32 99.5
q0 86 47.5 155t125.5 69q59 0 92.5 -34t33.5 -96zM944 216q0 50 -37 50q-34 0 -56.5 -53.5t-22.5 -103.5q0 -55 37 -55q36 0 57.5 50t21.5 112z" />
    <glyph glyph-name="guilsinglleft" unicode="&#x2039;" horiz-adv-x="296" 
d="M67 244l20 72l179 141l38 -64l-129 -131l71 -151l-60 -54z" />
    <glyph glyph-name="guilsinglright" unicode="&#x203a;" horiz-adv-x="296" 
d="M263 284l-33 -73l-207 -145l14 96l119 108l-72 146l60 54z" />
    <glyph glyph-name="fraction" unicode="&#x2044;" horiz-adv-x="497" 
d="M500 724l-419 -748h-82l420 748h81z" />
    <glyph glyph-name="Euro" unicode="&#x20ac;" horiz-adv-x="701" 
d="M27 495h86q43 108 127 171t189 63q111 0 183 -66t76 -182l-146 -7q-10 126 -114 126q-100 0 -159 -105h144v-95h-179q-8 -37 -11 -76h190v-95h-184q21 -116 127 -116q54 0 94.5 39.5t56.5 104.5l149 -11q-39 -132 -118 -196.5t-187 -64.5q-112 0 -183 63t-87 181h-54v95
h50q1 38 9 76h-59v95z" />
    <glyph glyph-name="trademark" unicode="&#x2122;" horiz-adv-x="995" 
d="M433 715v-75h-118v-331h-92v331h-120v75h330zM703 435l88 280h131v-406h-87v311h-1l-96 -311h-71l-96 311h-1v-311h-86v406h131z" />
    <glyph glyph-name="partialdiff" unicode="&#x2202;" horiz-adv-x="642" 
d="M409 237q0 49 -32 80.5t-81 31.5q-47 0 -76.5 -35.5t-29.5 -88.5q0 -51 30.5 -83t77.5 -32q51 0 81 39t30 88zM193 528l-126 31q23 79 85.5 123.5t142.5 44.5q73 0 128 -31t86.5 -84.5t47 -116t15.5 -133.5t-16.5 -136.5t-49 -120t-87 -87.5t-123.5 -33q-106 0 -173.5 71
t-67.5 172q0 103 66.5 175.5t170.5 72.5q42 0 83 -20t67 -49q0 39 -8.5 73t-26 63.5t-48 47t-70.5 17.5q-34 0 -61 -24.5t-35 -55.5z" />
    <glyph glyph-name="product" unicode="&#x220f;" horiz-adv-x="744" 
d="M644 778v-913h-134v786h-277v-786h-133v913h544z" />
    <glyph glyph-name="summation" unicode="&#x2211;" horiz-adv-x="671" 
d="M62 -34l326 349l-326 350v113h591v-127h-403l94 -93l173 -189v-106l-173 -190l-93 -93h402v-127h-591v113z" />
    <glyph glyph-name="minus" unicode="&#x2212;" horiz-adv-x="370" 
d="M33 201l30 129h283l-27 -129h-286z" />
    <glyph glyph-name="radical" unicode="&#x221a;" horiz-adv-x="855" 
d="M835 776l-364 -910h-136l-117 355l-71 -106l-107 71l158 234l110 -48l65 -202l36 -124l44 124l242 606h140z" />
    <glyph glyph-name="infinity" unicode="&#x221e;" horiz-adv-x="771" 
d="M538 145q-41 0 -82 20.5t-70 54.5q-29 -34 -70.5 -54.5t-81.5 -20.5q-80 0 -129 48t-49 128q0 81 49 129t129 48q40 0 81.5 -20.5t70.5 -54.5q29 34 70.5 54.5t81.5 20.5q79 0 128 -48.5t49 -128.5t-49 -128t-128 -48zM320 321q-13 28 -37 48.5t-47 20.5q-30 0 -48 -20
t-18 -49q0 -28 18 -48t48 -20q23 0 47 20t37 48zM536 390q-23 0 -47 -20t-38 -49q14 -28 38 -48t47 -20q30 0 47.5 20t17.5 48q0 29 -17.5 49t-47.5 20z" />
    <glyph glyph-name="integral" unicode="&#x222b;" horiz-adv-x="557" 
d="M80 -101l13 125q48 -15 82 -15q38 0 38 35v582q0 67 42.5 103.5t116.5 36.5q52 0 105 -14l-12 -126q-51 16 -82 16q-37 0 -37 -35v-583q0 -66 -43 -103t-117 -37q-50 0 -106 15z" />
    <glyph glyph-name="approxequal" unicode="&#x2248;" horiz-adv-x="592" 
d="M522 307l20 -121q-61 -75 -136 -75q-48 0 -121 33.5t-107 33.5q-57 0 -108 -70l-20 119q55 76 134 76q41 0 115.5 -33.5t111.5 -33.5q32 0 56.5 17.5t54.5 53.5zM522 522l20 -121q-61 -75 -136 -75q-48 0 -121 33.5t-107 33.5q-57 0 -108 -70l-20 119q55 76 134 76
q41 0 115.5 -33.5t111.5 -33.5q32 0 56.5 17.5t54.5 53.5z" />
    <glyph glyph-name="notequal" unicode="&#x2260;" horiz-adv-x="592" 
d="M533 673l-115 -204h129v-117h-194l-55 -98h249v-117h-315l-90 -161h-82l90 161h-105v117h171l55 98h-226v117h292l115 204h81z" />
    <glyph glyph-name="lessequal" unicode="&#x2264;" horiz-adv-x="592" 
d="M545 0h-499v114l337 -1l-337 139v118l499 207v-127l-354 -139l354 -140v-171z" />
    <glyph glyph-name="greaterequal" unicode="&#x2265;" horiz-adv-x="592" 
d="M545 0h-499v171l354 140l-354 139v127l499 -207v-118l-338 -139l338 1v-114z" />
    <glyph glyph-name="lozenge" unicode="&#x25ca;" horiz-adv-x="669" 
d="M334 542l-45 -83l-66 -113l63 -106l48 -89l50 89l61 105l-65 114zM80 346l202 349h104l203 -349l-203 -346h-104z" />
    <glyph glyph-name="macron.cap" horiz-adv-x="359" 
d="M424 798h-297l19 87h297z" />
    <glyph glyph-name="breve.cap" horiz-adv-x="328" 
d="M235 853q71 0 87 67h91q-42 -144 -187 -144q-71 0 -108.5 37t-31.5 107h82q0 -34 15 -50.5t52 -16.5z" />
    <glyph glyph-name="caron.alt" horiz-adv-x="325" 
d="M258 715l-21 -100q-11 -50 -34 -78t-70 -43l-13 40q30 10 42.5 26t17.5 46h-50l23 109h105z" />
    <glyph glyph-name="acute.cap" horiz-adv-x="370" 
d="M204 777l95 144h150l-149 -144h-96z" />
    <glyph glyph-name="caron.cap" horiz-adv-x="382" 
d="M263 922l44 -83l87 83h112l-141 -145h-131l-72 145h101z" />
    <glyph glyph-name="ring.cap" horiz-adv-x="296" 
d="M109 804q0 54 38 92.5t98 38.5q38 0 63.5 -24t25.5 -60q0 -57 -39.5 -94t-96.5 -37q-37 0 -63 24.5t-26 59.5zM234 882q-26 0 -45.5 -20t-19.5 -48q0 -18 10.5 -29.5t29.5 -11.5q25 0 45.5 20t20.5 47q0 19 -11 30.5t-30 11.5z" />
    <glyph glyph-name="dotaccent.cap" horiz-adv-x="296" 
d="M139 777l26 123h135l-25 -123h-136z" />
    <glyph glyph-name="hungarumlaut.cap" horiz-adv-x="349" 
d="M269 777l94 143h146l-150 -143h-90zM83 777l92 143h149l-152 -143h-89z" />
    <glyph glyph-name="tilde.cap" horiz-adv-x="340" 
d="M398 898h64q-24 -116 -105 -116q-23 0 -76.5 18.5t-65.5 18.5q-31 0 -43 -41h-61q14 59 39.5 89.5t71.5 30.5q19 0 70.5 -18.5t66.5 -18.5q30 0 39 37z" />
    <glyph glyph-name="grave.cap" horiz-adv-x="296" 
d="M199 777l-110 144h144l65 -144h-99z" />
    <glyph glyph-name="circumflex.cap" horiz-adv-x="357" 
d="M331 777l-44 85l-87 -85h-112l141 145h131l72 -145h-101z" />
    <glyph glyph-name="dieresis.cap" horiz-adv-x="389" 
d="M95 779l24 119h126l-24 -119h-126zM296 779l24 119h126l-24 -119h-126z" />
    <glyph glyph-name="commaaccent" horiz-adv-x="270" 
d="M206 -61l-17 -81q-9 -40 -39.5 -64.5t-58.5 -32.5l-14 36q49 15 58 53h-53l18 89h106z" />
    <glyph glyph-name="commaaccent.alt" horiz-adv-x="247" 
d="M188 -61l-17 -81q-9 -40 -39.5 -64.5t-58.5 -32.5l-14 36q49 15 58 53h-53l18 89h106z" />
    </font>
</defs>
</svg>
