<?xml version="1.0" encoding="UTF-8"?>
<svg width="578px" height="176px" viewBox="0 0 578 176" version="1.1" xmlns="http://www.w3.org/2000/svg" xmlns:xlink="http://www.w3.org/1999/xlink">
    <!-- Generator: Sketch 63.1 (92452) - https://sketch.com -->
    <title>Group 28</title>
    <desc>Created with Sketch.</desc>
    <g id="Page-1" stroke="none" stroke-width="1" fill="none" fill-rule="evenodd">
        <g id="Group-28">
            <path d="M511.6267,2.0151 C511.6267,4.8581 478.6827,3.3021 478.6827,3.3021 L478.6827,27.4601 C478.6827,27.4601 467.7017,2.0151 440.2487,2.0151 C412.7957,2.0151 404.4697,22.5661 404.4697,22.5661 L399.6187,2.0151 L368.5517,2.0151 L368.5517,29.6571 C368.5517,29.6571 358.8167,2.0151 325.0847,2.0151 L289.0177,2.0151 L289.0177,29.6571 C289.0177,32.9511 283.0797,2.0151 247.9397,2.0151 C219.5267,3.3021 209.6437,29.9021 209.6437,29.9021 L209.6437,2.2031 L177.7977,2.2031 L176.6997,19.7741 L161.3267,2.2031 L129.4807,2.2031 L129.4807,26.3621 C129.4807,26.3621 106.4207,-12.3179 66.8877,8.7921 C47.1217,-1.0909 13.0797,-3.2869 2.0987,37.3431 C3.1967,80.1701 2.0987,132.8801 2.0987,132.8801 L453.4267,136.1741 L537.9817,136.1741 L537.9817,95.5441 L514.9207,96.6421 L511.6267,2.0151 Z" id="Fill-24" fill="#F3F3EA"></path>
            <path d="M553.1813,115.6657 L553.1813,40.1857 L513.4553,0.4587 L477.7013,0.4587 L477.7013,20.9847 L470.7883,14.0717 C466.7333,9.6257 461.7303,6.0607 456.0993,3.6957 L456.0873,3.6917 C455.9303,3.6257 455.7723,3.5597 455.6143,3.4957 L455.5593,3.4737 C455.4153,3.4157 455.2713,3.3587 455.1263,3.3017 L455.0423,3.2697 C454.9063,3.2167 454.7703,3.1647 454.6333,3.1137 L454.5313,3.0747 C454.4003,3.0267 454.2703,2.9787 454.1383,2.9307 L454.0213,2.8887 C453.8943,2.8437 453.7673,2.7987 453.6393,2.7547 L453.5123,2.7107 C453.3873,2.6677 453.2623,2.6247 453.1363,2.5837 L453.0043,2.5397 C452.8793,2.4987 452.7543,2.4577 452.6283,2.4177 L452.4943,2.3757 C452.3683,2.3357 452.2433,2.2967 452.1163,2.2587 L451.9823,2.2177 C451.8543,2.1797 451.7263,2.1417 451.5973,2.1047 L451.4693,2.0677 C451.3363,2.0287 451.2023,1.9917 451.0693,1.9547 L450.9543,1.9237 C450.8123,1.8847 450.6693,1.8467 450.5263,1.8087 L450.4373,1.7857 C450.2713,1.7427 450.1053,1.7007 449.9383,1.6597 L449.9183,1.6547 C449.3923,1.5257 448.8623,1.4077 448.3283,1.2987 L448.2083,1.2747 C448.0733,1.2477 447.9373,1.2207 447.8023,1.1947 L447.6363,1.1647 C447.5153,1.1417 447.3953,1.1197 447.2743,1.0987 L447.0823,1.0647 C446.9693,1.0457 446.8573,1.0267 446.7433,1.0077 L446.5363,0.9747 C446.4283,0.9577 446.3203,0.9407 446.2123,0.9247 L445.9913,0.8927 C445.8863,0.8767 445.7813,0.8617 445.6763,0.8477 L445.4493,0.8177 C445.3463,0.8037 445.2423,0.7907 445.1393,0.7777 L444.9063,0.7497 C444.8043,0.7377 444.7023,0.7257 444.6003,0.7147 L444.3623,0.6887 C444.2603,0.6787 444.1583,0.6677 444.0563,0.6577 L443.8183,0.6357 C443.7163,0.6257 443.6133,0.6177 443.5113,0.6087 L443.2713,0.5887 C443.1683,0.5807 443.0663,0.5737 442.9643,0.5657 L442.7233,0.5497 C442.6193,0.5427 442.5153,0.5367 442.4103,0.5307 L442.1743,0.5167 C442.0673,0.5117 441.9603,0.5067 441.8533,0.5017 L441.6233,0.4917 C441.5113,0.4877 441.3993,0.4837 441.2883,0.4807 L441.0703,0.4737 C440.9473,0.4707 440.8233,0.4687 440.7003,0.4657 L440.5163,0.4627 C440.3313,0.4587 440.1463,0.4587 439.9613,0.4587 C439.7283,0.4587 439.4973,0.4617 439.2663,0.4647 L439.0813,0.4687 C438.8813,0.4727 438.6813,0.4777 438.4813,0.4857 L438.3823,0.4887 C438.1543,0.4967 437.9263,0.5077 437.6993,0.5197 L437.5263,0.5297 C437.3383,0.5407 437.1503,0.5527 436.9633,0.5657 L436.8193,0.5757 C436.5943,0.5927 436.3693,0.6107 436.1453,0.6317 L435.9943,0.6457 C435.8093,0.6627 435.6243,0.6817 435.4403,0.7017 L435.2743,0.7197 C435.0503,0.7447 434.8273,0.7717 434.6053,0.7997 L434.4973,0.8137 C434.3043,0.8397 434.1133,0.8657 433.9223,0.8937 L433.7483,0.9187 C433.5253,0.9527 433.3033,0.9867 433.0813,1.0237 L433.0553,1.0277 C432.8413,1.0637 432.6283,1.1017 432.4153,1.1407 L432.2443,1.1717 C432.0443,1.2097 431.8433,1.2477 431.6443,1.2887 L431.5793,1.3017 C431.3603,1.3457 431.1413,1.3927 430.9233,1.4407 L430.7653,1.4767 C430.5793,1.5187 430.3943,1.5617 430.2103,1.6057 L430.0963,1.6327 C429.8803,1.6847 429.6643,1.7387 429.4493,1.7947 L429.3123,1.8307 C429.1323,1.8787 428.9523,1.9277 428.7723,1.9767 L428.6343,2.0157 C428.4203,2.0757 428.2073,2.1377 427.9943,2.2007 L427.8973,2.2307 C427.7113,2.2867 427.5273,2.3437 427.3423,2.4027 L427.1973,2.4487 C426.9843,2.5167 426.7713,2.5867 426.5593,2.6587 L426.5343,2.6667 C426.3313,2.7357 426.1293,2.8067 425.9283,2.8787 L425.7853,2.9297 C425.5793,3.0047 425.3743,3.0797 425.1703,3.1577 L425.1623,3.1607 C424.9513,3.2407 424.7423,3.3217 424.5333,3.4057 L424.4023,3.4577 C424.2163,3.5327 424.0303,3.6087 423.8463,3.6867 L423.7783,3.7147 C423.5713,3.8017 423.3653,3.8907 423.1593,3.9807 L423.0513,4.0287 C422.8723,4.1087 422.6943,4.1897 422.5163,4.2717 L422.4203,4.3157 C422.2163,4.4107 422.0123,4.5067 421.8103,4.6047 L421.7403,4.6387 C421.5583,4.7277 421.3773,4.8167 421.1973,4.9077 L421.0913,4.9617 C420.8883,5.0647 420.6863,5.1687 420.4853,5.2747 L420.4813,5.2777 C420.2853,5.3807 420.0913,5.4867 419.8973,5.5927 L419.7923,5.6507 C419.3973,5.8697 419.0063,6.0937 418.6203,6.3247 L418.5263,6.3807 C418.3383,6.4937 418.1503,6.6077 417.9643,6.7237 L417.9533,6.7307 C417.7573,6.8527 417.5633,6.9757 417.3693,7.1007 L417.2963,7.1487 C417.1183,7.2637 416.9423,7.3797 416.7673,7.4977 L416.7193,7.5287 C416.5273,7.6577 416.3363,7.7887 416.1453,7.9217 L416.1083,7.9477 C415.9313,8.0717 415.7553,8.1967 415.5803,8.3227 L415.5193,8.3667 C415.1463,8.6367 414.7783,8.9127 414.4153,9.1947 L414.3523,9.2437 C413.9893,9.5257 413.6313,9.8147 413.2783,10.1087 L413.2223,10.1557 C412.9853,10.3537 412.7513,10.5537 412.5183,10.7567 L402.2203,0.4587 L366.4673,0.4587 L366.4673,20.9847 L359.5543,14.0717 C351.9253,5.7077 340.9393,0.4587 328.7263,0.4587 L287.0133,0.4587 L287.0133,20.9847 L280.1013,14.0717 C272.4723,5.7077 261.4863,0.4587 249.2733,0.4587 C238.7663,0.4587 229.1663,4.3447 221.8313,10.7567 L211.5333,0.4587 L175.7793,0.4587 L175.7793,12.3767 L163.8613,0.4587 L128.1073,0.4587 L128.1073,20.9847 L121.1953,14.0717 C113.5663,5.7077 102.5803,0.4587 90.3673,0.4587 C81.5053,0.4587 73.2883,3.2237 66.5313,7.9357 C59.7753,3.2237 51.5583,0.4587 42.6953,0.4587 C19.6583,0.4587 0.9833,19.1347 0.9833,42.1717 L0.9833,135.5287 L40.7093,175.2557 L76.4633,175.2557 L76.4633,163.3377 L88.3813,175.2557 L124.1353,175.2557 L124.1353,163.3377 L136.0533,175.2557 L171.8073,175.2557 L171.8073,154.7297 L178.7353,161.6587 C180.2223,163.2867 181.8363,164.7967 183.5623,166.1727 L183.5803,166.1867 C184.5563,166.9647 185.5683,167.6997 186.6133,168.3887 L186.6363,168.4037 C186.8923,168.5727 187.1503,168.7387 187.4113,168.9017 L187.4353,168.9167 C188.2273,169.4137 189.0373,169.8837 189.8643,170.3267 L189.8903,170.3407 C190.1573,170.4837 190.4263,170.6237 190.6963,170.7617 L190.7503,170.7887 C191.0203,170.9247 191.2923,171.0587 191.5653,171.1897 L191.5953,171.2047 C192.1573,171.4727 192.7253,171.7287 193.3013,171.9717 L193.3233,171.9817 C193.6003,172.0987 193.8793,172.2127 194.1593,172.3237 L194.2363,172.3547 C194.5113,172.4627 194.7873,172.5687 195.0643,172.6717 L195.1423,172.6997 C195.4253,172.8047 195.7103,172.9057 195.9953,173.0037 L196.0183,173.0117 C196.3153,173.1137 196.6143,173.2127 196.9143,173.3077 L196.9183,173.3087 C197.2053,173.3997 197.4943,173.4877 197.7843,173.5727 L197.8783,173.6007 C198.1573,173.6817 198.4373,173.7597 198.7183,173.8347 L198.8343,173.8657 C199.1163,173.9407 199.3993,174.0127 199.6843,174.0817 L199.7733,174.1027 C200.3653,174.2447 200.9613,174.3747 201.5623,174.4907 L201.6543,174.5087 C201.9403,174.5637 202.2273,174.6157 202.5153,174.6647 L202.6533,174.6877 C202.9373,174.7347 203.2223,174.7797 203.5073,174.8207 L203.6413,174.8397 C203.9343,174.8807 204.2283,174.9207 204.5223,174.9557 L204.5953,174.9637 C204.8903,174.9987 205.1863,175.0307 205.4833,175.0597 L205.5493,175.0657 C205.8463,175.0947 206.1433,175.1187 206.4413,175.1407 L206.5833,175.1507 C206.8723,175.1717 207.1623,175.1887 207.4523,175.2027 L207.6103,175.2107 C207.9033,175.2237 208.1973,175.2347 208.4913,175.2417 L208.6143,175.2447 C208.9243,175.2507 209.2353,175.2557 209.5473,175.2557 C209.8573,175.2557 210.1663,175.2507 210.4743,175.2447 C210.5663,175.2427 210.6583,175.2397 210.7503,175.2367 C210.9763,175.2307 211.2013,175.2217 211.4263,175.2117 C211.5203,175.2077 211.6133,175.2037 211.7063,175.1997 C211.9853,175.1847 212.2633,175.1687 212.5403,175.1487 L212.6233,175.1437 C212.9293,175.1217 213.2343,175.0947 213.5383,175.0657 L213.7823,175.0417 C214.0123,175.0187 214.2413,174.9937 214.4703,174.9667 L214.7323,174.9347 C214.9973,174.9017 215.2613,174.8667 215.5243,174.8297 L215.6343,174.8137 C215.9383,174.7697 216.2413,174.7217 216.5423,174.6707 L216.7373,174.6367 C216.9763,174.5947 217.2143,174.5517 217.4523,174.5057 L217.6883,174.4597 C217.9463,174.4087 218.2033,174.3557 218.4603,174.2997 L218.5743,174.2757 C218.8763,174.2087 219.1773,174.1387 219.4763,174.0657 L219.6103,174.0317 C219.8613,173.9697 220.1123,173.9047 220.3623,173.8377 L220.5663,173.7827 C220.8203,173.7137 221.0733,173.6417 221.3243,173.5677 L221.4383,173.5347 C221.7373,173.4467 222.0343,173.3547 222.3303,173.2597 L222.3943,173.2387 C222.6603,173.1527 222.9233,173.0637 223.1863,172.9727 L223.3663,172.9107 C223.6123,172.8237 223.8583,172.7347 224.1023,172.6437 L224.2213,172.5997 C228.9193,170.8347 233.2133,168.2447 236.9293,165.0077 L247.1773,175.2557 L247.2873,175.2557 L282.9303,175.2557 L283.0413,175.2557 L283.0413,163.4477 L294.8483,175.2557 L358.4113,175.2557 L358.4103,175.2557 L358.5213,175.2557 C371.5293,175.2557 383.1463,169.3007 390.7963,159.9687 L406.0833,175.2557 L473.7283,175.2557 L473.7283,163.4477 L485.5363,175.2557 L577.0173,175.2557 L577.0173,139.5017 L553.1813,115.6657 Z M56.6003,131.5567 L52.6273,131.5567 L52.6273,42.1717 C52.6273,36.6867 48.1813,32.2397 42.6953,32.2397 C37.2103,32.2397 32.7643,36.6867 32.7643,42.1717 L32.7643,131.5567 L28.7913,131.5567 L28.7913,42.1717 C28.7913,34.4927 35.0163,28.2677 42.6953,28.2677 C50.3753,28.2677 56.6003,34.4927 56.6003,42.1717 L56.6003,131.5567 Z M64.5453,131.5567 L60.5723,131.5567 L60.5723,42.1717 C60.5723,32.2987 52.5693,24.2947 42.6953,24.2947 C32.8223,24.2947 24.8193,32.2987 24.8193,42.1717 L24.8193,131.5567 L20.8463,131.5567 L20.8463,42.1717 C20.8463,30.1047 30.6283,20.3217 42.6953,20.3217 C54.7633,20.3217 64.5453,30.1047 64.5453,42.1717 L64.5453,131.5567 Z M104.2723,131.5567 L100.2993,131.5567 L100.2993,42.1717 C100.2993,36.6867 95.8523,32.2397 90.3673,32.2397 C84.8823,32.2397 80.4363,36.6867 80.4363,42.1717 L80.4363,131.5567 L76.4633,131.5567 L76.4633,42.1717 C76.4633,34.4927 82.6883,28.2677 90.3673,28.2677 C98.0463,28.2677 104.2723,34.4927 104.2723,42.1717 L104.2723,131.5567 Z M112.2173,131.5567 L108.2443,131.5567 L108.2443,42.1717 C108.2443,32.2987 100.2403,24.2947 90.3673,24.2947 C80.4943,24.2947 72.4903,32.2987 72.4903,42.1717 L72.4903,131.5567 L68.5183,131.5567 L68.5183,42.1717 C68.5183,30.1047 78.3003,20.3217 90.3673,20.3217 C102.4343,20.3217 112.2173,30.1047 112.2173,42.1717 L112.2173,131.5567 Z M120.1623,131.5567 L116.1893,131.5567 L116.1893,42.1717 C116.1893,27.9107 104.6283,16.3497 90.3673,16.3497 C79.6313,16.3497 70.4263,22.9017 66.5313,32.2257 C62.6363,22.9017 53.4323,16.3497 42.6953,16.3497 C28.4343,16.3497 16.8733,27.9107 16.8733,42.1717 L16.8733,131.5567 L12.9013,131.5567 L12.9013,42.1717 C12.9013,25.7167 26.2403,12.3767 42.6953,12.3767 C52.4423,12.3767 61.0953,17.0577 66.5313,24.2927 C71.9673,17.0577 80.6203,12.3767 90.3673,12.3767 C106.8223,12.3767 120.1623,25.7167 120.1623,42.1717 L120.1623,131.5567 Z M128.1073,131.5567 L124.1353,131.5567 L124.1353,42.1717 C124.1353,23.5227 109.0173,8.4037 90.3673,8.4037 C81.0633,8.4037 72.6393,12.1677 66.5313,18.2537 C60.4243,12.1677 51.9993,8.4037 42.6953,8.4037 C24.0463,8.4037 8.9283,23.5227 8.9283,42.1717 L8.9283,131.5567 L4.9553,131.5567 L4.9553,42.1717 C4.9553,21.3287 21.8523,4.4317 42.6953,4.4317 C51.7363,4.4317 60.0333,7.6117 66.5313,12.9127 C73.0303,7.6117 81.3273,4.4317 90.3673,4.4317 C90.6993,4.4317 91.0303,4.4357 91.3603,4.4447 C91.9123,4.4587 92.4603,4.4867 93.0053,4.5247 L93.2093,4.5377 C93.4163,4.5527 93.6223,4.5727 93.8273,4.5907 C93.9323,4.6007 94.0373,4.6087 94.1413,4.6187 C94.3333,4.6377 94.5243,4.6607 94.7153,4.6827 C94.8323,4.6957 94.9493,4.7077 95.0663,4.7227 C95.2503,4.7457 95.4333,4.7707 95.6173,4.7967 C95.7393,4.8137 95.8623,4.8297 95.9843,4.8477 C96.1633,4.8747 96.3413,4.9037 96.5203,4.9337 C96.6453,4.9537 96.7703,4.9737 96.8943,4.9957 C97.0703,5.0257 97.2453,5.0587 97.4193,5.0917 C97.5453,5.1157 97.6723,5.1397 97.7983,5.1647 C97.9703,5.1987 98.1413,5.2357 98.3133,5.2727 C98.4403,5.2997 98.5673,5.3267 98.6933,5.3547 C98.8633,5.3927 99.0323,5.4327 99.2013,5.4737 C99.3273,5.5037 99.4543,5.5347 99.5813,5.5667 C99.7483,5.6087 99.9153,5.6517 100.0813,5.6957 C100.2073,5.7297 100.3333,5.7637 100.4593,5.7987 C100.6253,5.8437 100.7893,5.8907 100.9543,5.9387 C101.0793,5.9757 101.2043,6.0127 101.3293,6.0507 C101.4933,6.1007 101.6563,6.1507 101.8193,6.2027 C101.9433,6.2417 102.0663,6.2827 102.1903,6.3227 C102.3523,6.3767 102.5143,6.4307 102.6753,6.4857 C102.7973,6.5287 102.9193,6.5717 103.0413,6.6147 C103.2023,6.6727 103.3623,6.7297 103.5223,6.7897 C103.6423,6.8347 103.7623,6.8797 103.8813,6.9257 C104.0413,6.9877 104.2013,7.0487 104.3603,7.1127 C104.4783,7.1597 104.5943,7.2077 104.7113,7.2557 C104.8713,7.3217 105.0303,7.3867 105.1893,7.4547 C105.3033,7.5037 105.4163,7.5537 105.5293,7.6037 C105.6893,7.6737 105.8493,7.7437 106.0083,7.8167 C106.1163,7.8657 106.2243,7.9177 106.3323,7.9677 C106.4943,8.0437 106.6563,8.1187 106.8163,8.1967 C106.9173,8.2457 107.0183,8.2967 107.1183,8.3467 C107.2843,8.4287 107.4503,8.5107 107.6143,8.5947 L107.8743,8.7317 C108.0503,8.8247 108.2263,8.9167 108.4013,9.0117 L108.5163,9.0757 C109.1753,9.4377 109.8223,9.8197 110.4563,10.2197 L110.6583,10.3457 C110.8173,10.4467 110.9743,10.5507 111.1313,10.6547 L111.4003,10.8317 C111.5483,10.9317 111.6943,11.0337 111.8403,11.1347 C111.9363,11.2017 112.0333,11.2667 112.1283,11.3347 C112.2703,11.4347 112.4093,11.5367 112.5493,11.6387 C112.6483,11.7097 112.7473,11.7817 112.8453,11.8547 C112.9813,11.9557 113.1163,12.0587 113.2503,12.1607 C113.3503,12.2377 113.4503,12.3127 113.5493,12.3897 C113.6813,12.4927 113.8113,12.5977 113.9423,12.7017 C114.0413,12.7817 114.1413,12.8607 114.2403,12.9417 C114.3683,13.0467 114.4953,13.1527 114.6223,13.2597 C114.7213,13.3427 114.8193,13.4247 114.9173,13.5087 C115.0423,13.6167 115.1663,13.7247 115.2903,13.8337 C115.3873,13.9187 115.4843,14.0047 115.5803,14.0917 C115.7023,14.2007 115.8243,14.3117 115.9443,14.4237 C116.0403,14.5117 116.1353,14.5997 116.2303,14.6887 C116.3493,14.8017 116.4683,14.9147 116.5853,15.0287 C116.6793,15.1187 116.7723,15.2097 116.8653,15.3007 C116.9813,15.4157 117.0973,15.5317 117.2133,15.6477 C117.3043,15.7407 117.3953,15.8337 117.4853,15.9267 C117.5993,16.0447 117.7133,16.1637 117.8263,16.2827 C117.9143,16.3767 118.0023,16.4717 118.0903,16.5667 C118.2023,16.6877 118.3133,16.8097 118.4243,16.9317 C118.5103,17.0277 118.5953,17.1237 118.6803,17.2207 C118.7893,17.3447 118.8993,17.4687 119.0073,17.5947 C119.0903,17.6917 119.1713,17.7887 119.2533,17.8867 C119.3613,18.0147 119.4693,18.1417 119.5753,18.2717 C119.6543,18.3677 119.7323,18.4657 119.8103,18.5637 C119.9163,18.6957 120.0233,18.8277 120.1273,18.9617 C120.2023,19.0577 120.2753,19.1547 120.3493,19.2507 C120.4543,19.3887 120.5603,19.5257 120.6633,19.6647 C120.7323,19.7567 120.7993,19.8507 120.8673,19.9437 C120.9733,20.0887 121.0803,20.2337 121.1843,20.3817 L121.3543,20.6257 C121.4663,20.7867 121.5783,20.9477 121.6883,21.1097 L121.7503,21.2047 C122.1653,21.8237 122.5613,22.4567 122.9393,23.1007 L123.0763,23.3327 C123.1683,23.4937 123.2583,23.6557 123.3483,23.8177 C123.4023,23.9147 123.4583,24.0107 123.5113,24.1087 C123.5963,24.2637 123.6783,24.4207 123.7613,24.5777 C123.8173,24.6837 123.8733,24.7887 123.9283,24.8947 C124.0083,25.0487 124.0843,25.2037 124.1613,25.3577 C124.2173,25.4697 124.2733,25.5807 124.3283,25.6927 C124.4023,25.8457 124.4743,25.9997 124.5473,26.1547 C124.6013,26.2697 124.6553,26.3847 124.7083,26.5007 C124.7793,26.6547 124.8473,26.8087 124.9153,26.9637 C124.9673,27.0817 125.0203,27.1997 125.0703,27.3187 C125.1373,27.4737 125.2013,27.6287 125.2653,27.7847 C125.3153,27.9057 125.3653,28.0257 125.4133,28.1467 C125.4763,28.3027 125.5373,28.4597 125.5973,28.6167 C125.6443,28.7387 125.6913,28.8617 125.7373,28.9847 C125.7963,29.1417 125.8533,29.2997 125.9103,29.4587 C125.9543,29.5827 125.9983,29.7067 126.0413,29.8317 C126.0963,29.9907 126.1503,30.1497 126.2033,30.3097 C126.2453,30.4357 126.2853,30.5607 126.3263,30.6877 C126.3773,30.8477 126.4273,31.0087 126.4773,31.1707 C126.5153,31.2967 126.5533,31.4247 126.5903,31.5517 C126.6383,31.7147 126.6853,31.8767 126.7303,32.0407 C126.7653,32.1677 126.8003,32.2957 126.8343,32.4237 C126.8783,32.5887 126.9213,32.7537 126.9633,32.9197 C126.9953,33.0467 127.0263,33.1747 127.0573,33.3027 C127.0973,33.4707 127.1373,33.6387 127.1763,33.8067 C127.2043,33.9337 127.2313,34.0617 127.2593,34.1887 C127.2953,34.3597 127.3323,34.5307 127.3673,34.7027 C127.3923,34.8277 127.4153,34.9537 127.4393,35.0797 C127.4733,35.2547 127.5063,35.4297 127.5373,35.6057 C127.5583,35.7277 127.5783,35.8517 127.5983,35.9747 C127.6283,36.1547 127.6583,36.3347 127.6853,36.5167 C127.7033,36.6327 127.7183,36.7497 127.7343,36.8667 C127.7613,37.0557 127.7883,37.2447 127.8123,37.4347 C127.8253,37.5337 127.8353,37.6337 127.8463,37.7337 C127.8713,37.9417 127.8963,38.1497 127.9173,38.3597 L127.9203,38.4017 C127.9793,38.9927 128.0253,39.5867 128.0563,40.1857 C128.0903,40.8437 128.1073,41.5057 128.1073,42.1717 L128.1073,131.5567 Z M155.9163,4.4317 L159.8893,4.4317 L159.8893,93.8157 C159.8893,99.3017 164.3353,103.7477 169.8203,103.7477 C175.3053,103.7477 179.7523,99.3017 179.7523,93.8157 L179.7523,4.4317 L183.7253,4.4317 L183.7253,93.8157 C183.7253,101.4957 177.4993,107.7207 169.8203,107.7207 C162.1413,107.7207 155.9163,101.4957 155.9163,93.8157 L155.9163,4.4317 Z M147.9713,4.4317 L151.9433,4.4317 L151.9433,93.8157 C151.9433,103.6897 159.9473,111.6927 169.8203,111.6927 C179.6933,111.6927 187.6973,103.6897 187.6973,93.8157 L187.6973,4.4317 L191.6703,4.4317 L191.6703,93.8157 C191.6703,105.8837 181.8873,115.6657 169.8203,115.6657 C157.7533,115.6657 147.9713,105.8837 147.9713,93.8157 L147.9713,4.4317 Z M140.0253,4.4317 L143.9983,4.4317 L143.9983,93.8157 C143.9983,108.0777 155.5593,119.6387 169.8203,119.6387 C184.0813,119.6387 195.6423,108.0777 195.6423,93.8157 L195.6423,4.4317 L199.6153,4.4317 L199.6153,93.8157 C199.6153,110.2717 186.2753,123.6107 169.8203,123.6107 C153.3653,123.6107 140.0253,110.2717 140.0253,93.8157 L140.0253,4.4317 Z M207.5603,42.1717 L207.5603,93.8157 C207.5603,114.6597 190.6643,131.5567 169.8203,131.5567 C148.9773,131.5567 132.0803,114.6597 132.0803,93.8157 L132.0803,4.4317 L136.0533,4.4317 L136.0533,93.8157 C136.0533,112.4657 151.1713,127.5837 169.8203,127.5837 C188.4703,127.5837 203.5883,112.4657 203.5883,93.8157 L203.5883,4.4317 L207.5603,4.4317 L207.5603,42.1717 Z M263.1783,131.5567 L259.2053,131.5567 L259.2053,42.1717 C259.2053,36.6867 254.7583,32.2397 249.2733,32.2397 C243.7883,32.2397 239.3423,36.6867 239.3423,42.1717 L239.3423,131.5567 L235.3693,131.5567 L235.3693,42.1717 C235.3693,34.4927 241.5943,28.2677 249.2733,28.2677 C256.9523,28.2677 263.1783,34.4927 263.1783,42.1717 L263.1783,131.5567 Z M271.1233,131.5567 L267.1503,131.5567 L267.1503,42.1717 C267.1503,32.2987 259.1463,24.2947 249.2733,24.2947 C239.4003,24.2947 231.3963,32.2987 231.3963,42.1717 L231.3963,131.5567 L227.4243,131.5567 L227.4243,42.1717 C227.4243,30.1047 237.2063,20.3217 249.2733,20.3217 C261.3403,20.3217 271.1233,30.1047 271.1233,42.1717 L271.1233,131.5567 Z M279.0683,131.5567 L275.0953,131.5567 L275.0953,42.1717 C275.0953,27.9107 263.5343,16.3497 249.2733,16.3497 C235.0123,16.3497 223.4513,27.9107 223.4513,42.1717 L223.4513,131.5567 L219.4783,131.5567 L219.4783,42.1717 C219.4783,25.7167 232.8183,12.3767 249.2733,12.3767 C265.7283,12.3767 279.0683,25.7167 279.0683,42.1717 L279.0683,131.5567 Z M287.0133,131.5567 L283.0413,131.5567 L283.0413,42.1717 C283.0413,23.5227 267.9233,8.4037 249.2733,8.4037 C230.6243,8.4037 215.5063,23.5227 215.5063,42.1717 L215.5063,131.5567 L211.5333,131.5567 L211.5333,42.1717 C211.5333,21.3287 228.4303,4.4317 249.2733,4.4317 C249.6053,4.4317 249.9363,4.4357 250.2663,4.4447 C250.8183,4.4587 251.3663,4.4867 251.9113,4.5247 L252.1153,4.5377 C252.3223,4.5527 252.5283,4.5727 252.7333,4.5907 C252.8383,4.6007 252.9433,4.6087 253.0473,4.6187 C253.2393,4.6377 253.4303,4.6607 253.6213,4.6827 C253.7383,4.6957 253.8553,4.7077 253.9723,4.7227 C254.1563,4.7457 254.3393,4.7707 254.5233,4.7967 C254.6453,4.8137 254.7683,4.8297 254.8903,4.8477 C255.0693,4.8747 255.2473,4.9037 255.4263,4.9337 C255.5513,4.9537 255.6763,4.9737 255.8003,4.9957 C255.9763,5.0257 256.1513,5.0587 256.3253,5.0917 C256.4513,5.1157 256.5783,5.1397 256.7043,5.1647 C256.8763,5.1987 257.0473,5.2357 257.2193,5.2727 C257.3463,5.2997 257.4733,5.3267 257.5993,5.3547 C257.7693,5.3927 257.9383,5.4327 258.1073,5.4737 C258.2333,5.5037 258.3603,5.5347 258.4873,5.5667 C258.6543,5.6087 258.8213,5.6517 258.9873,5.6957 C259.1133,5.7297 259.2393,5.7637 259.3653,5.7987 C259.5313,5.8437 259.6953,5.8907 259.8603,5.9387 C259.9853,5.9757 260.1103,6.0127 260.2353,6.0507 C260.3993,6.1007 260.5623,6.1507 260.7253,6.2027 C260.8493,6.2417 260.9723,6.2827 261.0963,6.3227 C261.2583,6.3767 261.4203,6.4307 261.5813,6.4857 C261.7033,6.5287 261.8253,6.5717 261.9473,6.6147 C262.1083,6.6727 262.2683,6.7297 262.4283,6.7897 C262.5483,6.8347 262.6683,6.8797 262.7873,6.9257 C262.9473,6.9877 263.1073,7.0487 263.2663,7.1127 C263.3843,7.1597 263.5003,7.2077 263.6173,7.2557 C263.7773,7.3217 263.9363,7.3867 264.0953,7.4547 C264.2093,7.5037 264.3223,7.5537 264.4353,7.6037 C264.5953,7.6737 264.7553,7.7437 264.9143,7.8167 C265.0223,7.8657 265.1303,7.9177 265.2383,7.9677 C265.4003,8.0437 265.5623,8.1187 265.7223,8.1967 C265.8233,8.2457 265.9243,8.2967 266.0243,8.3467 C266.1903,8.4287 266.3563,8.5107 266.5203,8.5947 L266.7803,8.7317 C266.9563,8.8247 267.1323,8.9167 267.3073,9.0117 L267.4223,9.0757 C268.0813,9.4377 268.7283,9.8197 269.3623,10.2197 L269.5643,10.3457 C269.7233,10.4467 269.8803,10.5507 270.0373,10.6547 L270.3063,10.8317 C270.4543,10.9317 270.6003,11.0337 270.7463,11.1347 C270.8423,11.2017 270.9393,11.2667 271.0343,11.3347 C271.1763,11.4347 271.3153,11.5367 271.4553,11.6387 C271.5543,11.7097 271.6533,11.7817 271.7513,11.8547 C271.8873,11.9557 272.0223,12.0587 272.1563,12.1607 C272.2563,12.2377 272.3563,12.3127 272.4553,12.3897 C272.5873,12.4927 272.7173,12.5977 272.8483,12.7017 C272.9473,12.7817 273.0473,12.8607 273.1463,12.9417 C273.2743,13.0467 273.4013,13.1527 273.5283,13.2597 C273.6273,13.3427 273.7253,13.4247 273.8233,13.5087 C273.9483,13.6167 274.0723,13.7247 274.1963,13.8337 C274.2933,13.9187 274.3903,14.0047 274.4863,14.0917 C274.6083,14.2007 274.7303,14.3117 274.8503,14.4237 C274.9463,14.5117 275.0413,14.5997 275.1363,14.6887 C275.2553,14.8017 275.3743,14.9147 275.4913,15.0287 C275.5853,15.1187 275.6783,15.2097 275.7713,15.3007 C275.8873,15.4157 276.0033,15.5317 276.1193,15.6477 C276.2103,15.7407 276.3013,15.8337 276.3913,15.9267 C276.5053,16.0447 276.6193,16.1637 276.7323,16.2827 C276.8203,16.3767 276.9083,16.4717 276.9963,16.5667 C277.1083,16.6877 277.2193,16.8097 277.3303,16.9317 C277.4163,17.0277 277.5013,17.1237 277.5863,17.2207 C277.6953,17.3447 277.8053,17.4687 277.9133,17.5947 C277.9963,17.6917 278.0773,17.7887 278.1593,17.8867 C278.2673,18.0147 278.3753,18.1417 278.4813,18.2717 C278.5603,18.3677 278.6383,18.4657 278.7163,18.5637 C278.8223,18.6957 278.9293,18.8277 279.0333,18.9617 C279.1083,19.0577 279.1813,19.1547 279.2553,19.2507 C279.3603,19.3887 279.4663,19.5257 279.5693,19.6647 C279.6383,19.7567 279.7053,19.8507 279.7733,19.9437 C279.8793,20.0887 279.9863,20.2337 280.0903,20.3817 L280.2603,20.6257 C280.3723,20.7867 280.4843,20.9477 280.5943,21.1097 L280.6563,21.2047 C281.0713,21.8237 281.4663,22.4567 281.8453,23.1007 L281.9823,23.3327 C282.0743,23.4937 282.1643,23.6557 282.2543,23.8177 C282.3093,23.9147 282.3643,24.0107 282.4173,24.1087 C282.5023,24.2637 282.5843,24.4207 282.6673,24.5777 C282.7233,24.6837 282.7803,24.7887 282.8343,24.8947 C282.9143,25.0487 282.9903,25.2037 283.0673,25.3577 C283.1233,25.4697 283.1793,25.5807 283.2343,25.6927 C283.3083,25.8457 283.3803,25.9997 283.4533,26.1547 C283.5073,26.2697 283.5613,26.3847 283.6143,26.5007 C283.6853,26.6547 283.7533,26.8087 283.8213,26.9637 C283.8733,27.0817 283.9263,27.1997 283.9763,27.3187 C284.0433,27.4737 284.1073,27.6287 284.1723,27.7847 C284.2213,27.9057 284.2713,28.0257 284.3193,28.1467 C284.3823,28.3027 284.4433,28.4597 284.5033,28.6167 C284.5503,28.7387 284.5973,28.8617 284.6433,28.9847 C284.7023,29.1417 284.7593,29.2997 284.8163,29.4587 C284.8603,29.5827 284.9043,29.7067 284.9473,29.8317 C285.0023,29.9907 285.0563,30.1497 285.1093,30.3097 C285.1513,30.4357 285.1913,30.5607 285.2323,30.6877 C285.2833,30.8477 285.3333,31.0087 285.3833,31.1707 C285.4213,31.2967 285.4593,31.4247 285.4963,31.5517 C285.5443,31.7147 285.5913,31.8767 285.6363,32.0407 C285.6713,32.1677 285.7063,32.2957 285.7403,32.4237 C285.7843,32.5887 285.8273,32.7537 285.8693,32.9197 C285.9013,33.0467 285.9323,33.1747 285.9633,33.3027 C286.0033,33.4707 286.0433,33.6387 286.0823,33.8067 C286.1103,33.9337 286.1373,34.0617 286.1653,34.1887 C286.2013,34.3597 286.2383,34.5307 286.2733,34.7027 C286.2983,34.8277 286.3213,34.9537 286.3453,35.0797 C286.3793,35.2547 286.4123,35.4297 286.4433,35.6057 C286.4653,35.7277 286.4843,35.8517 286.5043,35.9747 C286.5343,36.1547 286.5643,36.3347 286.5913,36.5167 C286.6093,36.6327 286.6243,36.7497 286.6403,36.8667 C286.6673,37.0557 286.6943,37.2447 286.7183,37.4347 C286.7313,37.5337 286.7413,37.6337 286.7523,37.7337 C286.7773,37.9417 286.8023,38.1497 286.8233,38.3597 L286.8263,38.4017 C286.8853,38.9927 286.9313,39.5867 286.9623,40.1857 C286.9963,40.8437 287.0133,41.5057 287.0133,42.1717 L287.0133,131.5567 Z M366.4673,93.8157 C366.4673,114.6597 349.5703,131.5567 328.7263,131.5567 L290.9863,131.5567 L290.9863,42.1717 L290.9863,4.4317 L328.7263,4.4317 C329.0583,4.4317 329.3893,4.4357 329.7193,4.4447 C330.2713,4.4587 330.8193,4.4867 331.3643,4.5247 L331.5683,4.5377 C331.7753,4.5527 331.9813,4.5727 332.1873,4.5907 C332.2913,4.6007 332.3963,4.6087 332.5003,4.6187 C332.6923,4.6377 332.8833,4.6607 333.0743,4.6827 C333.1913,4.6957 333.3083,4.7077 333.4253,4.7227 C333.6093,4.7447 333.7923,4.7707 333.9763,4.7967 C334.0983,4.8137 334.2213,4.8297 334.3433,4.8477 C334.5223,4.8747 334.7003,4.9037 334.8793,4.9337 C335.0043,4.9537 335.1293,4.9737 335.2533,4.9957 C335.4293,5.0257 335.6043,5.0587 335.7783,5.0917 C335.9053,5.1157 336.0313,5.1397 336.1573,5.1647 C336.3293,5.1987 336.5013,5.2357 336.6723,5.2727 C336.7993,5.2997 336.9263,5.3267 337.0523,5.3547 C337.2223,5.3927 337.3913,5.4327 337.5603,5.4737 C337.6863,5.5037 337.8133,5.5347 337.9403,5.5667 C338.1073,5.6087 338.2743,5.6517 338.4403,5.6957 C338.5663,5.7297 338.6923,5.7637 338.8183,5.7987 C338.9843,5.8437 339.1483,5.8907 339.3133,5.9387 C339.4383,5.9757 339.5643,6.0127 339.6883,6.0507 C339.8523,6.1007 340.0153,6.1507 340.1783,6.2027 C340.3023,6.2417 340.4253,6.2827 340.5493,6.3227 C340.7113,6.3767 340.8733,6.4307 341.0343,6.4857 C341.1563,6.5277 341.2783,6.5717 341.4003,6.6147 C341.5613,6.6727 341.7213,6.7297 341.8813,6.7897 C342.0013,6.8347 342.1213,6.8797 342.2403,6.9257 C342.4003,6.9877 342.5603,7.0487 342.7193,7.1127 C342.8373,7.1597 342.9533,7.2077 343.0703,7.2557 C343.2303,7.3217 343.3893,7.3867 343.5483,7.4547 C343.6623,7.5037 343.7753,7.5537 343.8883,7.6037 C344.0483,7.6737 344.2083,7.7437 344.3673,7.8157 C344.4763,7.8657 344.5843,7.9177 344.6923,7.9677 C344.8533,8.0437 345.0153,8.1187 345.1753,8.1967 C345.2773,8.2457 345.3773,8.2967 345.4783,8.3467 C345.6433,8.4287 345.8093,8.5107 345.9733,8.5947 L346.2333,8.7317 C346.4093,8.8247 346.5853,8.9167 346.7603,9.0117 L346.8763,9.0757 C347.5343,9.4377 348.1813,9.8197 348.8143,10.2187 L349.0173,10.3457 C349.1763,10.4467 349.3333,10.5507 349.4903,10.6547 L349.7593,10.8317 C349.9063,10.9317 350.0523,11.0327 350.1993,11.1347 C350.2953,11.2017 350.3923,11.2667 350.4883,11.3347 C350.6293,11.4347 350.7683,11.5367 350.9073,11.6377 C351.0073,11.7097 351.1063,11.7817 351.2043,11.8547 C351.3403,11.9557 351.4753,12.0587 351.6093,12.1607 C351.7093,12.2367 351.8093,12.3127 351.9083,12.3897 C352.0403,12.4927 352.1703,12.5977 352.3013,12.7017 C352.4003,12.7817 352.5003,12.8607 352.5993,12.9417 C352.7273,13.0467 352.8543,13.1527 352.9813,13.2597 C353.0803,13.3427 353.1783,13.4247 353.2763,13.5087 C353.4013,13.6167 353.5253,13.7247 353.6493,13.8337 C353.7463,13.9187 353.8433,14.0047 353.9393,14.0917 C354.0613,14.2007 354.1833,14.3117 354.3033,14.4227 C354.3993,14.5117 354.4943,14.5997 354.5893,14.6887 C354.7083,14.8017 354.8273,14.9147 354.9443,15.0277 C355.0383,15.1187 355.1313,15.2097 355.2243,15.3007 C355.3403,15.4157 355.4573,15.5317 355.5723,15.6477 C355.6633,15.7407 355.7543,15.8337 355.8443,15.9277 C355.9583,16.0447 356.0723,16.1637 356.1843,16.2827 C356.2733,16.3767 356.3613,16.4717 356.4493,16.5667 C356.5613,16.6877 356.6723,16.8097 356.7833,16.9317 C356.8693,17.0277 356.9543,17.1237 357.0393,17.2207 C357.1483,17.3447 357.2583,17.4687 357.3663,17.5947 C357.4493,17.6917 357.5303,17.7887 357.6123,17.8867 C357.7203,18.0147 357.8283,18.1417 357.9343,18.2717 C358.0133,18.3677 358.0913,18.4657 358.1693,18.5637 C358.2753,18.6957 358.3823,18.8277 358.4863,18.9617 C358.5613,19.0577 358.6343,19.1547 358.7083,19.2507 C358.8133,19.3887 358.9193,19.5257 359.0223,19.6647 C359.0913,19.7567 359.1583,19.8507 359.2263,19.9437 C359.3323,20.0887 359.4393,20.2337 359.5433,20.3817 L359.7133,20.6267 C359.8253,20.7877 359.9373,20.9477 360.0473,21.1097 L360.1133,21.2097 C360.5263,21.8277 360.9213,22.4587 361.2983,23.1007 L361.4353,23.3327 C361.5273,23.4927 361.6173,23.6547 361.7073,23.8167 C361.7613,23.9137 361.8173,24.0107 361.8703,24.1087 C361.9553,24.2637 362.0373,24.4207 362.1193,24.5767 C362.1763,24.6827 362.2323,24.7887 362.2873,24.8947 C362.3673,25.0487 362.4433,25.2037 362.5203,25.3577 C362.5763,25.4697 362.6323,25.5807 362.6873,25.6927 C362.7613,25.8457 362.8333,25.9997 362.9063,26.1547 C362.9603,26.2697 363.0143,26.3847 363.0673,26.5007 C363.1383,26.6547 363.2063,26.8087 363.2743,26.9637 C363.3263,27.0817 363.3793,27.1997 363.4293,27.3187 C363.4963,27.4737 363.5603,27.6287 363.6243,27.7847 C363.6743,27.9047 363.7243,28.0257 363.7733,28.1477 C363.8353,28.3027 363.8963,28.4597 363.9563,28.6157 C364.0033,28.7387 364.0503,28.8617 364.0963,28.9847 C364.1553,29.1417 364.2123,29.2997 364.2693,29.4577 C364.3133,29.5817 364.3573,29.7067 364.4003,29.8317 C364.4553,29.9907 364.5093,30.1497 364.5623,30.3097 C364.6043,30.4357 364.6453,30.5607 364.6853,30.6877 C364.7363,30.8477 364.7863,31.0087 364.8363,31.1707 C364.8743,31.2967 364.9123,31.4247 364.9493,31.5517 C364.9973,31.7147 365.0443,31.8767 365.0893,32.0407 C365.1243,32.1677 365.1593,32.2957 365.1933,32.4237 C365.2373,32.5887 365.2803,32.7537 365.3223,32.9197 C365.3543,33.0467 365.3853,33.1747 365.4163,33.3027 C365.4563,33.4707 365.4963,33.6387 365.5353,33.8067 C365.5633,33.9337 365.5903,34.0617 365.6183,34.1887 C365.6553,34.3597 365.6913,34.5307 365.7263,34.7027 C365.7513,34.8277 365.7743,34.9537 365.7983,35.0797 C365.8323,35.2547 365.8653,35.4297 365.8963,35.6057 C365.9173,35.7277 365.9373,35.8517 365.9573,35.9747 C365.9873,36.1547 366.0173,36.3347 366.0443,36.5167 C366.0623,36.6327 366.0773,36.7497 366.0933,36.8667 C366.1203,37.0557 366.1473,37.2447 366.1713,37.4347 C366.1843,37.5337 366.1943,37.6337 366.2053,37.7337 C366.2303,37.9417 366.2553,38.1497 366.2763,38.3597 L366.2803,38.4017 C366.3383,38.9927 366.3843,39.5867 366.4153,40.1857 C366.4493,40.8437 366.4673,41.5057 366.4673,42.1717 L366.4673,93.8157 Z M370.4393,131.5567 L374.4123,131.5567 L374.4123,4.4317 L370.4393,4.4317 L370.4393,131.5567 Z M378.3843,131.5567 L382.3573,131.5567 L382.3573,4.4317 L378.3843,4.4317 L378.3843,131.5567 Z M386.3293,131.5567 L390.3023,131.5567 L390.3023,4.4317 L386.3293,4.4317 L386.3293,131.5567 Z M394.2753,131.5567 L398.2483,131.5567 L398.2483,4.4317 L394.2753,4.4317 L394.2753,131.5567 Z M453.8653,131.5567 L449.8923,131.5567 L449.8923,91.8297 L430.0283,91.8297 L430.0293,131.5567 L426.0563,131.5567 L426.0563,87.8567 L453.8653,87.8567 L453.8653,131.5567 Z M461.8103,131.5567 L457.8373,131.5567 L457.8373,83.8847 L422.0833,83.8847 L422.0833,131.5567 L418.1113,131.5567 L418.1113,79.9117 L461.8103,79.9117 L461.8103,131.5567 Z M461.8103,75.9387 L418.1113,75.9387 L418.1113,42.1717 C418.1113,30.1047 427.8933,20.3217 439.9613,20.3217 C452.0283,20.3217 461.8103,30.1047 461.8103,42.1717 L461.8103,75.9387 Z M469.7553,131.5567 L465.7833,131.5567 L465.7833,42.1717 C465.7833,27.9107 454.2223,16.3497 439.9613,16.3497 C425.6993,16.3497 414.1383,27.9107 414.1383,42.1717 L414.1383,131.5567 L410.1663,131.5567 L410.1663,42.1717 C410.1663,25.7167 423.5053,12.3767 439.9613,12.3767 C456.4163,12.3767 469.7553,25.7167 469.7553,42.1717 L469.7553,131.5567 Z M477.7013,131.5567 L473.7283,131.5567 L473.7283,42.1717 C473.7283,23.5227 458.6103,8.4037 439.9613,8.4037 C421.3113,8.4037 406.1933,23.5227 406.1933,42.1717 L406.1933,131.5567 L402.2203,131.5567 L402.2203,42.1717 C402.2203,37.1237 403.2143,32.3097 405.0123,27.9087 C405.7153,26.1877 406.5413,24.5297 407.4803,22.9467 L407.4813,22.9457 C407.9483,22.1577 408.4443,21.3887 408.9653,20.6387 L408.9773,20.6217 C409.4943,19.8807 410.0363,19.1577 410.6043,18.4567 L410.6353,18.4177 C410.7713,18.2497 410.9083,18.0837 411.0473,17.9187 L411.0913,17.8667 C411.5103,17.3697 411.9413,16.8837 412.3853,16.4087 L412.4483,16.3417 C412.5863,16.1947 412.7253,16.0487 412.8663,15.9037 L412.9633,15.8037 C413.3983,15.3587 413.8433,14.9257 414.2983,14.5027 L414.4053,14.4027 C414.5423,14.2767 414.6813,14.1517 414.8203,14.0267 L414.9773,13.8877 C415.1173,13.7637 415.2573,13.6407 415.3993,13.5187 L415.4323,13.4917 C415.7283,13.2377 416.0283,12.9897 416.3313,12.7457 L416.4983,12.6117 C416.6313,12.5057 416.7663,12.4007 416.9013,12.2957 L417.1213,12.1277 C417.2543,12.0267 417.3883,11.9247 417.5223,11.8257 L417.7263,11.6767 C417.9713,11.4977 418.2183,11.3217 418.4673,11.1487 L418.7173,10.9757 C418.8443,10.8887 418.9723,10.8037 419.1013,10.7177 C419.1963,10.6547 419.2913,10.5927 419.3863,10.5307 C419.5123,10.4487 419.6383,10.3667 419.7653,10.2857 C419.8703,10.2187 419.9773,10.1537 420.0833,10.0877 C420.2823,9.9637 420.4823,9.8417 420.6843,9.7217 C420.8073,9.6487 420.9293,9.5757 421.0533,9.5037 C421.1723,9.4347 421.2913,9.3677 421.4113,9.2997 C421.5283,9.2337 421.6463,9.1677 421.7643,9.1027 C421.8823,9.0377 422.0003,8.9727 422.1193,8.9087 C422.2533,8.8367 422.3883,8.7657 422.5233,8.6957 C422.6593,8.6247 422.7943,8.5547 422.9303,8.4857 C423.1183,8.3897 423.3073,8.2957 423.4973,8.2037 C423.6063,8.1507 423.7153,8.0997 423.8243,8.0477 C423.9643,7.9817 424.1043,7.9157 424.2453,7.8507 C424.3563,7.8007 424.4673,7.7497 424.5783,7.6997 C424.7343,7.6307 424.8923,7.5617 425.0493,7.4937 C425.1423,7.4537 425.2343,7.4127 425.3273,7.3737 C425.5643,7.2747 425.8023,7.1777 426.0413,7.0827 C426.1383,7.0437 426.2353,7.0067 426.3323,6.9697 C426.4943,6.9067 426.6583,6.8447 426.8223,6.7837 C426.9253,6.7447 427.0303,6.7067 427.1343,6.6687 C427.3083,6.6057 427.4833,6.5447 427.6593,6.4837 L427.9173,6.3947 C428.1693,6.3097 428.4223,6.2277 428.6763,6.1487 L428.9263,6.0727 C429.1123,6.0157 429.2973,5.9597 429.4843,5.9067 C429.5823,5.8777 429.6813,5.8497 429.7803,5.8227 C429.9683,5.7697 430.1573,5.7187 430.3473,5.6687 L430.5953,5.6037 C430.8603,5.5357 431.1263,5.4707 431.3933,5.4087 L431.5993,5.3627 C431.8073,5.3157 432.0163,5.2697 432.2253,5.2267 C432.3193,5.2067 432.4143,5.1877 432.5083,5.1687 C432.7073,5.1287 432.9063,5.0907 433.1063,5.0537 L433.3543,5.0087 C433.6303,4.9597 433.9073,4.9137 434.1853,4.8707 L434.3383,4.8487 C434.5713,4.8137 434.8033,4.7817 435.0373,4.7507 C435.1283,4.7387 435.2193,4.7277 435.3113,4.7167 C435.5183,4.6917 435.7253,4.6677 435.9333,4.6457 L436.1863,4.6187 C436.4713,4.5907 436.7563,4.5647 437.0433,4.5427 L437.1313,4.5367 C437.3913,4.5177 437.6513,4.5017 437.9123,4.4877 C438.0023,4.4827 438.0913,4.4787 438.1813,4.4747 C438.3933,4.4647 438.6063,4.4567 438.8193,4.4497 L439.0823,4.4427 C439.3743,4.4357 439.6673,4.4317 439.9613,4.4317 C440.2813,4.4317 440.6013,4.4357 440.9193,4.4437 C441.0263,4.4467 441.1313,4.4517 441.2373,4.4557 C441.4493,4.4627 441.6613,4.4687 441.8723,4.4797 C441.9993,4.4857 442.1253,4.4947 442.2513,4.5027 C442.4413,4.5137 442.6303,4.5247 442.8193,4.5387 C442.9543,4.5487 443.0883,4.5617 443.2233,4.5737 C443.4023,4.5887 443.5813,4.6037 443.7593,4.6207 C443.8983,4.6347 444.0373,4.6517 444.1753,4.6667 C444.3483,4.6867 444.5213,4.7047 444.6933,4.7267 C444.8343,4.7437 444.9743,4.7637 445.1143,4.7837 C445.2833,4.8067 445.4523,4.8287 445.6203,4.8537 C445.7623,4.8757 445.9033,4.8987 446.0443,4.9217 C446.2093,4.9487 446.3743,4.9747 446.5393,5.0037 C446.6813,5.0287 446.8233,5.0567 446.9653,5.0827 C447.1273,5.1137 447.2893,5.1437 447.4513,5.1757 C447.5933,5.2047 447.7343,5.2357 447.8763,5.2657 C448.0363,5.2997 448.1953,5.3337 448.3543,5.3697 C448.4963,5.4017 448.6383,5.4357 448.7793,5.4697 C448.9363,5.5077 449.0943,5.5457 449.2503,5.5847 C449.3913,5.6207 449.5323,5.6577 449.6733,5.6957 C449.8283,5.7367 449.9833,5.7777 450.1373,5.8217 C450.2783,5.8607 450.4183,5.9017 450.5583,5.9417 C450.7113,5.9867 450.8643,6.0317 451.0163,6.0787 C451.1553,6.1217 451.2953,6.1647 451.4333,6.2097 C451.5843,6.2577 451.7353,6.3057 451.8853,6.3557 C452.0243,6.4027 452.1623,6.4497 452.3003,6.4977 C452.4493,6.5487 452.5983,6.6007 452.7453,6.6537 C452.8833,6.7037 453.0203,6.7537 453.1573,6.8047 C453.3043,6.8597 453.4503,6.9157 453.5963,6.9727 C453.7323,7.0247 453.8683,7.0787 454.0043,7.1327 C454.1483,7.1907 454.2933,7.2497 454.4373,7.3097 C454.5723,7.3657 454.7073,7.4227 454.8413,7.4807 C454.9833,7.5417 455.1253,7.6037 455.2673,7.6667 C455.4013,7.7267 455.5353,7.7867 455.6683,7.8477 C455.8083,7.9117 455.9473,7.9767 456.0873,8.0427 C456.2193,8.1057 456.3523,8.1687 456.4843,8.2327 C456.6223,8.3007 456.7593,8.3697 456.8963,8.4387 C457.0273,8.5047 457.1583,8.5707 457.2893,8.6377 C457.4253,8.7077 457.5603,8.7797 457.6953,8.8517 C457.8243,8.9207 457.9543,8.9897 458.0823,9.0607 C458.2163,9.1337 458.3493,9.2087 458.4823,9.2837 C458.6103,9.3557 458.7383,9.4287 458.8653,9.5017 C458.9963,9.5777 459.1273,9.6557 459.2573,9.7337 C459.3843,9.8087 459.5103,9.8847 459.6363,9.9607 C459.7643,10.0397 459.8923,10.1207 460.0203,10.2007 C460.1453,10.2797 460.2703,10.3577 460.3943,10.4377 C460.5213,10.5197 460.6463,10.6027 460.7713,10.6857 C460.8953,10.7677 461.0183,10.8487 461.1413,10.9317 C461.2643,11.0157 461.3873,11.1017 461.5093,11.1877 C461.6313,11.2727 461.7543,11.3567 461.8753,11.4427 C461.9953,11.5297 462.1143,11.6177 462.2343,11.7057 C462.3553,11.7937 462.4763,11.8817 462.5963,11.9707 C462.7133,12.0587 462.8293,12.1497 462.9453,12.2387 C463.0653,12.3307 463.1853,12.4217 463.3033,12.5157 C463.4173,12.6057 463.5303,12.6977 463.6433,12.7887 C463.7613,12.8837 463.8803,12.9787 463.9983,13.0757 C464.1063,13.1657 464.2123,13.2567 464.3193,13.3477 C464.4393,13.4497 464.5603,13.5497 464.6793,13.6527 C464.7743,13.7347 464.8663,13.8187 464.9603,13.9017 C465.2793,14.1837 465.5943,14.4707 465.9033,14.7637 L465.9843,14.8387 C466.1113,14.9597 466.2353,15.0827 466.3603,15.2047 L466.6223,15.4607 C466.7403,15.5787 466.8563,15.6997 466.9733,15.8197 C467.0633,15.9117 467.1553,16.0037 467.2443,16.0967 C467.3583,16.2157 467.4703,16.3377 467.5823,16.4587 C467.6723,16.5547 467.7633,16.6507 467.8523,16.7477 C467.9623,16.8687 468.0703,16.9917 468.1783,17.1137 C468.2673,17.2137 468.3563,17.3117 468.4443,17.4127 C468.5513,17.5357 468.6553,17.6607 468.7613,17.7847 C468.8473,17.8867 468.9353,17.9887 469.0203,18.0917 C469.1243,18.2167 469.2263,18.3437 469.3283,18.4707 C469.4133,18.5747 469.4973,18.6787 469.5813,18.7837 C469.6823,18.9117 469.7813,19.0407 469.8803,19.1697 C469.9623,19.2767 470.0443,19.3817 470.1253,19.4897 C470.2233,19.6197 470.3193,19.7507 470.4163,19.8827 C470.4953,19.9907 470.5753,20.0987 470.6533,20.2077 C470.7483,20.3407 470.8413,20.4747 470.9353,20.6087 C471.0113,20.7187 471.0883,20.8287 471.1643,20.9387 C471.2563,21.0747 471.3473,21.2107 471.4373,21.3477 C471.5113,21.4587 471.5853,21.5707 471.6583,21.6827 C471.7473,21.8207 471.8353,21.9597 471.9223,22.0987 C471.9943,22.2117 472.0653,22.3247 472.1353,22.4387 C472.2213,22.5787 472.3063,22.7197 472.3903,22.8607 C472.4583,22.9757 472.5273,23.0907 472.5943,23.2067 C472.6773,23.3487 472.7593,23.4927 472.8403,23.6367 C472.9063,23.7517 472.9713,23.8677 473.0353,23.9847 C473.1153,24.1297 473.1943,24.2767 473.2733,24.4227 C473.3353,24.5397 473.3973,24.6577 473.4583,24.7747 C473.5353,24.9227 473.6113,25.0717 473.6863,25.2207 C473.7463,25.3387 473.8053,25.4577 473.8633,25.5767 C473.9373,25.7267 474.0103,25.8777 474.0813,26.0287 C474.1383,26.1487 474.1943,26.2677 474.2493,26.3887 C474.3203,26.5417 474.3893,26.6947 474.4583,26.8487 C474.5113,26.9687 474.5643,27.0887 474.6163,27.2097 C474.6833,27.3657 474.7503,27.5217 474.8153,27.6787 C474.8663,27.7987 474.9153,27.9207 474.9643,28.0417 C475.0283,28.1997 475.0913,28.3587 475.1533,28.5177 C475.2003,28.6397 475.2463,28.7607 475.2923,28.8827 C475.3533,29.0437 475.4133,29.2057 475.4713,29.3677 C475.5153,29.4897 475.5573,29.6107 475.6003,29.7327 C475.6573,29.8977 475.7143,30.0617 475.7703,30.2267 C475.8103,30.3487 475.8493,30.4707 475.8883,30.5927 C475.9423,30.7597 475.9963,30.9267 476.0483,31.0957 C476.0853,31.2157 476.1203,31.3377 476.1563,31.4587 C476.2063,31.6297 476.2573,31.8007 476.3053,31.9727 C476.3383,32.0927 476.3703,32.2127 476.4023,32.3327 C476.4493,32.5077 476.4973,32.6827 476.5423,32.8597 C476.5713,32.9767 476.5993,33.0947 476.6283,33.2117 C476.6723,33.3927 476.7163,33.5727 476.7573,33.7537 C476.7833,33.8677 476.8073,33.9827 476.8323,34.0967 C476.8723,34.2827 476.9133,34.4697 476.9513,34.6567 C476.9733,34.7647 476.9933,34.8747 477.0143,34.9827 C477.0513,35.1777 477.0893,35.3717 477.1243,35.5677 C477.1413,35.6647 477.1563,35.7637 477.1733,35.8617 C477.2083,36.0697 477.2433,36.2767 477.2743,36.4857 L477.3063,36.7147 C477.3403,36.9457 477.3733,37.1777 477.4033,37.4107 L477.4073,37.4457 C477.5203,38.3497 477.6013,39.2627 477.6493,40.1857 C477.6833,40.8437 477.7013,41.5057 477.7013,42.1717 L477.7013,131.5567 Z M533.3183,131.5567 L481.6733,131.5567 L481.6733,4.4317 L485.6463,4.4317 L485.6463,127.5837 L533.3183,127.5837 L533.3183,131.5567 Z M533.3183,123.6107 L489.6193,123.6107 L489.6193,4.4317 L493.5913,4.4317 L493.5913,119.6387 L533.3183,119.6387 L533.3183,123.6107 Z M533.3183,115.6657 L497.5643,115.6657 L497.5643,4.4317 L501.5373,4.4317 L501.5363,111.6927 L533.3183,111.6927 L533.3183,115.6657 Z M533.3183,107.7207 L505.5093,107.7207 L505.5093,4.4317 L509.4823,4.4317 L509.4823,103.7477 L533.3183,103.7477 L533.3183,107.7207 Z M328.7263,8.4037 L328.7263,8.4037 L294.9593,8.4037 L294.9593,127.5837 L328.7263,127.5837 C347.3763,127.5837 362.4943,112.4657 362.4943,93.8157 L362.4943,42.1717 C362.4943,23.5227 347.3763,8.4037 328.7263,8.4037 L328.7263,8.4037 Z M358.5213,93.8157 C358.5213,110.2717 345.1823,123.6107 328.7263,123.6107 L298.9313,123.6107 L298.9313,12.3767 L328.7263,12.3767 C345.1823,12.3767 358.5213,25.7167 358.5213,42.1717 L358.5213,93.8157 Z M439.9613,24.2947 C430.0873,24.2947 422.0833,32.2987 422.0833,42.1717 L422.0833,71.9667 L457.8373,71.9667 L457.8373,67.6187 L457.8373,42.1717 C457.8373,32.2987 449.8343,24.2947 439.9613,24.2947 L439.9613,24.2947 Z M453.8653,67.9937 L426.0563,67.9937 L426.0563,42.1717 C426.0563,34.4927 432.2813,28.2677 439.9613,28.2677 C447.6403,28.2677 453.8653,34.4927 453.8653,42.1717 L453.8653,67.9937 Z M439.9613,32.2397 C434.4753,32.2397 430.0293,36.6867 430.0293,42.1717 L430.0283,64.0207 L430.0293,64.0207 L430.0293,64.0217 L449.8923,64.0217 L449.8923,64.0207 L449.8923,42.1717 C449.8923,36.6867 445.4463,32.2397 439.9613,32.2397 L439.9613,32.2397 Z M328.7263,32.2397 L328.7263,32.2397 L318.7953,32.2397 L318.7953,103.7477 L328.7263,103.7477 C334.2113,103.7477 338.6583,99.3017 338.6583,93.8157 L338.6583,42.1717 C338.6583,36.6867 334.2113,32.2397 328.7263,32.2397 L328.7263,32.2397 Z M328.7263,24.2947 L310.8493,24.2947 L310.8493,111.6927 L328.7263,111.6927 C338.6003,111.6927 346.6033,103.6887 346.6033,93.8157 L346.6033,42.1717 C346.6033,32.2987 338.5993,24.2947 328.7263,24.2947 L328.7263,24.2947 Z M342.6313,93.8157 C342.6313,101.4957 336.4053,107.7207 328.7263,107.7207 L314.8223,107.7207 L314.8223,28.2677 L328.7263,28.2677 C336.4053,28.2677 342.6313,34.4927 342.6313,42.1717 L342.6313,93.8157 Z M328.7263,16.3497 L302.9043,16.3497 L302.9043,119.6387 L328.7263,119.6387 C342.9873,119.6387 354.5493,108.0777 354.5493,93.8157 L354.5493,42.1717 C354.5493,27.9107 342.9873,16.3497 328.7263,16.3497 L328.7263,16.3497 Z M350.5763,93.8157 C350.5763,105.8837 340.7933,115.6657 328.7263,115.6657 L306.8773,115.6657 L306.8773,20.3217 L328.7263,20.3217 C340.7933,20.3217 350.5763,30.1047 350.5763,42.1717 L350.5763,93.8157 Z" id="Fill-26" fill="#18181A"></path>
        </g>
    </g>
</svg>