<?xml version="1.0" encoding="UTF-8"?>
<svg style="width: 3.203125vw; height: 4.21875vw;" viewBox="0 0 41 54" version="1.1" xmlns="http://www.w3.org/2000/svg" xmlns:xlink="http://www.w3.org/1999/xlink">
    <g id="Page-1" stroke="none" stroke-width="1" fill="none" fill-rule="evenodd">
        <g id="Artboard" transform="translate(-114.000000, -71.000000)" fill-rule="nonzero">
            <g id="pointer" transform="translate(114.000000, 71.000000)">
                <path d="M36,15 C34.6666667,15 33.6666667,15.3333333 33,16 C33,13 30,11 28,11 C26.6666667,11 25.6666667,11.3333333 25,12 C24.5,10 22.5,8 20,8 C18.3333333,8 17.3333333,8.33333333 17,9 L17,5 C17,1.86538739 15.1751036,0 12,0 C8.82489642,0 7,1.86538739 7,5 L7,21.340226 L3.91024483,23.5788287 C1.76108804,25.1895132 0.398682582,27.5326504 0.0737514011,30.1758797 C-0.25117978,32.8205313 0.504591415,35.4168269 2.20201461,37.4876054 L11,46 L11,51 C11,53 12,54 14,54 L34,54 C36,54 37,53 37,51 L37,46 C39.8076648,42.5716952 41,40.8440872 41,36.4472383 L41,20 C41,16.8653874 38,15 36,15 Z" id="Shape" fill="#000000"></path>
                <path d="M35.386272,45 C35.1441947,45.256714 34.999381,45.6637185 34.999381,46.0335004 L34.999381,51 C35,51.5 34.5,52 34,52 L14,52 C13.5,52 13,51.5 13,51 L13,46 C13,45.6743075 12.7074949,45.2531584 12.5,45 L3.44267087,35.6991411 C2.24020936,34.2321026 1.70490145,32.3924377 1.93473082,30.5186391 C2.16456019,28.6455516 3.12998765,26.9850887 4.65305753,25.8444538 L7,23.9114657 L7,31 C7,31.5 7.5,32 8,32 C8.5,32 9,31.5 9,31 L9,22.0598784 C9,22.0532413 9,16.3666152 9,5 C9,3.43411593 10.4895708,2 12.0760419,2 C13.662513,2 15,3.43411593 15,5 L15,13.0514228 L15,25.0024889 C15,25.5 15.5,26 16,26 C16.5,26 17,25.5 17,25.0010667 L17,13.052845 C17,11.486961 18.4135289,10 20,10 C21.5864711,10 23,11.486961 23,13.052845 L23,16.0772342 L23,25.0039112 C23,25.5 23.5,26 24,26 C24.5,26 25,25.5 25,25.0010667 L25,16 C25,14.4341159 26.4135289,13 28,13 C29.5864711,13 31,14.4341159 31,16 C30.9995197,18.6518146 30.9995197,19.9983444 31,20.0395893 L31,25.0039112 C31,25.5 31.5,26 32,26 C32.5,26 33,25.5 33,24.9996444 C33,21.7054227 33,20.0388745 33,20 C33,18.4341159 34.4135289,17 36,17 C37.5864711,17 39.1188475,18.4341159 39.1188475,20 L39.1188475,36.4479494 C39.118127,40.323548 37.9417729,42.0275225 35.386272,45 Z" id="Path-Copy-2" fill="#FFFFFF"></path>
            </g>
        </g>
    </g>
</svg>